<mxfile host="app.diagrams.net" agent="Mozilla/5.0 (Windows NT 10.0; Win64; x64) AppleWebKit/537.36 (KHTML, like Gecko) Chrome/133.0.0.0 Safari/537.36 Edg/133.0.0.0" version="26.0.11" pages="8">
  <diagram id="zUP_Fx5a56Ai_3BsRDEW" name="第 1 页">
    <mxGraphModel dx="2867" dy="776" grid="1" gridSize="10" guides="1" tooltips="1" connect="1" arrows="1" fold="1" page="1" pageScale="1" pageWidth="827" pageHeight="1169" math="0" shadow="0">
      <root>
        <mxCell id="0" />
        <mxCell id="1" parent="0" />
        <mxCell id="go0N05m5vmgyFis3Mdyq-1" value="&lt;b&gt;Scheduler&lt;/b&gt;" style="rounded=1;whiteSpace=wrap;html=1;align=left;verticalAlign=top;fontStyle=0;fontFamily=Times New Roman;fontSize=18;fillColor=#E6D0DE;" vertex="1" parent="1">
          <mxGeometry x="-997.3333435058594" y="723.6666870117188" width="191" height="89" as="geometry" />
        </mxCell>
        <mxCell id="go0N05m5vmgyFis3Mdyq-2" value="" style="rounded=1;whiteSpace=wrap;html=1;dashed=1;fontFamily=Times New Roman;fontSize=18;" vertex="1" parent="1">
          <mxGeometry x="-916.3333435058594" y="727.6666870117188" width="100" height="75" as="geometry" />
        </mxCell>
        <mxCell id="go0N05m5vmgyFis3Mdyq-3" value="" style="rounded=0;whiteSpace=wrap;html=1;fontFamily=Times New Roman;fontSize=18;strokeWidth=2;fillColor=#f5f5f5;strokeColor=#666666;fontColor=#333333;dashed=1;" vertex="1" parent="1">
          <mxGeometry x="-1048.3333435058594" y="432.66668701171875" width="170" height="140" as="geometry" />
        </mxCell>
        <mxCell id="go0N05m5vmgyFis3Mdyq-4" value="Match" style="edgeStyle=orthogonalEdgeStyle;rounded=0;orthogonalLoop=1;jettySize=auto;html=1;exitX=0.5;exitY=1;exitDx=0;exitDy=0;exitPerimeter=0;entryX=0.5;entryY=0;entryDx=0;entryDy=0;labelBackgroundColor=none;fontStyle=1;horizontal=0;verticalAlign=bottom;fontFamily=Times New Roman;fontSize=18;" edge="1" parent="1" source="go0N05m5vmgyFis3Mdyq-5" target="go0N05m5vmgyFis3Mdyq-21">
          <mxGeometry relative="1" as="geometry" />
        </mxCell>
        <mxCell id="go0N05m5vmgyFis3Mdyq-5" value="Hash 0" style="shape=cylinder3;whiteSpace=wrap;html=1;boundedLbl=1;backgroundOutline=1;size=15;fillColor=#B9E0A5;strokeColor=#36393d;labelBackgroundColor=none;fontFamily=Times New Roman;fontSize=18;" vertex="1" parent="1">
          <mxGeometry x="-1107.8333435058594" y="472.66668701171875" width="57" height="60" as="geometry" />
        </mxCell>
        <mxCell id="go0N05m5vmgyFis3Mdyq-6" value="Queue 0" style="endArrow=none;html=1;rounded=0;horizontal=0;verticalAlign=bottom;fontStyle=1;labelBackgroundColor=none;strokeColor=#000000;fontFamily=Times New Roman;fontSize=18;" edge="1" parent="1">
          <mxGeometry width="50" height="50" relative="1" as="geometry">
            <mxPoint x="-1165.3333435058594" y="532.6666870117188" as="sourcePoint" />
            <mxPoint x="-1165.3333435058594" y="452.66668701171875" as="targetPoint" />
          </mxGeometry>
        </mxCell>
        <mxCell id="go0N05m5vmgyFis3Mdyq-7" value="" style="endArrow=none;html=1;rounded=0;labelBackgroundColor=none;strokeColor=#000000;fontFamily=Times New Roman;fontSize=18;" edge="1" parent="1">
          <mxGeometry width="50" height="50" relative="1" as="geometry">
            <mxPoint x="-1125.3333435058594" y="532.6666870117188" as="sourcePoint" />
            <mxPoint x="-1125.3333435058594" y="452.66668701171875" as="targetPoint" />
          </mxGeometry>
        </mxCell>
        <mxCell id="go0N05m5vmgyFis3Mdyq-8" value="" style="endArrow=none;html=1;rounded=0;labelBackgroundColor=none;strokeColor=#000000;fontFamily=Times New Roman;fontSize=18;" edge="1" parent="1">
          <mxGeometry width="50" height="50" relative="1" as="geometry">
            <mxPoint x="-1165.9233435058593" y="644.6666870117188" as="sourcePoint" />
            <mxPoint x="-1165.9233435058593" y="564.6666870117188" as="targetPoint" />
          </mxGeometry>
        </mxCell>
        <mxCell id="go0N05m5vmgyFis3Mdyq-9" value="" style="endArrow=none;html=1;rounded=0;labelBackgroundColor=none;strokeColor=#000000;fontFamily=Times New Roman;fontSize=18;" edge="1" parent="1">
          <mxGeometry width="50" height="50" relative="1" as="geometry">
            <mxPoint x="-1125.9233435058593" y="644.6666870117188" as="sourcePoint" />
            <mxPoint x="-1125.9233435058593" y="564.6666870117188" as="targetPoint" />
          </mxGeometry>
        </mxCell>
        <mxCell id="go0N05m5vmgyFis3Mdyq-10" value="Core 0" style="ellipse;whiteSpace=wrap;html=1;aspect=fixed;fillColor=#A9C4EB;strokeColor=#36393d;labelBackgroundColor=none;fontFamily=Times New Roman;fontSize=18;" vertex="1" parent="1">
          <mxGeometry x="-1175.3333435058594" y="512.6666870117188" width="60" height="60" as="geometry" />
        </mxCell>
        <mxCell id="go0N05m5vmgyFis3Mdyq-11" value="" style="rounded=1;whiteSpace=wrap;html=1;labelBackgroundColor=none;fontFamily=Times New Roman;fontSize=18;" vertex="1" parent="1">
          <mxGeometry x="-1160.3333435058594" y="594.6666870117188" width="30" height="20" as="geometry" />
        </mxCell>
        <mxCell id="go0N05m5vmgyFis3Mdyq-12" value="" style="rounded=1;whiteSpace=wrap;html=1;labelBackgroundColor=none;fontFamily=Times New Roman;fontSize=18;" vertex="1" parent="1">
          <mxGeometry x="-1160.3333435058594" y="492.66668701171875" width="30" height="20" as="geometry" />
        </mxCell>
        <mxCell id="go0N05m5vmgyFis3Mdyq-13" value="" style="rounded=1;whiteSpace=wrap;html=1;labelBackgroundColor=none;fontFamily=Times New Roman;fontSize=18;" vertex="1" parent="1">
          <mxGeometry x="-1160.3333435058594" y="472.66668701171875" width="30" height="20" as="geometry" />
        </mxCell>
        <mxCell id="go0N05m5vmgyFis3Mdyq-14" style="edgeStyle=orthogonalEdgeStyle;rounded=0;orthogonalLoop=1;jettySize=auto;html=1;exitX=1;exitY=0.5;exitDx=0;exitDy=0;entryX=0.145;entryY=1;entryDx=0;entryDy=-4.35;entryPerimeter=0;labelBackgroundColor=none;strokeColor=#000000;fontFamily=Times New Roman;fontSize=18;" edge="1" parent="1" source="go0N05m5vmgyFis3Mdyq-10" target="go0N05m5vmgyFis3Mdyq-5">
          <mxGeometry relative="1" as="geometry">
            <mxPoint x="-1119.3333435058596" y="542.6666870117188" as="sourcePoint" />
          </mxGeometry>
        </mxCell>
        <mxCell id="go0N05m5vmgyFis3Mdyq-15" value="" style="ellipse;whiteSpace=wrap;html=1;aspect=fixed;fillColor=#cce5ff;strokeColor=#36393d;labelBackgroundColor=none;fontFamily=Times New Roman;fontSize=18;" vertex="1" parent="1">
          <mxGeometry x="-1192.8333435058594" y="723.6666870117188" width="89" height="89" as="geometry" />
        </mxCell>
        <mxCell id="go0N05m5vmgyFis3Mdyq-16" value="" style="endArrow=none;html=1;rounded=0;exitX=0;exitY=0;exitDx=0;exitDy=0;entryX=1;entryY=1;entryDx=0;entryDy=0;labelBackgroundColor=none;strokeColor=default;fontFamily=Times New Roman;fontSize=18;" edge="1" parent="1" source="go0N05m5vmgyFis3Mdyq-81" target="go0N05m5vmgyFis3Mdyq-15">
          <mxGeometry width="50" height="50" relative="1" as="geometry">
            <mxPoint x="-1031.3333435058594" y="613.6666870117188" as="sourcePoint" />
            <mxPoint x="-981.3333435058594" y="563.6666870117188" as="targetPoint" />
          </mxGeometry>
        </mxCell>
        <mxCell id="go0N05m5vmgyFis3Mdyq-17" value="" style="endArrow=none;html=1;rounded=0;exitX=0;exitY=0.5;exitDx=0;exitDy=0;entryX=1;entryY=0.5;entryDx=0;entryDy=0;labelBackgroundColor=none;strokeColor=default;fontFamily=Times New Roman;fontSize=18;" edge="1" parent="1" source="go0N05m5vmgyFis3Mdyq-15" target="go0N05m5vmgyFis3Mdyq-15">
          <mxGeometry width="50" height="50" relative="1" as="geometry">
            <mxPoint x="-1021.3333435058594" y="623.6666870117188" as="sourcePoint" />
            <mxPoint x="-971.3333435058594" y="573.6666870117188" as="targetPoint" />
          </mxGeometry>
        </mxCell>
        <mxCell id="go0N05m5vmgyFis3Mdyq-18" value="" style="endArrow=none;html=1;rounded=0;exitX=0.5;exitY=0;exitDx=0;exitDy=0;entryX=0.5;entryY=1;entryDx=0;entryDy=0;labelBackgroundColor=none;strokeColor=default;fontFamily=Times New Roman;fontSize=18;" edge="1" parent="1" source="go0N05m5vmgyFis3Mdyq-15" target="go0N05m5vmgyFis3Mdyq-15">
          <mxGeometry width="50" height="50" relative="1" as="geometry">
            <mxPoint x="-1021.3333435058594" y="623.6666870117188" as="sourcePoint" />
            <mxPoint x="-971.3333435058594" y="573.6666870117188" as="targetPoint" />
          </mxGeometry>
        </mxCell>
        <mxCell id="go0N05m5vmgyFis3Mdyq-19" value="" style="endArrow=none;html=1;rounded=0;exitX=1;exitY=0;exitDx=0;exitDy=0;entryX=0;entryY=1;entryDx=0;entryDy=0;labelBackgroundColor=none;strokeColor=default;fontFamily=Times New Roman;fontSize=18;" edge="1" parent="1" source="go0N05m5vmgyFis3Mdyq-81" target="go0N05m5vmgyFis3Mdyq-15">
          <mxGeometry width="50" height="50" relative="1" as="geometry">
            <mxPoint x="-1011.3333435058594" y="633.6666870117188" as="sourcePoint" />
            <mxPoint x="-961.3333435058594" y="583.6666870117188" as="targetPoint" />
          </mxGeometry>
        </mxCell>
        <mxCell id="go0N05m5vmgyFis3Mdyq-20" style="edgeStyle=orthogonalEdgeStyle;rounded=0;orthogonalLoop=1;jettySize=auto;html=1;exitX=0;exitY=0.5;exitDx=0;exitDy=0;entryX=0;entryY=0;entryDx=0;entryDy=0;fontFamily=Times New Roman;fontSize=18;" edge="1" parent="1" source="go0N05m5vmgyFis3Mdyq-21" target="go0N05m5vmgyFis3Mdyq-15">
          <mxGeometry relative="1" as="geometry" />
        </mxCell>
        <mxCell id="go0N05m5vmgyFis3Mdyq-21" value="" style="rounded=1;whiteSpace=wrap;html=1;fillColor=#cce5ff;strokeColor=#36393d;labelBackgroundColor=none;verticalAlign=top;labelPosition=center;verticalLabelPosition=bottom;align=center;fontFamily=Times New Roman;fontSize=18;" vertex="1" parent="1">
          <mxGeometry x="-1099.3333435058594" y="667.6666870117188" width="40" height="20" as="geometry" />
        </mxCell>
        <mxCell id="go0N05m5vmgyFis3Mdyq-22" style="edgeStyle=orthogonalEdgeStyle;rounded=0;orthogonalLoop=1;jettySize=auto;html=1;exitX=0.5;exitY=1;exitDx=0;exitDy=0;exitPerimeter=0;labelBackgroundColor=none;fontFamily=Times New Roman;fontSize=18;" edge="1" parent="1">
          <mxGeometry relative="1" as="geometry">
            <mxPoint x="-837.3333435058594" y="713.3766870117188" as="targetPoint" />
            <mxPoint x="-837.3333435058594" y="713.3766870117188" as="sourcePoint" />
          </mxGeometry>
        </mxCell>
        <mxCell id="go0N05m5vmgyFis3Mdyq-23" value="Hash 1" style="shape=cylinder3;whiteSpace=wrap;html=1;boundedLbl=1;backgroundOutline=1;size=15;fillColor=#B9E0A5;strokeColor=#36393d;labelBackgroundColor=none;fontFamily=Times New Roman;fontSize=18;" vertex="1" parent="1">
          <mxGeometry x="-965.3333435058594" y="472.66668701171875" width="57" height="60" as="geometry" />
        </mxCell>
        <mxCell id="go0N05m5vmgyFis3Mdyq-24" value="&lt;span style=&quot;color: rgb(0, 0, 0); font-variant-ligatures: normal; font-variant-caps: normal; letter-spacing: normal; orphans: 2; text-align: center; text-indent: 0px; text-transform: none; widows: 2; word-spacing: 0px; -webkit-text-stroke-width: 0px; white-space: nowrap; text-decoration-thickness: initial; text-decoration-style: initial; text-decoration-color: initial; float: none; display: inline !important;&quot;&gt;Queue 1&lt;/span&gt;" style="endArrow=none;html=1;rounded=0;horizontal=0;labelBackgroundColor=none;fontStyle=1;verticalAlign=bottom;strokeColor=#000000;fontFamily=Times New Roman;fontSize=18;" edge="1" parent="1">
          <mxGeometry width="50" height="50" relative="1" as="geometry">
            <mxPoint x="-1025.3333435058594" y="532.6666870117188" as="sourcePoint" />
            <mxPoint x="-1025.3333435058594" y="452.66668701171875" as="targetPoint" />
          </mxGeometry>
        </mxCell>
        <mxCell id="go0N05m5vmgyFis3Mdyq-25" value="" style="endArrow=none;html=1;rounded=0;labelBackgroundColor=none;strokeColor=#000000;fontFamily=Times New Roman;fontSize=18;" edge="1" parent="1">
          <mxGeometry width="50" height="50" relative="1" as="geometry">
            <mxPoint x="-985.3333435058594" y="532.6666870117188" as="sourcePoint" />
            <mxPoint x="-985.3333435058594" y="452.66668701171875" as="targetPoint" />
          </mxGeometry>
        </mxCell>
        <mxCell id="go0N05m5vmgyFis3Mdyq-26" value="" style="endArrow=none;html=1;rounded=0;labelBackgroundColor=none;strokeColor=#000000;fontFamily=Times New Roman;fontSize=18;" edge="1" parent="1">
          <mxGeometry width="50" height="50" relative="1" as="geometry">
            <mxPoint x="-1025.9233435058593" y="644.6666870117188" as="sourcePoint" />
            <mxPoint x="-1025.9233435058593" y="564.6666870117188" as="targetPoint" />
          </mxGeometry>
        </mxCell>
        <mxCell id="go0N05m5vmgyFis3Mdyq-27" value="" style="endArrow=none;html=1;rounded=0;labelBackgroundColor=none;strokeColor=#000000;fontFamily=Times New Roman;fontSize=18;" edge="1" parent="1">
          <mxGeometry width="50" height="50" relative="1" as="geometry">
            <mxPoint x="-985.9233435058593" y="644.6666870117188" as="sourcePoint" />
            <mxPoint x="-985.9233435058593" y="564.6666870117188" as="targetPoint" />
          </mxGeometry>
        </mxCell>
        <mxCell id="go0N05m5vmgyFis3Mdyq-28" value="Core 1" style="ellipse;whiteSpace=wrap;html=1;aspect=fixed;fillColor=#A9C4EB;strokeColor=#36393d;labelBackgroundColor=none;fontFamily=Times New Roman;fontSize=18;" vertex="1" parent="1">
          <mxGeometry x="-1035.3333435058594" y="512.6666870117188" width="60" height="60" as="geometry" />
        </mxCell>
        <mxCell id="go0N05m5vmgyFis3Mdyq-29" value="" style="rounded=1;whiteSpace=wrap;html=1;labelBackgroundColor=none;fontFamily=Times New Roman;fontSize=18;" vertex="1" parent="1">
          <mxGeometry x="-1020.3333435058594" y="594.6666870117188" width="30" height="20" as="geometry" />
        </mxCell>
        <mxCell id="go0N05m5vmgyFis3Mdyq-30" value="" style="rounded=1;whiteSpace=wrap;html=1;labelBackgroundColor=none;fontFamily=Times New Roman;fontSize=18;" vertex="1" parent="1">
          <mxGeometry x="-1020.3333435058594" y="492.66668701171875" width="30" height="20" as="geometry" />
        </mxCell>
        <mxCell id="go0N05m5vmgyFis3Mdyq-31" value="" style="rounded=1;whiteSpace=wrap;html=1;labelBackgroundColor=none;fontFamily=Times New Roman;fontSize=18;" vertex="1" parent="1">
          <mxGeometry x="-1020.3333435058594" y="472.66668701171875" width="30" height="20" as="geometry" />
        </mxCell>
        <mxCell id="go0N05m5vmgyFis3Mdyq-32" style="edgeStyle=orthogonalEdgeStyle;rounded=0;orthogonalLoop=1;jettySize=auto;html=1;exitX=1;exitY=0.5;exitDx=0;exitDy=0;entryX=0.145;entryY=1;entryDx=0;entryDy=-4.35;entryPerimeter=0;labelBackgroundColor=none;strokeColor=#000000;fontFamily=Times New Roman;fontSize=18;" edge="1" parent="1" source="go0N05m5vmgyFis3Mdyq-28" target="go0N05m5vmgyFis3Mdyq-23">
          <mxGeometry relative="1" as="geometry" />
        </mxCell>
        <mxCell id="go0N05m5vmgyFis3Mdyq-33" value="Hash N" style="shape=cylinder3;whiteSpace=wrap;html=1;boundedLbl=1;backgroundOutline=1;size=15;fillColor=#B9E0A5;strokeColor=#36393d;labelBackgroundColor=none;fontFamily=Times New Roman;fontSize=18;" vertex="1" parent="1">
          <mxGeometry x="-692.8333435058594" y="472.66668701171875" width="57" height="60" as="geometry" />
        </mxCell>
        <mxCell id="go0N05m5vmgyFis3Mdyq-34" value="&lt;span style=&quot;color: rgb(0, 0, 0); font-style: normal; font-variant-ligatures: normal; font-variant-caps: normal; letter-spacing: normal; orphans: 2; text-align: center; text-indent: 0px; text-transform: none; widows: 2; word-spacing: 0px; -webkit-text-stroke-width: 0px; white-space: nowrap; text-decoration-thickness: initial; text-decoration-style: initial; text-decoration-color: initial; float: none; display: inline !important;&quot;&gt;Queue N&lt;/span&gt;" style="endArrow=none;html=1;rounded=0;horizontal=0;fontStyle=1;verticalAlign=bottom;labelBackgroundColor=none;strokeColor=#000000;fontFamily=Times New Roman;fontSize=18;" edge="1" parent="1">
          <mxGeometry width="50" height="50" relative="1" as="geometry">
            <mxPoint x="-754.3333435058594" y="532.6666870117188" as="sourcePoint" />
            <mxPoint x="-754.3333435058594" y="452.66668701171875" as="targetPoint" />
          </mxGeometry>
        </mxCell>
        <mxCell id="go0N05m5vmgyFis3Mdyq-35" value="" style="endArrow=none;html=1;rounded=0;labelBackgroundColor=none;strokeColor=#000000;fontFamily=Times New Roman;fontSize=18;" edge="1" parent="1">
          <mxGeometry width="50" height="50" relative="1" as="geometry">
            <mxPoint x="-714.3333435058594" y="532.6666870117188" as="sourcePoint" />
            <mxPoint x="-714.3333435058594" y="452.66668701171875" as="targetPoint" />
          </mxGeometry>
        </mxCell>
        <mxCell id="go0N05m5vmgyFis3Mdyq-36" value="" style="endArrow=none;html=1;rounded=0;labelBackgroundColor=none;strokeColor=#000000;fontFamily=Times New Roman;fontSize=18;" edge="1" parent="1">
          <mxGeometry width="50" height="50" relative="1" as="geometry">
            <mxPoint x="-754.9233435058593" y="644.6666870117188" as="sourcePoint" />
            <mxPoint x="-754.9233435058593" y="564.6666870117188" as="targetPoint" />
          </mxGeometry>
        </mxCell>
        <mxCell id="go0N05m5vmgyFis3Mdyq-37" value="" style="endArrow=none;html=1;rounded=0;labelBackgroundColor=none;strokeColor=#000000;fontFamily=Times New Roman;fontSize=18;" edge="1" parent="1">
          <mxGeometry width="50" height="50" relative="1" as="geometry">
            <mxPoint x="-714.9233435058593" y="644.6666870117188" as="sourcePoint" />
            <mxPoint x="-714.9233435058593" y="564.6666870117188" as="targetPoint" />
          </mxGeometry>
        </mxCell>
        <mxCell id="go0N05m5vmgyFis3Mdyq-38" value="Core N" style="ellipse;whiteSpace=wrap;html=1;aspect=fixed;fillColor=#A9C4EB;strokeColor=#36393d;labelBackgroundColor=none;fontFamily=Times New Roman;fontSize=18;" vertex="1" parent="1">
          <mxGeometry x="-764.3333435058594" y="512.6666870117188" width="60" height="60" as="geometry" />
        </mxCell>
        <mxCell id="go0N05m5vmgyFis3Mdyq-39" value="" style="rounded=1;whiteSpace=wrap;html=1;labelBackgroundColor=none;fontFamily=Times New Roman;fontSize=18;" vertex="1" parent="1">
          <mxGeometry x="-749.3333435058594" y="594.6666870117188" width="30" height="20" as="geometry" />
        </mxCell>
        <mxCell id="go0N05m5vmgyFis3Mdyq-40" value="" style="rounded=1;whiteSpace=wrap;html=1;labelBackgroundColor=none;fontFamily=Times New Roman;fontSize=18;" vertex="1" parent="1">
          <mxGeometry x="-749.3333435058594" y="492.66668701171875" width="30" height="20" as="geometry" />
        </mxCell>
        <mxCell id="go0N05m5vmgyFis3Mdyq-41" value="" style="rounded=1;whiteSpace=wrap;html=1;labelBackgroundColor=none;fontFamily=Times New Roman;fontSize=18;" vertex="1" parent="1">
          <mxGeometry x="-749.3333435058594" y="472.66668701171875" width="30" height="20" as="geometry" />
        </mxCell>
        <mxCell id="go0N05m5vmgyFis3Mdyq-42" style="edgeStyle=orthogonalEdgeStyle;rounded=0;orthogonalLoop=1;jettySize=auto;html=1;exitX=1;exitY=0.5;exitDx=0;exitDy=0;entryX=0.145;entryY=1;entryDx=0;entryDy=-4.35;entryPerimeter=0;labelBackgroundColor=none;strokeColor=#000000;fontFamily=Times New Roman;fontSize=18;" edge="1" parent="1" source="go0N05m5vmgyFis3Mdyq-38" target="go0N05m5vmgyFis3Mdyq-33">
          <mxGeometry relative="1" as="geometry" />
        </mxCell>
        <mxCell id="go0N05m5vmgyFis3Mdyq-43" value="" style="group;labelBackgroundColor=none;strokeColor=none;fontFamily=Times New Roman;fontSize=18;" vertex="1" connectable="0" parent="1">
          <mxGeometry x="-898.3333435058594" y="604.6666870117188" width="120" height="20" as="geometry" />
        </mxCell>
        <mxCell id="go0N05m5vmgyFis3Mdyq-44" value="" style="shape=waypoint;sketch=0;fillStyle=solid;size=6;pointerEvents=1;points=[];fillColor=none;resizable=0;rotatable=0;perimeter=centerPerimeter;snapToPoint=1;labelBackgroundColor=none;strokeColor=#000000;fontFamily=Times New Roman;fontSize=18;" vertex="1" parent="go0N05m5vmgyFis3Mdyq-43">
          <mxGeometry x="20" width="20" height="20" as="geometry" />
        </mxCell>
        <mxCell id="go0N05m5vmgyFis3Mdyq-45" value="" style="shape=waypoint;sketch=0;fillStyle=solid;size=6;pointerEvents=1;points=[];fillColor=none;resizable=0;rotatable=0;perimeter=centerPerimeter;snapToPoint=1;labelBackgroundColor=none;strokeColor=#000000;fontFamily=Times New Roman;fontSize=18;" vertex="1" parent="go0N05m5vmgyFis3Mdyq-43">
          <mxGeometry x="40" width="20" height="20" as="geometry" />
        </mxCell>
        <mxCell id="go0N05m5vmgyFis3Mdyq-46" value="" style="shape=waypoint;sketch=0;fillStyle=solid;size=6;pointerEvents=1;points=[];fillColor=none;resizable=0;rotatable=0;perimeter=centerPerimeter;snapToPoint=1;labelBackgroundColor=none;strokeColor=#000000;fontFamily=Times New Roman;fontSize=18;" vertex="1" parent="go0N05m5vmgyFis3Mdyq-43">
          <mxGeometry x="58.5" width="20" height="20" as="geometry" />
        </mxCell>
        <mxCell id="go0N05m5vmgyFis3Mdyq-47" value="" style="shape=waypoint;sketch=0;fillStyle=solid;size=6;pointerEvents=1;points=[];fillColor=none;resizable=0;rotatable=0;perimeter=centerPerimeter;snapToPoint=1;labelBackgroundColor=none;strokeColor=#000000;fontFamily=Times New Roman;fontSize=18;" vertex="1" parent="go0N05m5vmgyFis3Mdyq-43">
          <mxGeometry x="80" width="20" height="20" as="geometry" />
        </mxCell>
        <mxCell id="go0N05m5vmgyFis3Mdyq-48" value="" style="shape=waypoint;sketch=0;fillStyle=solid;size=6;pointerEvents=1;points=[];fillColor=none;resizable=0;rotatable=0;perimeter=centerPerimeter;snapToPoint=1;labelBackgroundColor=none;strokeColor=#000000;fontFamily=Times New Roman;fontSize=18;" vertex="1" parent="go0N05m5vmgyFis3Mdyq-43">
          <mxGeometry x="100" width="20" height="20" as="geometry" />
        </mxCell>
        <mxCell id="go0N05m5vmgyFis3Mdyq-49" value="" style="shape=waypoint;sketch=0;fillStyle=solid;size=6;pointerEvents=1;points=[];fillColor=none;resizable=0;rotatable=0;perimeter=centerPerimeter;snapToPoint=1;labelBackgroundColor=none;strokeColor=#000000;fontFamily=Times New Roman;fontSize=18;" vertex="1" parent="go0N05m5vmgyFis3Mdyq-43">
          <mxGeometry width="20" height="20" as="geometry" />
        </mxCell>
        <mxCell id="go0N05m5vmgyFis3Mdyq-50" value="" style="endArrow=classic;html=1;rounded=0;entryX=0.5;entryY=0;entryDx=0;entryDy=0;labelBackgroundColor=none;fontFamily=Times New Roman;fontSize=18;" edge="1" parent="1" target="go0N05m5vmgyFis3Mdyq-13">
          <mxGeometry width="50" height="50" relative="1" as="geometry">
            <mxPoint x="-1145.3333435058594" y="422.66668701171875" as="sourcePoint" />
            <mxPoint x="-798.3333435058594" y="542.6666870117188" as="targetPoint" />
          </mxGeometry>
        </mxCell>
        <mxCell id="go0N05m5vmgyFis3Mdyq-51" value="" style="endArrow=classic;html=1;rounded=0;entryX=0.5;entryY=0;entryDx=0;entryDy=0;labelBackgroundColor=none;fontFamily=Times New Roman;fontSize=18;" edge="1" parent="1">
          <mxGeometry width="50" height="50" relative="1" as="geometry">
            <mxPoint x="-1005.8333435058594" y="422.66668701171875" as="sourcePoint" />
            <mxPoint x="-1005.8333435058594" y="472.66668701171875" as="targetPoint" />
          </mxGeometry>
        </mxCell>
        <mxCell id="go0N05m5vmgyFis3Mdyq-52" value="" style="endArrow=classic;html=1;rounded=0;entryX=0.5;entryY=0;entryDx=0;entryDy=0;labelBackgroundColor=none;fontFamily=Times New Roman;fontSize=18;" edge="1" parent="1">
          <mxGeometry width="50" height="50" relative="1" as="geometry">
            <mxPoint x="-734.8333435058594" y="422.66668701171875" as="sourcePoint" />
            <mxPoint x="-734.8333435058594" y="472.66668701171875" as="targetPoint" />
          </mxGeometry>
        </mxCell>
        <mxCell id="go0N05m5vmgyFis3Mdyq-53" value="" style="endArrow=classic;html=1;rounded=0;labelBackgroundColor=none;fontFamily=Times New Roman;fontSize=18;" edge="1" parent="1">
          <mxGeometry width="50" height="50" relative="1" as="geometry">
            <mxPoint x="-1145.8333435058594" y="614.6666870117188" as="sourcePoint" />
            <mxPoint x="-1146.3333435058594" y="652.6666870117188" as="targetPoint" />
          </mxGeometry>
        </mxCell>
        <mxCell id="go0N05m5vmgyFis3Mdyq-54" value="" style="endArrow=classic;html=1;rounded=0;labelBackgroundColor=none;fontFamily=Times New Roman;fontSize=18;" edge="1" parent="1">
          <mxGeometry width="50" height="50" relative="1" as="geometry">
            <mxPoint x="-1005.8333435058594" y="614.6666870117188" as="sourcePoint" />
            <mxPoint x="-1005.3333435058594" y="652.6666870117188" as="targetPoint" />
          </mxGeometry>
        </mxCell>
        <mxCell id="go0N05m5vmgyFis3Mdyq-55" value="" style="endArrow=classic;html=1;rounded=0;labelBackgroundColor=none;fontFamily=Times New Roman;fontSize=18;" edge="1" parent="1">
          <mxGeometry width="50" height="50" relative="1" as="geometry">
            <mxPoint x="-734.8333435058594" y="614.6666870117188" as="sourcePoint" />
            <mxPoint x="-734.3333435058594" y="652.6666870117188" as="targetPoint" />
          </mxGeometry>
        </mxCell>
        <mxCell id="go0N05m5vmgyFis3Mdyq-56" value="Match" style="edgeStyle=orthogonalEdgeStyle;rounded=0;orthogonalLoop=1;jettySize=auto;html=1;exitX=0.5;exitY=1;exitDx=0;exitDy=0;exitPerimeter=0;labelBackgroundColor=none;fontStyle=1;horizontal=0;verticalAlign=bottom;fontFamily=Times New Roman;fontSize=18;" edge="1" parent="1" source="go0N05m5vmgyFis3Mdyq-23" target="go0N05m5vmgyFis3Mdyq-58">
          <mxGeometry relative="1" as="geometry">
            <mxPoint x="-937.3333435058594" y="692.6666870117188" as="targetPoint" />
            <mxPoint x="-937.3333435058594" y="532.6666870117188" as="sourcePoint" />
          </mxGeometry>
        </mxCell>
        <mxCell id="go0N05m5vmgyFis3Mdyq-57" style="edgeStyle=orthogonalEdgeStyle;rounded=0;orthogonalLoop=1;jettySize=auto;html=1;exitX=0.5;exitY=1;exitDx=0;exitDy=0;entryX=0.5;entryY=0;entryDx=0;entryDy=0;fontFamily=Times New Roman;fontSize=18;" edge="1" parent="1" source="go0N05m5vmgyFis3Mdyq-58" target="go0N05m5vmgyFis3Mdyq-15">
          <mxGeometry relative="1" as="geometry">
            <Array as="points">
              <mxPoint x="-935.3333435058594" y="697.6666870117188" />
              <mxPoint x="-1148.3333435058594" y="697.6666870117188" />
            </Array>
          </mxGeometry>
        </mxCell>
        <mxCell id="go0N05m5vmgyFis3Mdyq-58" value="" style="rounded=1;whiteSpace=wrap;html=1;fillColor=#E1D5E7;strokeColor=#36393d;labelBackgroundColor=none;labelPosition=center;verticalLabelPosition=bottom;align=center;verticalAlign=top;fontFamily=Times New Roman;fontSize=18;" vertex="1" parent="1">
          <mxGeometry x="-957.3333435058594" y="667.6666870117188" width="40" height="20" as="geometry" />
        </mxCell>
        <mxCell id="go0N05m5vmgyFis3Mdyq-59" value="" style="endArrow=none;html=1;rounded=0;labelBackgroundColor=none;fontFamily=Times New Roman;fontSize=18;" edge="1" parent="1">
          <mxGeometry width="50" height="50" relative="1" as="geometry">
            <mxPoint x="-986.3333435058594" y="760.9466870117187" as="sourcePoint" />
            <mxPoint x="-826.3333435058594" y="760.9466870117187" as="targetPoint" />
          </mxGeometry>
        </mxCell>
        <mxCell id="go0N05m5vmgyFis3Mdyq-60" value="" style="endArrow=none;html=1;rounded=0;labelBackgroundColor=none;fontFamily=Times New Roman;fontSize=18;" edge="1" parent="1">
          <mxGeometry width="50" height="50" relative="1" as="geometry">
            <mxPoint x="-986.3333435058594" y="797.6666870117188" as="sourcePoint" />
            <mxPoint x="-826.3333435058594" y="797.6666870117188" as="targetPoint" />
          </mxGeometry>
        </mxCell>
        <mxCell id="go0N05m5vmgyFis3Mdyq-61" value="" style="edgeStyle=orthogonalEdgeStyle;rounded=0;orthogonalLoop=1;jettySize=auto;html=1;entryX=0.5;entryY=1;entryDx=0;entryDy=0;fontSize=18;fontFamily=Times New Roman;" edge="1" parent="1" source="go0N05m5vmgyFis3Mdyq-62" target="go0N05m5vmgyFis3Mdyq-77">
          <mxGeometry relative="1" as="geometry">
            <mxPoint x="-878.3283435058593" y="775.5266870117188" as="targetPoint" />
          </mxGeometry>
        </mxCell>
        <mxCell id="go0N05m5vmgyFis3Mdyq-62" value="" style="rounded=1;whiteSpace=wrap;html=1;rotation=90;labelBackgroundColor=none;fontFamily=Times New Roman;fontSize=18;fillColor=#FFD966;strokeColor=#36393d;" vertex="1" parent="1">
          <mxGeometry x="-970.4633435058594" y="767.7866870117188" width="25" height="20" as="geometry" />
        </mxCell>
        <mxCell id="go0N05m5vmgyFis3Mdyq-63" value="" style="rounded=1;whiteSpace=wrap;html=1;rotation=90;labelBackgroundColor=none;fontFamily=Times New Roman;fontSize=18;fillColor=#ffcc99;strokeColor=#36393d;" vertex="1" parent="1">
          <mxGeometry x="-990.3333435058594" y="767.6566870117188" width="25" height="20" as="geometry" />
        </mxCell>
        <mxCell id="go0N05m5vmgyFis3Mdyq-64" value="eSwitch" style="strokeWidth=2;strokeColor=#000000;dashed=0;align=center;html=1;fontSize=18;shape=mxgraph.eip.messageChannel;fontStyle=0;labelBackgroundColor=none;fontFamily=Times New Roman;fillColor=#00994D;" vertex="1" parent="1">
          <mxGeometry x="-1155.3333435058594" y="402.66668701171875" width="537" height="20" as="geometry" />
        </mxCell>
        <mxCell id="go0N05m5vmgyFis3Mdyq-65" value="&lt;b&gt;Hash Table&lt;/b&gt;" style="rounded=0;whiteSpace=wrap;html=1;fontFamily=Times New Roman;fontSize=18;" vertex="1" parent="1">
          <mxGeometry x="-868.3333435058594" y="448.66668701171875" width="90" height="40" as="geometry" />
        </mxCell>
        <mxCell id="go0N05m5vmgyFis3Mdyq-66" value="Flow 1" style="rounded=0;whiteSpace=wrap;html=1;fillColor=#FFCE9F;strokeColor=#36393d;fontFamily=Times New Roman;fontSize=18;" vertex="1" parent="1">
          <mxGeometry x="-868.3333435058594" y="488.66668701171875" width="90" height="20" as="geometry" />
        </mxCell>
        <mxCell id="go0N05m5vmgyFis3Mdyq-67" value="......" style="rounded=0;whiteSpace=wrap;html=1;fontFamily=Times New Roman;fontSize=18;" vertex="1" parent="1">
          <mxGeometry x="-868.3333435058594" y="508.66668701171875" width="90" height="20" as="geometry" />
        </mxCell>
        <mxCell id="go0N05m5vmgyFis3Mdyq-68" value="Flow N" style="rounded=0;whiteSpace=wrap;html=1;fontFamily=Times New Roman;fontSize=18;fillColor=#E1D5E7;strokeColor=#36393d;" vertex="1" parent="1">
          <mxGeometry x="-868.3333435058594" y="528.6666870117188" width="90" height="20" as="geometry" />
        </mxCell>
        <mxCell id="go0N05m5vmgyFis3Mdyq-69" style="edgeStyle=orthogonalEdgeStyle;rounded=0;orthogonalLoop=1;jettySize=auto;html=1;exitX=0.5;exitY=1;exitDx=0;exitDy=0;entryX=1;entryY=0;entryDx=0;entryDy=0;fontSize=18;fontFamily=Times New Roman;" edge="1" parent="1" source="go0N05m5vmgyFis3Mdyq-70" target="go0N05m5vmgyFis3Mdyq-15">
          <mxGeometry relative="1" as="geometry">
            <Array as="points">
              <mxPoint x="-664.3333435058594" y="712.6666870117188" />
              <mxPoint x="-1116.3333435058594" y="712.6666870117188" />
            </Array>
          </mxGeometry>
        </mxCell>
        <mxCell id="go0N05m5vmgyFis3Mdyq-70" value="" style="rounded=1;whiteSpace=wrap;html=1;fillColor=#FFD966;strokeColor=#36393d;labelBackgroundColor=none;labelPosition=center;verticalLabelPosition=bottom;align=center;verticalAlign=top;fontFamily=Times New Roman;fontSize=18;" vertex="1" parent="1">
          <mxGeometry x="-684.3333435058594" y="667.6666870117188" width="40" height="20" as="geometry" />
        </mxCell>
        <mxCell id="go0N05m5vmgyFis3Mdyq-71" value="Submit" style="shape=flexArrow;endArrow=classic;html=1;rounded=0;verticalAlign=top;labelBackgroundColor=none;fontStyle=0;fillColor=#f5f5f5;strokeColor=default;fontFamily=Times New Roman;fontSize=18;entryX=-0.032;entryY=0.589;entryDx=0;entryDy=0;entryPerimeter=0;" edge="1" parent="1" target="go0N05m5vmgyFis3Mdyq-90">
          <mxGeometry x="-0.2123" y="40" width="50" height="50" relative="1" as="geometry">
            <mxPoint x="-801.3333435058594" y="772.6666870117188" as="sourcePoint" />
            <mxPoint x="-727.3333435058594" y="771.6666870117188" as="targetPoint" />
            <mxPoint as="offset" />
          </mxGeometry>
        </mxCell>
        <mxCell id="go0N05m5vmgyFis3Mdyq-72" value="" style="endArrow=none;html=1;rounded=0;dashed=1;fontFamily=Times New Roman;fontSize=18;strokeWidth=3;" edge="1" parent="1">
          <mxGeometry width="50" height="50" relative="1" as="geometry">
            <mxPoint x="-1205.9633435058595" y="652.6666870117188" as="sourcePoint" />
            <mxPoint x="-622.3333435058594" y="653.6666870117188" as="targetPoint" />
          </mxGeometry>
        </mxCell>
        <mxCell id="go0N05m5vmgyFis3Mdyq-73" value="Match" style="edgeStyle=orthogonalEdgeStyle;rounded=0;orthogonalLoop=1;jettySize=auto;html=1;exitX=0.5;exitY=1;exitDx=0;exitDy=0;exitPerimeter=0;labelBackgroundColor=none;fontStyle=1;horizontal=0;verticalAlign=bottom;fontFamily=Times New Roman;entryX=0.5;entryY=0;entryDx=0;entryDy=0;fontSize=18;" edge="1" parent="1" source="go0N05m5vmgyFis3Mdyq-33" target="go0N05m5vmgyFis3Mdyq-70">
          <mxGeometry relative="1" as="geometry">
            <mxPoint x="-934.3333435058594" y="702.6666870117188" as="targetPoint" />
            <mxPoint x="-934.3333435058594" y="542.6666870117188" as="sourcePoint" />
          </mxGeometry>
        </mxCell>
        <mxCell id="go0N05m5vmgyFis3Mdyq-74" value="&lt;div&gt;&lt;span style=&quot;text-wrap-mode: wrap; background-color: initial;&quot;&gt;Preprocessing&lt;br&gt;&lt;br&gt;&lt;/span&gt;&lt;/div&gt;" style="shape=flexArrow;endArrow=classic;html=1;rounded=0;fillColor=#f5f5f5;strokeColor=#000000;verticalAlign=bottom;textShadow=0;labelBorderColor=none;labelBackgroundColor=none;labelPosition=center;verticalLabelPosition=top;align=center;fontSize=18;fontFamily=Times New Roman;" edge="1" parent="1">
          <mxGeometry x="0.02" y="-9" width="50" height="50" relative="1" as="geometry">
            <mxPoint x="-1099.3333435058594" y="773.6666870117188" as="sourcePoint" />
            <mxPoint x="-1007.3333435058594" y="773.6666870117188" as="targetPoint" />
            <mxPoint as="offset" />
          </mxGeometry>
        </mxCell>
        <mxCell id="go0N05m5vmgyFis3Mdyq-75" value="Packets" style="verticalLabelPosition=middle;verticalAlign=middle;html=1;shape=mxgraph.basic.layered_rect;dx=10;outlineConnect=0;whiteSpace=wrap;horizontal=1;fontStyle=0;labelPosition=center;align=center;fontFamily=Times New Roman;fontSize=18;" vertex="1" parent="1">
          <mxGeometry x="-1268.3333435058594" y="387.66668701171875" width="75.5" height="50" as="geometry" />
        </mxCell>
        <mxCell id="go0N05m5vmgyFis3Mdyq-76" value="" style="shape=flexArrow;endArrow=classic;html=1;rounded=0;entryX=0;entryY=0.5;entryDx=2.7;entryDy=0;entryPerimeter=0;fillColor=#eeeeee;strokeColor=#36393d;fontFamily=Times New Roman;fontSize=18;endWidth=11.232876712328768;endSize=5.441095890410959;" edge="1" parent="1">
          <mxGeometry width="50" height="50" relative="1" as="geometry">
            <mxPoint x="-1188.3333435058594" y="412.41668701171875" as="sourcePoint" />
            <mxPoint x="-1155.3333435058594" y="412.91668701171875" as="targetPoint" />
          </mxGeometry>
        </mxCell>
        <mxCell id="go0N05m5vmgyFis3Mdyq-77" value="" style="rounded=1;whiteSpace=wrap;html=1;rotation=90;fillColor=#ffcccc;strokeColor=#36393d;labelBackgroundColor=none;fontFamily=Times New Roman;fontSize=18;" vertex="1" parent="1">
          <mxGeometry x="-885.4533435058594" y="767.7866870117188" width="25" height="20" as="geometry" />
        </mxCell>
        <mxCell id="go0N05m5vmgyFis3Mdyq-78" value="" style="rounded=1;whiteSpace=wrap;html=1;rotation=90;fillColor=#cce5ff;strokeColor=#36393d;labelBackgroundColor=none;fontFamily=Times New Roman;fontSize=18;" vertex="1" parent="1">
          <mxGeometry x="-865.5833435058594" y="767.7866870117188" width="25" height="20" as="geometry" />
        </mxCell>
        <mxCell id="go0N05m5vmgyFis3Mdyq-79" value="" style="endArrow=none;html=1;rounded=0;exitX=1;exitY=0;exitDx=0;exitDy=0;entryX=0;entryY=1;entryDx=0;entryDy=0;labelBackgroundColor=none;strokeColor=default;fontFamily=Times New Roman;fontSize=18;" edge="1" parent="1" source="go0N05m5vmgyFis3Mdyq-15" target="go0N05m5vmgyFis3Mdyq-81">
          <mxGeometry width="50" height="50" relative="1" as="geometry">
            <mxPoint x="-1116.8333435058594" y="736.6666870117188" as="sourcePoint" />
            <mxPoint x="-1179.8333435058594" y="799.6666870117188" as="targetPoint" />
          </mxGeometry>
        </mxCell>
        <mxCell id="go0N05m5vmgyFis3Mdyq-80" value="" style="endArrow=none;html=1;rounded=0;exitX=0;exitY=0;exitDx=0;exitDy=0;entryX=1;entryY=1;entryDx=0;entryDy=0;labelBackgroundColor=none;strokeColor=default;fontFamily=Times New Roman;fontSize=18;" edge="1" parent="1" source="go0N05m5vmgyFis3Mdyq-15" target="go0N05m5vmgyFis3Mdyq-81">
          <mxGeometry width="50" height="50" relative="1" as="geometry">
            <mxPoint x="-1179.8333435058594" y="736.6666870117188" as="sourcePoint" />
            <mxPoint x="-1116.8333435058594" y="799.6666870117188" as="targetPoint" />
          </mxGeometry>
        </mxCell>
        <mxCell id="go0N05m5vmgyFis3Mdyq-81" value="Ring" style="ellipse;whiteSpace=wrap;html=1;aspect=fixed;labelBackgroundColor=none;fontStyle=0;fontFamily=Times New Roman;fontSize=18;" vertex="1" parent="1">
          <mxGeometry x="-1177.4633435058595" y="739.0366870117188" width="58.25" height="58.25" as="geometry" />
        </mxCell>
        <mxCell id="go0N05m5vmgyFis3Mdyq-82" style="rounded=0;orthogonalLoop=1;jettySize=auto;html=1;entryX=0;entryY=0;entryDx=0;entryDy=0;fontFamily=Times New Roman;fontSize=18;endSize=4;strokeWidth=2;exitX=1;exitY=0;exitDx=0;exitDy=15;exitPerimeter=0;endArrow=none;startFill=0;strokeColor=#000000;dashed=1;" edge="1" parent="1" source="go0N05m5vmgyFis3Mdyq-23" target="go0N05m5vmgyFis3Mdyq-65">
          <mxGeometry relative="1" as="geometry">
            <mxPoint x="-902.3333435058594" y="512.6666870117188" as="sourcePoint" />
            <mxPoint x="-883.3333435058594" y="512.6666870117188" as="targetPoint" />
            <Array as="points" />
          </mxGeometry>
        </mxCell>
        <mxCell id="go0N05m5vmgyFis3Mdyq-83" value="Single Submission&amp;nbsp;" style="text;html=1;align=center;verticalAlign=middle;whiteSpace=wrap;rounded=0;fontFamily=Times New Roman;fontSize=14;fontStyle=0" vertex="1" parent="1">
          <mxGeometry x="-913.3333435058594" y="727.6666870117188" width="98" height="30" as="geometry" />
        </mxCell>
        <mxCell id="go0N05m5vmgyFis3Mdyq-84" value="Directly Forwarded Packet" style="text;html=1;align=center;verticalAlign=middle;whiteSpace=wrap;rounded=0;fontFamily=Times New Roman;fontStyle=1;fontSize=15;" vertex="1" parent="1">
          <mxGeometry x="-1269.3333435058594" y="576.6666870117188" width="130" height="30" as="geometry" />
        </mxCell>
        <mxCell id="go0N05m5vmgyFis3Mdyq-85" value="Data Plane" style="text;html=1;align=center;verticalAlign=middle;whiteSpace=wrap;rounded=0;fontFamily=Times New Roman;fontSize=19;fontStyle=1" vertex="1" parent="1">
          <mxGeometry x="-1277.3333435058594" y="624.6666870117188" width="110" height="30" as="geometry" />
        </mxCell>
        <mxCell id="go0N05m5vmgyFis3Mdyq-86" value="&lt;strong style=&quot;font-family: Inter, system-ui, -apple-system, &amp;quot;system-ui&amp;quot;, &amp;quot;Segoe UI&amp;quot;, Roboto, &amp;quot;Noto Sans&amp;quot;, Ubuntu, Cantarell, &amp;quot;Helvetica Neue&amp;quot;, Oxygen, &amp;quot;Open Sans&amp;quot;, sans-serif; text-align: start;&quot;&gt;Unified Queue Processing&lt;/strong&gt;" style="text;html=1;align=center;verticalAlign=middle;whiteSpace=wrap;rounded=0;fontFamily=Times New Roman;fontSize=15;fontColor=#000000;" vertex="1" parent="1">
          <mxGeometry x="-986.3333435058594" y="437.66668701171875" width="108.07" height="30" as="geometry" />
        </mxCell>
        <mxCell id="go0N05m5vmgyFis3Mdyq-87" value="Flow 3" style="text;html=1;align=center;verticalAlign=middle;whiteSpace=wrap;rounded=0;fontFamily=Times New Roman;fontSize=18;" vertex="1" parent="1">
          <mxGeometry x="-1057.3333435058594" y="662.6666870117188" width="59" height="30" as="geometry" />
        </mxCell>
        <mxCell id="go0N05m5vmgyFis3Mdyq-88" value="Flow N" style="text;html=1;align=center;verticalAlign=middle;whiteSpace=wrap;rounded=0;fontFamily=Times New Roman;fontSize=18;" vertex="1" parent="1">
          <mxGeometry x="-913.3333435058594" y="661.6666870117188" width="57" height="34" as="geometry" />
        </mxCell>
        <mxCell id="go0N05m5vmgyFis3Mdyq-89" value="Flow 5" style="text;html=1;align=center;verticalAlign=middle;whiteSpace=wrap;rounded=0;fontFamily=Times New Roman;fontSize=18;" vertex="1" parent="1">
          <mxGeometry x="-739.3333435058594" y="662.6666870117188" width="54" height="30" as="geometry" />
        </mxCell>
        <mxCell id="go0N05m5vmgyFis3Mdyq-90" value="&lt;div&gt;Traffic Classification&lt;/div&gt;" style="rounded=1;whiteSpace=wrap;html=1;fontFamily=Times New Roman;fontSize=17;" vertex="1" parent="1">
          <mxGeometry x="-719.3333435058594" y="744.4766870117187" width="97" height="48.37" as="geometry" />
        </mxCell>
        <mxCell id="go0N05m5vmgyFis3Mdyq-91" style="rounded=0;orthogonalLoop=1;jettySize=auto;html=1;entryX=0;entryY=1;entryDx=0;entryDy=0;fontFamily=Times New Roman;fontSize=18;endSize=4;strokeWidth=2;exitX=1;exitY=1;exitDx=0;exitDy=-15;exitPerimeter=0;endArrow=none;startFill=0;strokeColor=#000000;dashed=1;" edge="1" parent="1" source="go0N05m5vmgyFis3Mdyq-23" target="go0N05m5vmgyFis3Mdyq-68">
          <mxGeometry relative="1" as="geometry">
            <mxPoint x="-906.3333435058594" y="486.66668701171875" as="sourcePoint" />
            <mxPoint x="-871.3333435058594" y="442.66668701171875" as="targetPoint" />
            <Array as="points" />
          </mxGeometry>
        </mxCell>
        <mxCell id="go0N05m5vmgyFis3Mdyq-92" style="rounded=0;orthogonalLoop=1;jettySize=auto;html=1;exitX=0;exitY=0.5;exitDx=0;exitDy=0;labelBackgroundColor=none;strokeColor=#000000;fontFamily=Times New Roman;fontSize=18;" edge="1" parent="1" source="go0N05m5vmgyFis3Mdyq-11">
          <mxGeometry relative="1" as="geometry">
            <mxPoint x="-1105.3333435058594" y="552.6666870117188" as="sourcePoint" />
            <mxPoint x="-1178.3333435058594" y="592.6666870117188" as="targetPoint" />
          </mxGeometry>
        </mxCell>
      </root>
    </mxGraphModel>
  </diagram>
  <diagram name="第 2 页" id="eVfFCQNVx1FZO8RYrFWK">
    <mxGraphModel dx="727" dy="410" grid="1" gridSize="10" guides="1" tooltips="1" connect="1" arrows="1" fold="1" page="1" pageScale="1" pageWidth="262" pageHeight="203" math="0" shadow="0">
      <root>
        <mxCell id="0" />
        <mxCell id="1" parent="0" />
        <mxCell id="PI4Ir8Enhc0RbVuxar_G-111" value="KVM" style="rounded=1;whiteSpace=wrap;html=1;fillColor=#d5e8d4;strokeColor=light-dark(#000000,#446E2C);fontFamily=Times New Roman;fontSize=14;" parent="1" vertex="1">
          <mxGeometry x="10" y="71" width="80" height="40" as="geometry" />
        </mxCell>
        <mxCell id="PI4Ir8Enhc0RbVuxar_G-118" value="APP" style="rounded=1;whiteSpace=wrap;html=1;fillColor=#d5e8d4;strokeColor=light-dark(#000000,#446E2C);fontFamily=Times New Roman;fontSize=14;" parent="1" vertex="1">
          <mxGeometry x="9" y="117" width="80" height="40" as="geometry" />
        </mxCell>
        <mxCell id="Mn9SW62wnk-o3-YoNddE-1" value="&lt;b&gt;OS&lt;/b&gt;" style="rounded=1;whiteSpace=wrap;html=1;align=right;fontFamily=Times New Roman;fontSize=14;" parent="1" vertex="1">
          <mxGeometry y="61" width="260" height="100" as="geometry" />
        </mxCell>
        <mxCell id="Mn9SW62wnk-o3-YoNddE-4" value="" style="rounded=1;whiteSpace=wrap;html=1;fillColor=#FFF4C3;strokeColor=#36393d;fontFamily=Times New Roman;fontSize=14;arcSize=11;" parent="1" vertex="1">
          <mxGeometry x="85" y="117" width="61" height="40" as="geometry" />
        </mxCell>
        <mxCell id="Mn9SW62wnk-o3-YoNddE-7" value="" style="rounded=1;whiteSpace=wrap;html=1;fillColor=#ffcc99;strokeColor=#36393d;fontFamily=Times New Roman;fontSize=14;" parent="1" vertex="1">
          <mxGeometry x="9" y="117" width="61" height="40" as="geometry" />
        </mxCell>
        <mxCell id="Mn9SW62wnk-o3-YoNddE-8" value="ML Traffic Classification" style="rounded=1;whiteSpace=wrap;html=1;fillColor=#cce5ff;strokeColor=#36393d;fontFamily=Times New Roman;fontSize=14;" parent="1" vertex="1">
          <mxGeometry x="10" y="66" width="230" height="25" as="geometry" />
        </mxCell>
        <mxCell id="Mn9SW62wnk-o3-YoNddE-9" value="" style="rounded=1;whiteSpace=wrap;html=1;align=right;fontFamily=Times New Roman;fontSize=14;" parent="1" vertex="1">
          <mxGeometry x="1" y="161" width="259" height="40" as="geometry" />
        </mxCell>
        <mxCell id="Mn9SW62wnk-o3-YoNddE-10" value="" style="rounded=0;whiteSpace=wrap;html=1;fontFamily=Times New Roman;fontSize=14;" parent="1" vertex="1">
          <mxGeometry x="100.5" y="163.5" width="79.5" height="35" as="geometry" />
        </mxCell>
        <mxCell id="Mn9SW62wnk-o3-YoNddE-11" value="" style="rounded=0;whiteSpace=wrap;html=1;fontFamily=Times New Roman;fontSize=14;" parent="1" vertex="1">
          <mxGeometry x="20" y="163.5" width="65" height="35" as="geometry" />
        </mxCell>
        <mxCell id="MtUpifhAkEaBw726BZgb-1" value="" style="verticalLabelPosition=middle;verticalAlign=middle;html=1;shape=mxgraph.basic.layered_rect;dx=10;outlineConnect=0;whiteSpace=wrap;horizontal=1;fontStyle=0;labelPosition=center;align=center;fontFamily=Times New Roman;fontSize=14;" parent="1" vertex="1">
          <mxGeometry x="90" y="1" width="70" height="40" as="geometry" />
        </mxCell>
        <mxCell id="GhteoqtnwDjk4i3ZWSK2-1" value="" style="shape=flexArrow;endArrow=classic;html=1;rounded=0;width=9;endSize=3.5761363636363632;entryX=0.5;entryY=0;entryDx=0;entryDy=0;fontFamily=Times New Roman;fontSize=14;endWidth=7.727272727272727;" parent="1" source="MtUpifhAkEaBw726BZgb-1" target="Mn9SW62wnk-o3-YoNddE-8" edge="1">
          <mxGeometry width="50" height="50" relative="1" as="geometry">
            <mxPoint x="390" y="311" as="sourcePoint" />
            <mxPoint x="440" y="261" as="targetPoint" />
          </mxGeometry>
        </mxCell>
        <mxCell id="6b0nV1XUJ8UGRvgD-KaM-1" value="" style="rounded=0;whiteSpace=wrap;html=1;fillColor=#FFF4C3;strokeColor=none;fontFamily=Times New Roman;fontSize=14;" vertex="1" parent="1">
          <mxGeometry x="21" y="164" width="29" height="17" as="geometry" />
        </mxCell>
        <mxCell id="6b0nV1XUJ8UGRvgD-KaM-3" value="" style="rounded=0;whiteSpace=wrap;html=1;fillColor=#ffcc99;strokeColor=none;fontFamily=Times New Roman;fontSize=14;" vertex="1" parent="1">
          <mxGeometry x="101" y="164" width="70" height="17" as="geometry" />
        </mxCell>
        <mxCell id="6b0nV1XUJ8UGRvgD-KaM-5" value="" style="rounded=0;whiteSpace=wrap;html=1;fillColor=#ffcc99;strokeColor=none;fontFamily=Times New Roman;fontSize=14;" vertex="1" parent="1">
          <mxGeometry x="39" y="181" width="40" height="16.5" as="geometry" />
        </mxCell>
        <mxCell id="6b0nV1XUJ8UGRvgD-KaM-6" value="" style="rounded=0;whiteSpace=wrap;html=1;fillColor=#FFF4C3;strokeColor=none;fontFamily=Times New Roman;fontSize=14;" vertex="1" parent="1">
          <mxGeometry x="101" y="176" width="78" height="12.5" as="geometry" />
        </mxCell>
        <mxCell id="Mn9SW62wnk-o3-YoNddE-6" value="VM1" style="rounded=1;whiteSpace=wrap;html=1;fontFamily=Times New Roman;fontSize=14;" parent="1" vertex="1">
          <mxGeometry x="9" y="117" width="30" height="20" as="geometry" />
        </mxCell>
        <mxCell id="6b0nV1XUJ8UGRvgD-KaM-9" value="VM2" style="rounded=1;whiteSpace=wrap;html=1;fontFamily=Times New Roman;fontSize=14;" vertex="1" parent="1">
          <mxGeometry x="85" y="117" width="30" height="20" as="geometry" />
        </mxCell>
        <mxCell id="6b0nV1XUJ8UGRvgD-KaM-10" value="HPC" style="text;html=1;align=center;verticalAlign=middle;whiteSpace=wrap;rounded=1;fontFamily=Times New Roman;fontSize=14;" vertex="1" parent="1">
          <mxGeometry x="10" y="130" width="60" height="30" as="geometry" />
        </mxCell>
        <mxCell id="6b0nV1XUJ8UGRvgD-KaM-12" value="SQL" style="text;html=1;align=center;verticalAlign=middle;whiteSpace=wrap;rounded=1;fontFamily=Times New Roman;fontSize=14;" vertex="1" parent="1">
          <mxGeometry x="89" y="131" width="60" height="30" as="geometry" />
        </mxCell>
        <mxCell id="6b0nV1XUJ8UGRvgD-KaM-13" value="" style="whiteSpace=wrap;html=1;fillColor=#cce5ff;strokeColor=none;fontFamily=Times New Roman;fontSize=14;" vertex="1" parent="1">
          <mxGeometry x="50" y="164" width="34" height="27" as="geometry" />
        </mxCell>
        <mxCell id="6b0nV1XUJ8UGRvgD-KaM-14" value="" style="rounded=0;whiteSpace=wrap;html=1;fillColor=#cce5ff;strokeColor=none;fontFamily=Times New Roman;fontSize=14;" vertex="1" parent="1">
          <mxGeometry x="128" y="188" width="51" height="7" as="geometry" />
        </mxCell>
        <mxCell id="6b0nV1XUJ8UGRvgD-KaM-16" value="" style="shape=flexArrow;endArrow=classic;html=1;rounded=0;width=9;endSize=2.945161290322581;entryX=0.5;entryY=0;entryDx=0;entryDy=0;fontFamily=Times New Roman;fontSize=14;endWidth=5.483870967741935;fillColor=#ffcc99;strokeColor=#36393d;" edge="1" parent="1">
          <mxGeometry width="50" height="50" relative="1" as="geometry">
            <mxPoint x="38.76" y="91" as="sourcePoint" />
            <mxPoint x="38.76" y="117" as="targetPoint" />
          </mxGeometry>
        </mxCell>
        <mxCell id="6b0nV1XUJ8UGRvgD-KaM-17" value="" style="shape=flexArrow;endArrow=classic;html=1;rounded=0;width=9;endSize=2.945161290322581;entryX=0.5;entryY=0;entryDx=0;entryDy=0;fontFamily=Times New Roman;fontSize=14;endWidth=5.483870967741935;fillColor=#FFF4C3;strokeColor=#36393d;" edge="1" parent="1">
          <mxGeometry width="50" height="50" relative="1" as="geometry">
            <mxPoint x="116.04999999999998" y="91" as="sourcePoint" />
            <mxPoint x="116.04999999999998" y="117" as="targetPoint" />
          </mxGeometry>
        </mxCell>
        <mxCell id="6b0nV1XUJ8UGRvgD-KaM-18" value="&lt;b style=&quot;forced-color-adjust: none; color: rgb(0, 0, 0); font-family: &amp;quot;Times New Roman&amp;quot;; font-size: 14px; font-style: normal; font-variant-ligatures: normal; font-variant-caps: normal; letter-spacing: normal; orphans: 2; text-indent: 0px; text-transform: none; widows: 2; word-spacing: 0px; -webkit-text-stroke-width: 0px; white-space: normal; text-decoration-thickness: initial; text-decoration-style: initial; text-decoration-color: initial; background-color: light-dark(#ffffff, var(--ge-dark-color, #121212));&quot;&gt;Hardware&lt;/b&gt;&lt;div style=&quot;forced-color-adjust: none; color: rgb(0, 0, 0); font-family: &amp;quot;Times New Roman&amp;quot;; font-size: 14px; font-style: normal; font-variant-ligatures: normal; font-variant-caps: normal; font-weight: 400; letter-spacing: normal; orphans: 2; text-indent: 0px; text-transform: none; widows: 2; word-spacing: 0px; -webkit-text-stroke-width: 0px; white-space: normal; text-decoration-thickness: initial; text-decoration-style: initial; text-decoration-color: initial;&quot;&gt;&lt;b style=&quot;forced-color-adjust: none; background-color: light-dark(#ffffff, var(--ge-dark-color, #121212));&quot;&gt;Resources&lt;/b&gt;&lt;/div&gt;" style="text;whiteSpace=wrap;html=1;align=center;" vertex="1" parent="1">
          <mxGeometry x="191" y="160" width="66" height="41" as="geometry" />
        </mxCell>
        <mxCell id="6b0nV1XUJ8UGRvgD-KaM-20" value="&lt;span style=&quot;color: rgb(0, 0, 0); font-family: &amp;quot;Times New Roman&amp;quot;; font-size: 14px; font-style: normal; font-variant-ligatures: normal; font-variant-caps: normal; font-weight: 400; letter-spacing: normal; orphans: 2; text-align: center; text-indent: 0px; text-transform: none; widows: 2; word-spacing: 0px; -webkit-text-stroke-width: 0px; white-space: normal; text-decoration-thickness: initial; text-decoration-style: initial; text-decoration-color: initial; float: none; display: inline !important;&quot;&gt;Flow 1&lt;/span&gt;" style="text;whiteSpace=wrap;html=1;" vertex="1" parent="1">
          <mxGeometry x="44" y="87" width="46" height="20" as="geometry" />
        </mxCell>
        <mxCell id="6b0nV1XUJ8UGRvgD-KaM-21" value="&lt;span style=&quot;color: rgb(0, 0, 0); font-family: &amp;quot;Times New Roman&amp;quot;; font-size: 14px; font-style: normal; font-variant-ligatures: normal; font-variant-caps: normal; font-weight: 400; letter-spacing: normal; orphans: 2; text-align: center; text-indent: 0px; text-transform: none; widows: 2; word-spacing: 0px; -webkit-text-stroke-width: 0px; white-space: normal; text-decoration-thickness: initial; text-decoration-style: initial; text-decoration-color: initial; float: none; display: inline !important;&quot;&gt;Flow 2&lt;/span&gt;" style="text;whiteSpace=wrap;html=1;" vertex="1" parent="1">
          <mxGeometry x="122" y="87" width="44" height="20" as="geometry" />
        </mxCell>
        <mxCell id="6b0nV1XUJ8UGRvgD-KaM-22" value="" style="rounded=1;whiteSpace=wrap;html=1;fillColor=#B9E0A5;strokeColor=#36393d;fontFamily=Times New Roman;fontSize=14;arcSize=11;" vertex="1" parent="1">
          <mxGeometry x="156" y="117" width="88" height="40" as="geometry" />
        </mxCell>
        <mxCell id="6b0nV1XUJ8UGRvgD-KaM-23" value="VM3" style="rounded=1;whiteSpace=wrap;html=1;fontFamily=Times New Roman;fontSize=14;" vertex="1" parent="1">
          <mxGeometry x="156" y="117" width="30" height="20" as="geometry" />
        </mxCell>
        <mxCell id="6b0nV1XUJ8UGRvgD-KaM-24" value="" style="shape=flexArrow;endArrow=classic;html=1;rounded=0;width=9;endSize=2.945161290322581;entryX=0.5;entryY=0;entryDx=0;entryDy=0;fontFamily=Times New Roman;fontSize=14;endWidth=5.483870967741935;fillColor=#B9E0A5;strokeColor=#36393d;" edge="1" parent="1">
          <mxGeometry width="50" height="50" relative="1" as="geometry">
            <mxPoint x="192.04999999999998" y="91" as="sourcePoint" />
            <mxPoint x="192.04999999999998" y="117" as="targetPoint" />
          </mxGeometry>
        </mxCell>
        <mxCell id="6b0nV1XUJ8UGRvgD-KaM-25" value="&lt;span style=&quot;color: rgb(0, 0, 0); font-family: &amp;quot;Times New Roman&amp;quot;; font-size: 14px; font-style: normal; font-variant-ligatures: normal; font-variant-caps: normal; font-weight: 400; letter-spacing: normal; orphans: 2; text-align: center; text-indent: 0px; text-transform: none; widows: 2; word-spacing: 0px; -webkit-text-stroke-width: 0px; white-space: normal; text-decoration-thickness: initial; text-decoration-style: initial; text-decoration-color: initial; float: none; display: inline !important;&quot;&gt;Flow 3&lt;/span&gt;" style="text;whiteSpace=wrap;html=1;" vertex="1" parent="1">
          <mxGeometry x="198" y="87" width="44" height="20" as="geometry" />
        </mxCell>
        <mxCell id="6b0nV1XUJ8UGRvgD-KaM-26" value="" style="rounded=0;whiteSpace=wrap;html=1;fillColor=#B9E0A5;strokeColor=none;fontFamily=Times New Roman;fontSize=14;shadow=0;" vertex="1" parent="1">
          <mxGeometry x="101" y="171" width="39" height="27" as="geometry" />
        </mxCell>
        <mxCell id="6b0nV1XUJ8UGRvgD-KaM-27" value="" style="rounded=0;whiteSpace=wrap;html=1;fillColor=#B9E0A5;strokeColor=none;fontFamily=Times New Roman;fontSize=14;shadow=0;" vertex="1" parent="1">
          <mxGeometry x="21" y="171" width="39" height="26.5" as="geometry" />
        </mxCell>
        <mxCell id="6b0nV1XUJ8UGRvgD-KaM-2" value="CPU" style="text;html=1;align=center;verticalAlign=middle;whiteSpace=wrap;rounded=1;fontFamily=Times New Roman;fontSize=14;" vertex="1" parent="1">
          <mxGeometry x="22.5" y="170.5" width="60" height="20" as="geometry" />
        </mxCell>
        <mxCell id="6b0nV1XUJ8UGRvgD-KaM-15" value="Memory" style="text;html=1;align=center;verticalAlign=middle;whiteSpace=wrap;rounded=1;fontFamily=Times New Roman;fontSize=14;" vertex="1" parent="1">
          <mxGeometry x="110.25" y="175.5" width="60" height="10" as="geometry" />
        </mxCell>
        <mxCell id="6b0nV1XUJ8UGRvgD-KaM-28" value="Megatron-LM" style="text;html=1;align=center;verticalAlign=middle;whiteSpace=wrap;rounded=1;fontFamily=Times New Roman;fontSize=14;" vertex="1" parent="1">
          <mxGeometry x="156" y="131" width="91" height="30" as="geometry" />
        </mxCell>
        <mxCell id="GTDnxhJJ0vYLUdqfxtkD-1" value="&lt;font style=&quot;font-size: 15px;&quot;&gt;Packets&lt;/font&gt;" style="text;html=1;align=center;verticalAlign=middle;whiteSpace=wrap;rounded=0;fontFamily=Times New Roman;" vertex="1" parent="1">
          <mxGeometry x="91" y="1" width="60" height="30" as="geometry" />
        </mxCell>
      </root>
    </mxGraphModel>
  </diagram>
  <diagram name="第 3 页" id="5JLGtT-AVbapWJeueRVR">
    <mxGraphModel dx="1213" dy="776" grid="1" gridSize="10" guides="1" tooltips="1" connect="1" arrows="1" fold="1" page="1" pageScale="1" pageWidth="298" pageHeight="298" math="0" shadow="0">
      <root>
        <mxCell id="0" />
        <mxCell id="1" parent="0" />
        <mxCell id="14ieLgRQUngQ6r4_s1jU-2" value="" style="endArrow=none;dashed=1;html=1;strokeWidth=2;rounded=0;align=left;fontSize=12;labelPosition=left;verticalLabelPosition=top;verticalAlign=bottom;horizontal=1;fontFamily=Times New Roman;" edge="1" parent="1">
          <mxGeometry width="50" height="50" relative="1" as="geometry">
            <mxPoint x="10" y="126" as="sourcePoint" />
            <mxPoint x="280" y="126" as="targetPoint" />
          </mxGeometry>
        </mxCell>
        <mxCell id="14ieLgRQUngQ6r4_s1jU-3" value="KVM" style="rounded=1;whiteSpace=wrap;html=1;fillColor=#d5e8d4;strokeColor=light-dark(#000000,#446E2C);fontFamily=Times New Roman;container=0;" vertex="1" parent="1">
          <mxGeometry x="20" y="7" width="80" height="40" as="geometry" />
        </mxCell>
        <mxCell id="14ieLgRQUngQ6r4_s1jU-4" value="&lt;b&gt;&lt;font style=&quot;font-size: 15px;&quot;&gt;Host&lt;/font&gt;&lt;/b&gt;" style="rounded=1;whiteSpace=wrap;html=1;align=right;fontFamily=Times New Roman;container=0;" vertex="1" parent="1">
          <mxGeometry y="2" width="298" height="101" as="geometry" />
        </mxCell>
        <mxCell id="14ieLgRQUngQ6r4_s1jU-5" value="HPC" style="rounded=1;whiteSpace=wrap;html=1;fillColor=#ffcc99;strokeColor=#36393d;fontFamily=Times New Roman;fontSize=14;container=0;" vertex="1" parent="1">
          <mxGeometry x="29.560000000000002" y="7" width="90" height="25" as="geometry" />
        </mxCell>
        <mxCell id="14ieLgRQUngQ6r4_s1jU-6" value="SQL" style="rounded=1;whiteSpace=wrap;html=1;fillColor=#FFF4C3;strokeColor=light-dark(#000000,#446E2C);fontFamily=Times New Roman;fontSize=14;container=0;" vertex="1" parent="1">
          <mxGeometry x="29.560000000000002" y="40" width="90" height="25" as="geometry" />
        </mxCell>
        <mxCell id="14ieLgRQUngQ6r4_s1jU-7" value="&lt;font style=&quot;font-size: 15px;&quot;&gt;Traffic Classification&lt;/font&gt;" style="rounded=1;whiteSpace=wrap;html=1;fillColor=#cce5ff;strokeColor=#36393d;fontFamily=Times New Roman;container=0;" vertex="1" parent="1">
          <mxGeometry x="130" y="6" width="110" height="81" as="geometry" />
        </mxCell>
        <mxCell id="14ieLgRQUngQ6r4_s1jU-8" value="&lt;b style=&quot;&quot;&gt;&lt;font style=&quot;font-size: 15px;&quot;&gt;SmartNIC&lt;/font&gt;&lt;/b&gt;" style="rounded=1;whiteSpace=wrap;html=1;align=right;fontFamily=Times New Roman;container=0;" vertex="1" parent="1">
          <mxGeometry y="136" width="298" height="100" as="geometry" />
        </mxCell>
        <mxCell id="14ieLgRQUngQ6r4_s1jU-9" style="rounded=0;orthogonalLoop=1;jettySize=auto;html=1;entryX=0.5;entryY=1;entryDx=0;entryDy=0;fontFamily=Times New Roman;strokeWidth=2;" edge="1" parent="1" source="14ieLgRQUngQ6r4_s1jU-10" target="14ieLgRQUngQ6r4_s1jU-16">
          <mxGeometry relative="1" as="geometry" />
        </mxCell>
        <mxCell id="14ieLgRQUngQ6r4_s1jU-10" value="" style="verticalLabelPosition=middle;verticalAlign=middle;html=1;shape=mxgraph.basic.layered_rect;dx=10;outlineConnect=0;whiteSpace=wrap;horizontal=1;fontStyle=0;labelPosition=center;align=center;fontFamily=Times New Roman;fontSize=12;container=0;" vertex="1" parent="1">
          <mxGeometry x="23.359999999999985" y="253" width="73.28" height="41" as="geometry" />
        </mxCell>
        <mxCell id="14ieLgRQUngQ6r4_s1jU-11" style="edgeStyle=orthogonalEdgeStyle;rounded=0;orthogonalLoop=1;jettySize=auto;html=1;exitX=1;exitY=0.5;exitDx=0;exitDy=0;entryX=0;entryY=0.5;entryDx=0;entryDy=0;strokeWidth=2;" edge="1" parent="1" source="14ieLgRQUngQ6r4_s1jU-12" target="14ieLgRQUngQ6r4_s1jU-13">
          <mxGeometry relative="1" as="geometry" />
        </mxCell>
        <mxCell id="14ieLgRQUngQ6r4_s1jU-12" value="&lt;div style=&quot;text-align: left;&quot;&gt;Analysis&lt;/div&gt;" style="rounded=1;whiteSpace=wrap;html=1;fillColor=#f9f7ed;strokeColor=#36393d;fontFamily=Times New Roman;fontSize=14;container=0;" vertex="1" parent="1">
          <mxGeometry x="20" y="146" width="80" height="32.5" as="geometry" />
        </mxCell>
        <mxCell id="14ieLgRQUngQ6r4_s1jU-13" value="&lt;div style=&quot;text-align: left;&quot;&gt;Preprocessing&lt;/div&gt;" style="rounded=1;whiteSpace=wrap;html=1;fillColor=#f9f7ed;strokeColor=#36393d;fontFamily=Times New Roman;fontSize=14;container=0;" vertex="1" parent="1">
          <mxGeometry x="145" y="149" width="80" height="80" as="geometry" />
        </mxCell>
        <mxCell id="14ieLgRQUngQ6r4_s1jU-14" value="&lt;div style=&quot;text-align: left;&quot;&gt;Scheduler&lt;/div&gt;" style="rounded=1;whiteSpace=wrap;html=1;fillColor=#ffff88;strokeColor=#36393d;fontFamily=Times New Roman;fontSize=14;container=0;" vertex="1" parent="1">
          <mxGeometry x="155" y="149" width="60" height="29.5" as="geometry" />
        </mxCell>
        <mxCell id="14ieLgRQUngQ6r4_s1jU-15" style="edgeStyle=orthogonalEdgeStyle;rounded=0;orthogonalLoop=1;jettySize=auto;html=1;exitX=0.5;exitY=0;exitDx=0;exitDy=0;entryX=0.5;entryY=1;entryDx=0;entryDy=0;fontFamily=Times New Roman;strokeWidth=2;" edge="1" parent="1" source="14ieLgRQUngQ6r4_s1jU-16" target="14ieLgRQUngQ6r4_s1jU-12">
          <mxGeometry relative="1" as="geometry" />
        </mxCell>
        <mxCell id="14ieLgRQUngQ6r4_s1jU-16" value="&lt;div&gt;Packet Capturing&lt;/div&gt;" style="rounded=1;whiteSpace=wrap;html=1;fillColor=#f9f7ed;strokeColor=#36393d;align=center;fontFamily=Times New Roman;fontSize=14;container=0;" vertex="1" parent="1">
          <mxGeometry x="20" y="196" width="80" height="32.5" as="geometry" />
        </mxCell>
        <mxCell id="14ieLgRQUngQ6r4_s1jU-17" style="rounded=0;orthogonalLoop=1;jettySize=auto;html=1;fontFamily=Times New Roman;strokeWidth=2;" edge="1" parent="1">
          <mxGeometry relative="1" as="geometry">
            <mxPoint x="160" y="256" as="sourcePoint" />
            <mxPoint x="120" y="256" as="targetPoint" />
          </mxGeometry>
        </mxCell>
        <mxCell id="14ieLgRQUngQ6r4_s1jU-18" style="rounded=0;orthogonalLoop=1;jettySize=auto;html=1;fontFamily=Times New Roman;fillColor=#ffcc99;strokeColor=#36393d;shape=flexArrow;endWidth=9.382716049382717;endSize=4.037037037037037;width=6.666666666666666;" edge="1" parent="1">
          <mxGeometry relative="1" as="geometry">
            <mxPoint x="159.56" y="286" as="sourcePoint" />
            <mxPoint x="119.56" y="286" as="targetPoint" />
          </mxGeometry>
        </mxCell>
        <mxCell id="14ieLgRQUngQ6r4_s1jU-19" value="Packet Forwarding" style="text;whiteSpace=wrap;verticalAlign=middle;fontSize=14;fontStyle=0;fontFamily=Times New Roman;container=0;" vertex="1" parent="1">
          <mxGeometry x="168" y="246" width="112" height="20" as="geometry" />
        </mxCell>
        <mxCell id="14ieLgRQUngQ6r4_s1jU-20" value="Traffic Steering" style="text;whiteSpace=wrap;verticalAlign=middle;fontSize=14;fontStyle=0;fontFamily=Times New Roman;container=0;" vertex="1" parent="1">
          <mxGeometry x="167.56" y="276" width="112" height="20" as="geometry" />
        </mxCell>
        <mxCell id="14ieLgRQUngQ6r4_s1jU-21" value="&lt;font style=&quot;font-size: 15px;&quot;&gt;Packets&lt;/font&gt;" style="text;html=1;align=center;verticalAlign=middle;whiteSpace=wrap;rounded=0;fontFamily=Times New Roman;container=0;" vertex="1" parent="1">
          <mxGeometry x="26.560000000000002" y="253" width="60" height="30" as="geometry" />
        </mxCell>
        <mxCell id="14ieLgRQUngQ6r4_s1jU-22" value="&amp;nbsp;Megatron-LM" style="rounded=1;whiteSpace=wrap;html=1;fillColor=#B9E0A5;strokeColor=#36393d;fontFamily=Times New Roman;fontSize=14;arcSize=11;container=0;" vertex="1" parent="1">
          <mxGeometry x="29.560000000000002" y="74.5" width="90" height="25" as="geometry" />
        </mxCell>
        <mxCell id="14ieLgRQUngQ6r4_s1jU-23" style="edgeStyle=orthogonalEdgeStyle;rounded=0;orthogonalLoop=1;jettySize=auto;html=1;exitX=0;exitY=0.5;exitDx=0;exitDy=0;entryX=0;entryY=0.5;entryDx=0;entryDy=0;fontFamily=Times New Roman;strokeWidth=1;shape=flexArrow;endSize=2.170418006430868;width=3.6012861736334405;startSize=1;endWidth=6.1542581238820935;fillColor=#B9E0A5;" edge="1" parent="1" source="14ieLgRQUngQ6r4_s1jU-12" target="14ieLgRQUngQ6r4_s1jU-22">
          <mxGeometry relative="1" as="geometry">
            <mxPoint x="30" y="172" as="sourcePoint" />
            <mxPoint x="40" y="52" as="targetPoint" />
            <Array as="points">
              <mxPoint x="10" y="162" />
              <mxPoint x="10" y="87" />
            </Array>
          </mxGeometry>
        </mxCell>
        <mxCell id="14ieLgRQUngQ6r4_s1jU-24" style="edgeStyle=orthogonalEdgeStyle;rounded=0;orthogonalLoop=1;jettySize=auto;html=1;exitX=0;exitY=0.5;exitDx=0;exitDy=0;entryX=0;entryY=0.5;entryDx=0;entryDy=0;fontFamily=Times New Roman;strokeWidth=1;shape=flexArrow;endSize=2.170418006430868;width=3.6012861736334405;startSize=1;endWidth=6.1542581238820935;fillColor=#FFF2CC;" edge="1" parent="1" source="14ieLgRQUngQ6r4_s1jU-12" target="14ieLgRQUngQ6r4_s1jU-6">
          <mxGeometry relative="1" as="geometry">
            <Array as="points">
              <mxPoint x="10" y="162" />
              <mxPoint x="10" y="53" />
            </Array>
          </mxGeometry>
        </mxCell>
        <mxCell id="14ieLgRQUngQ6r4_s1jU-25" style="edgeStyle=orthogonalEdgeStyle;rounded=0;orthogonalLoop=1;jettySize=auto;html=1;exitX=0;exitY=0.5;exitDx=0;exitDy=0;entryX=0;entryY=0.5;entryDx=0;entryDy=0;fontFamily=Times New Roman;strokeWidth=1;shape=flexArrow;endSize=2.170418006430868;width=3.6012861736334405;startSize=1;endWidth=6.1542581238820935;fillColor=#ffcc99;strokeColor=#36393d;" edge="1" parent="1" source="14ieLgRQUngQ6r4_s1jU-12" target="14ieLgRQUngQ6r4_s1jU-5">
          <mxGeometry relative="1" as="geometry">
            <mxPoint x="40" y="182" as="sourcePoint" />
            <mxPoint x="50" y="62" as="targetPoint" />
            <Array as="points">
              <mxPoint x="10" y="162" />
              <mxPoint x="10" y="20" />
            </Array>
          </mxGeometry>
        </mxCell>
        <mxCell id="14ieLgRQUngQ6r4_s1jU-26" value="" style="shape=partialRectangle;whiteSpace=wrap;html=1;top=0;bottom=0;fontFamily=Times New Roman;container=0;" vertex="1" parent="1">
          <mxGeometry x="175" y="78" width="10" height="75" as="geometry" />
        </mxCell>
        <mxCell id="14ieLgRQUngQ6r4_s1jU-27" value="" style="rounded=1;whiteSpace=wrap;html=1;arcSize=23;fillColor=#ffcc99;strokeColor=#36393d;fontFamily=Times New Roman;container=0;" vertex="1" parent="1">
          <mxGeometry x="175" y="98" width="10" height="15" as="geometry" />
        </mxCell>
        <mxCell id="14ieLgRQUngQ6r4_s1jU-28" value="" style="rounded=1;whiteSpace=wrap;html=1;arcSize=23;fillColor=#FFF4C3;strokeColor=#000000;fontFamily=Times New Roman;container=0;" vertex="1" parent="1">
          <mxGeometry x="175" y="113" width="10" height="15" as="geometry" />
        </mxCell>
        <mxCell id="14ieLgRQUngQ6r4_s1jU-29" value="" style="shape=partialRectangle;whiteSpace=wrap;html=1;top=0;bottom=0;fontFamily=Times New Roman;container=0;" vertex="1" parent="1">
          <mxGeometry x="185" y="78" width="10" height="75" as="geometry" />
        </mxCell>
        <mxCell id="14ieLgRQUngQ6r4_s1jU-30" value="" style="rounded=1;whiteSpace=wrap;html=1;arcSize=23;fillColor=#B9E0A5;strokeColor=#000000;fontFamily=Times New Roman;container=0;" vertex="1" parent="1">
          <mxGeometry x="185" y="123" width="10" height="15" as="geometry" />
        </mxCell>
        <mxCell id="14ieLgRQUngQ6r4_s1jU-31" value="&lt;font&gt;batch&lt;/font&gt;" style="text;html=1;align=center;verticalAlign=middle;whiteSpace=wrap;rounded=0;fontFamily=Times New Roman;fontSize=16;fontStyle=1;container=0;" vertex="1" parent="1">
          <mxGeometry x="107" y="99.75" width="30" height="27.5" as="geometry" />
        </mxCell>
        <mxCell id="14ieLgRQUngQ6r4_s1jU-32" value="" style="shape=partialRectangle;whiteSpace=wrap;html=1;top=0;bottom=0;fontFamily=Times New Roman;container=0;" vertex="1" parent="1">
          <mxGeometry x="195" y="78" width="10" height="75" as="geometry" />
        </mxCell>
        <mxCell id="14ieLgRQUngQ6r4_s1jU-33" value="" style="rounded=1;whiteSpace=wrap;html=1;arcSize=23;fillColor=#ffcc99;strokeColor=#36393d;fontFamily=Times New Roman;container=0;" vertex="1" parent="1">
          <mxGeometry x="175" y="83" width="10" height="15" as="geometry" />
        </mxCell>
        <mxCell id="14ieLgRQUngQ6r4_s1jU-34" value="" style="rounded=1;whiteSpace=wrap;html=1;arcSize=23;fillColor=#FFF4C3;strokeColor=#000000;fontFamily=Times New Roman;container=0;" vertex="1" parent="1">
          <mxGeometry x="195" y="78" width="10" height="15" as="geometry" />
        </mxCell>
        <mxCell id="14ieLgRQUngQ6r4_s1jU-35" value="" style="shape=partialRectangle;whiteSpace=wrap;html=1;top=0;bottom=0;fontFamily=Times New Roman;container=0;" vertex="1" parent="1">
          <mxGeometry x="165" y="78" width="10" height="75" as="geometry" />
        </mxCell>
        <mxCell id="14ieLgRQUngQ6r4_s1jU-36" value="" style="rounded=1;whiteSpace=wrap;html=1;arcSize=23;fillColor=#B9E0A5;strokeColor=#000000;fontFamily=Times New Roman;container=0;" vertex="1" parent="1">
          <mxGeometry x="165" y="106" width="10" height="15" as="geometry" />
        </mxCell>
        <mxCell id="14ieLgRQUngQ6r4_s1jU-37" value="" style="rounded=1;whiteSpace=wrap;html=1;arcSize=23;fillColor=#ffcc99;strokeColor=#36393d;fontFamily=Times New Roman;container=0;" vertex="1" parent="1">
          <mxGeometry x="165" y="121" width="10" height="15" as="geometry" />
        </mxCell>
        <mxCell id="14ieLgRQUngQ6r4_s1jU-38" value="" style="rounded=1;whiteSpace=wrap;html=1;arcSize=23;fillColor=#B9E0A5;strokeColor=#000000;fontFamily=Times New Roman;container=0;" vertex="1" parent="1">
          <mxGeometry x="165" y="91" width="10" height="15" as="geometry" />
        </mxCell>
        <mxCell id="14ieLgRQUngQ6r4_s1jU-39" style="rounded=0;orthogonalLoop=1;jettySize=auto;html=1;exitX=0;exitY=0.5;exitDx=0;exitDy=0;entryX=1;entryY=0.5;entryDx=0;entryDy=0;endSize=3;strokeWidth=2;" edge="1" parent="1" source="14ieLgRQUngQ6r4_s1jU-40" target="14ieLgRQUngQ6r4_s1jU-31">
          <mxGeometry relative="1" as="geometry" />
        </mxCell>
        <mxCell id="14ieLgRQUngQ6r4_s1jU-40" value="" style="rounded=0;whiteSpace=wrap;html=1;fillColor=none;horizontal=0;verticalAlign=middle;labelPosition=center;verticalLabelPosition=middle;align=center;strokeWidth=2;dashed=1;container=0;" vertex="1" parent="1">
          <mxGeometry x="160" y="87" width="20" height="52" as="geometry" />
        </mxCell>
        <mxCell id="14ieLgRQUngQ6r4_s1jU-41" value="PCIe" style="text;html=1;align=center;verticalAlign=middle;whiteSpace=wrap;rounded=0;fontFamily=Times New Roman;fontSize=16;fontStyle=1;container=0;" vertex="1" parent="1">
          <mxGeometry x="250" y="101.75" width="30" height="27.5" as="geometry" />
        </mxCell>
      </root>
    </mxGraphModel>
  </diagram>
  <diagram name="第 4 页" id="NvxdMcSdBpMGRZ8-ehmX">
    <mxGraphModel dx="1116" dy="629" grid="1" gridSize="10" guides="1" tooltips="1" connect="1" arrows="1" fold="1" page="1" pageScale="1" pageWidth="512" pageHeight="210" math="0" shadow="0">
      <root>
        <mxCell id="0" />
        <mxCell id="1" parent="0" />
        <mxCell id="9NsF8_A0v04jYic0vNLm-7" value="" style="rounded=1;whiteSpace=wrap;html=1;fontFamily=Times New Roman;fontSize=14;verticalAlign=top;labelPosition=center;verticalLabelPosition=bottom;align=center;" parent="1" vertex="1">
          <mxGeometry x="42" y="7.090000000000032" width="120" height="90" as="geometry" />
        </mxCell>
        <mxCell id="9NsF8_A0v04jYic0vNLm-6" value="" style="rounded=1;whiteSpace=wrap;html=1;fontFamily=Times New Roman;fontSize=14;labelPosition=center;verticalLabelPosition=bottom;align=center;verticalAlign=top;" parent="1" vertex="1">
          <mxGeometry x="362" y="8.090000000000032" width="120" height="90" as="geometry" />
        </mxCell>
        <mxCell id="9NsF8_A0v04jYic0vNLm-1" value="" style="shape=partialRectangle;whiteSpace=wrap;html=1;left=0;right=0;verticalAlign=top;labelPosition=center;verticalLabelPosition=bottom;align=center;fontFamily=Times New Roman;fontSize=14;fillColor=#eeeeee;strokeColor=#36393d;" parent="1" vertex="1">
          <mxGeometry x="142" y="31.090000000000032" width="240" height="60" as="geometry" />
        </mxCell>
        <mxCell id="9NsF8_A0v04jYic0vNLm-4" value="batch" style="rounded=0;whiteSpace=wrap;html=1;fontFamily=Times New Roman;fontSize=14;fillColor=#B9E0A5;strokeColor=light-dark(#000000,#5C79A3);" parent="1" vertex="1">
          <mxGeometry x="292" y="43.90999999999997" width="39.82" height="35.18" as="geometry" />
        </mxCell>
        <mxCell id="9NsF8_A0v04jYic0vNLm-5" value="Metadata" style="rounded=0;whiteSpace=wrap;html=1;horizontal=0;rotation=-180;fontSize=14;fontFamily=Times New Roman;fillColor=#FFF4C3;strokeColor=#36393d;" parent="1" vertex="1">
          <mxGeometry x="331.91" y="33.09000000000003" width="20" height="55.09" as="geometry" />
        </mxCell>
        <mxCell id="9NsF8_A0v04jYic0vNLm-8" value="batch" style="rounded=0;whiteSpace=wrap;html=1;fontFamily=Times New Roman;fontSize=14;fillColor=#B9E0A5;strokeColor=light-dark(#000000,#5C79A3);" parent="1" vertex="1">
          <mxGeometry x="162" y="43.549999999999955" width="66" height="35.09" as="geometry" />
        </mxCell>
        <mxCell id="9NsF8_A0v04jYic0vNLm-10" style="edgeStyle=orthogonalEdgeStyle;rounded=0;orthogonalLoop=1;jettySize=auto;html=1;exitX=0;exitY=0.5;exitDx=0;exitDy=0;entryX=0;entryY=0.5;entryDx=0;entryDy=0;fontFamily=Times New Roman;fontSize=14;strokeColor=light-dark(#000000,#5C79A3);" parent="1" source="9NsF8_A0v04jYic0vNLm-9" target="9NsF8_A0v04jYic0vNLm-4" edge="1">
          <mxGeometry relative="1" as="geometry" />
        </mxCell>
        <mxCell id="9NsF8_A0v04jYic0vNLm-9" value="Metadata" style="rounded=0;whiteSpace=wrap;html=1;horizontal=0;rotation=-180;fontSize=14;fontFamily=Times New Roman;fillColor=#FFF4C3;strokeColor=#36393d;" parent="1" vertex="1">
          <mxGeometry x="228" y="34" width="20.09" height="55" as="geometry" />
        </mxCell>
        <mxCell id="9NsF8_A0v04jYic0vNLm-15" style="rounded=0;orthogonalLoop=1;jettySize=auto;html=1;exitX=1;exitY=0.497;exitDx=0;exitDy=0;fontFamily=Times New Roman;fontSize=14;strokeColor=light-dark(#000000,#5C79A3);exitPerimeter=0;entryX=0;entryY=0.5;entryDx=0;entryDy=0;" parent="1" source="9NsF8_A0v04jYic0vNLm-13" target="9NsF8_A0v04jYic0vNLm-8" edge="1">
          <mxGeometry relative="1" as="geometry">
            <mxPoint x="172" y="62" as="targetPoint" />
          </mxGeometry>
        </mxCell>
        <mxCell id="9NsF8_A0v04jYic0vNLm-13" value="Preprocessing" style="rounded=1;whiteSpace=wrap;html=1;fillColor=#cce5ff;strokeColor=#36393d;fontFamily=Times New Roman;fontSize=14;" parent="1" vertex="1">
          <mxGeometry x="52" y="31.180000000000064" width="80" height="60" as="geometry" />
        </mxCell>
        <mxCell id="9NsF8_A0v04jYic0vNLm-16" value="Classification" style="rounded=1;whiteSpace=wrap;html=1;fillColor=#cce5ff;strokeColor=#36393d;fontFamily=Times New Roman;fontSize=14;" parent="1" vertex="1">
          <mxGeometry x="392" y="31.000000000000114" width="80" height="60" as="geometry" />
        </mxCell>
        <mxCell id="9NsF8_A0v04jYic0vNLm-19" style="edgeStyle=orthogonalEdgeStyle;rounded=0;orthogonalLoop=1;jettySize=auto;html=1;exitX=0;exitY=0.5;exitDx=0;exitDy=0;entryX=0;entryY=0.5;entryDx=0;entryDy=0;fontFamily=Times New Roman;fontSize=14;" parent="1" source="9NsF8_A0v04jYic0vNLm-5" target="9NsF8_A0v04jYic0vNLm-16" edge="1">
          <mxGeometry relative="1" as="geometry" />
        </mxCell>
        <mxCell id="yzN7syaL2NpGn7USwOIf-7" value="Preprocessing" style="rounded=0;whiteSpace=wrap;html=1;fillColor=#cce5ff;strokeColor=#36393d;fontFamily=Times New Roman;fontSize=14;" parent="1" vertex="1">
          <mxGeometry x="2" y="106" width="80" height="50" as="geometry" />
        </mxCell>
        <mxCell id="yzN7syaL2NpGn7USwOIf-10" value="Classification" style="rounded=0;whiteSpace=wrap;html=1;fillColor=#cce5ff;strokeColor=#36393d;fontFamily=Times New Roman;fontSize=14;" parent="1" vertex="1">
          <mxGeometry x="2" y="156" width="80" height="50" as="geometry" />
        </mxCell>
        <mxCell id="yzN7syaL2NpGn7USwOIf-11" value="batch 0" style="rounded=0;whiteSpace=wrap;html=1;fontFamily=Times New Roman;fontSize=14;fillColor=#B9E0A5;strokeColor=light-dark(#000000,#5C79A3);" parent="1" vertex="1">
          <mxGeometry x="122" y="113" width="50" height="30" as="geometry" />
        </mxCell>
        <mxCell id="yzN7syaL2NpGn7USwOIf-13" value="batch 1" style="rounded=0;whiteSpace=wrap;html=1;fontFamily=Times New Roman;fontSize=14;fillColor=#B9E0A5;strokeColor=light-dark(#000000,#5C79A3);" parent="1" vertex="1">
          <mxGeometry x="202" y="113" width="80" height="30" as="geometry" />
        </mxCell>
        <mxCell id="yzN7syaL2NpGn7USwOIf-14" value="batch 2" style="rounded=0;whiteSpace=wrap;html=1;fontFamily=Times New Roman;fontSize=14;fillColor=#B9E0A5;strokeColor=light-dark(#000000,#5C79A3);" parent="1" vertex="1">
          <mxGeometry x="302" y="113" width="115" height="30" as="geometry" />
        </mxCell>
        <mxCell id="yzN7syaL2NpGn7USwOIf-15" value="batch 3" style="rounded=0;whiteSpace=wrap;html=1;fontFamily=Times New Roman;fontSize=14;fillColor=#B9E0A5;strokeColor=light-dark(#000000,#5C79A3);" parent="1" vertex="1">
          <mxGeometry x="427" y="113" width="60" height="30" as="geometry" />
        </mxCell>
        <mxCell id="yzN7syaL2NpGn7USwOIf-17" value="classification 0" style="rounded=0;whiteSpace=wrap;html=1;fontFamily=Times New Roman;fontSize=14;fillColor=#f5f5f5;strokeColor=#666666;fontColor=#333333;" parent="1" vertex="1">
          <mxGeometry x="142" y="163" width="90" height="40" as="geometry" />
        </mxCell>
        <mxCell id="yzN7syaL2NpGn7USwOIf-18" value="classification 1" style="rounded=0;whiteSpace=wrap;html=1;fontFamily=Times New Roman;fontSize=14;fillColor=#f5f5f5;strokeColor=#666666;fontColor=#333333;" parent="1" vertex="1">
          <mxGeometry x="232" y="163" width="90" height="40" as="geometry" />
        </mxCell>
        <mxCell id="yzN7syaL2NpGn7USwOIf-19" value="classification 2" style="rounded=0;whiteSpace=wrap;html=1;fontFamily=Times New Roman;fontSize=14;fillColor=#f5f5f5;strokeColor=#666666;fontColor=#333333;" parent="1" vertex="1">
          <mxGeometry x="322" y="163" width="90" height="40" as="geometry" />
        </mxCell>
        <mxCell id="yzN7syaL2NpGn7USwOIf-20" value="classification 3" style="rounded=0;whiteSpace=wrap;html=1;fontFamily=Times New Roman;fontSize=14;fillColor=#f5f5f5;strokeColor=#666666;fontColor=#333333;" parent="1" vertex="1">
          <mxGeometry x="412" y="163" width="90" height="40" as="geometry" />
        </mxCell>
        <mxCell id="yzN7syaL2NpGn7USwOIf-22" value="" style="endArrow=classic;html=1;rounded=0;exitX=0.5;exitY=1;exitDx=0;exitDy=0;entryX=0.5;entryY=0;entryDx=0;entryDy=0;fontFamily=Times New Roman;fontSize=14;" parent="1" source="yzN7syaL2NpGn7USwOIf-11" target="yzN7syaL2NpGn7USwOIf-17" edge="1">
          <mxGeometry width="50" height="50" relative="1" as="geometry">
            <mxPoint x="272" y="156" as="sourcePoint" />
            <mxPoint x="322" y="106" as="targetPoint" />
          </mxGeometry>
        </mxCell>
        <mxCell id="yzN7syaL2NpGn7USwOIf-23" value="" style="endArrow=classic;html=1;rounded=0;exitX=0.5;exitY=1;exitDx=0;exitDy=0;entryX=0.5;entryY=0;entryDx=0;entryDy=0;fontFamily=Times New Roman;fontSize=14;" parent="1" source="yzN7syaL2NpGn7USwOIf-13" target="yzN7syaL2NpGn7USwOIf-18" edge="1">
          <mxGeometry width="50" height="50" relative="1" as="geometry">
            <mxPoint x="157" y="156" as="sourcePoint" />
            <mxPoint x="197" y="176" as="targetPoint" />
          </mxGeometry>
        </mxCell>
        <mxCell id="yzN7syaL2NpGn7USwOIf-24" value="" style="endArrow=classic;html=1;rounded=0;exitX=0.5;exitY=1;exitDx=0;exitDy=0;entryX=0.5;entryY=0;entryDx=0;entryDy=0;fontFamily=Times New Roman;fontSize=14;" parent="1" source="yzN7syaL2NpGn7USwOIf-14" target="yzN7syaL2NpGn7USwOIf-19" edge="1">
          <mxGeometry width="50" height="50" relative="1" as="geometry">
            <mxPoint x="167" y="166" as="sourcePoint" />
            <mxPoint x="207" y="186" as="targetPoint" />
          </mxGeometry>
        </mxCell>
        <mxCell id="yzN7syaL2NpGn7USwOIf-25" value="" style="endArrow=classic;html=1;rounded=0;exitX=0.5;exitY=1;exitDx=0;exitDy=0;entryX=0.5;entryY=0;entryDx=0;entryDy=0;fontFamily=Times New Roman;fontSize=14;" parent="1" source="yzN7syaL2NpGn7USwOIf-15" target="yzN7syaL2NpGn7USwOIf-20" edge="1">
          <mxGeometry width="50" height="50" relative="1" as="geometry">
            <mxPoint x="177" y="176" as="sourcePoint" />
            <mxPoint x="217" y="196" as="targetPoint" />
          </mxGeometry>
        </mxCell>
        <mxCell id="yzN7syaL2NpGn7USwOIf-2" value="" style="endArrow=none;html=1;rounded=0;fontFamily=Times New Roman;fontSize=14;" parent="1" edge="1">
          <mxGeometry width="50" height="50" relative="1" as="geometry">
            <mxPoint x="2" y="156" as="sourcePoint" />
            <mxPoint x="510" y="156" as="targetPoint" />
          </mxGeometry>
        </mxCell>
        <mxCell id="yzN7syaL2NpGn7USwOIf-1" value="" style="endArrow=none;html=1;rounded=0;fontFamily=Times New Roman;fontSize=14;" parent="1" edge="1">
          <mxGeometry width="50" height="50" relative="1" as="geometry">
            <mxPoint x="2" y="106" as="sourcePoint" />
            <mxPoint x="510" y="106" as="targetPoint" />
          </mxGeometry>
        </mxCell>
        <mxCell id="yzN7syaL2NpGn7USwOIf-3" value="" style="endArrow=none;html=1;rounded=0;fontFamily=Times New Roman;fontSize=14;" parent="1" edge="1">
          <mxGeometry width="50" height="50" relative="1" as="geometry">
            <mxPoint x="2" y="206" as="sourcePoint" />
            <mxPoint x="510" y="206" as="targetPoint" />
          </mxGeometry>
        </mxCell>
        <mxCell id="LArm0az362zw-JhP0GPY-1" value="SmartNIC" style="text;html=1;align=center;verticalAlign=middle;whiteSpace=wrap;rounded=0;fontFamily=Times New Roman;fontSize=14;" parent="1" vertex="1">
          <mxGeometry x="72" y="1" width="60" height="30" as="geometry" />
        </mxCell>
        <mxCell id="URsZVJmlBdo0wysseN1q-1" value="CPU" style="text;html=1;align=center;verticalAlign=middle;whiteSpace=wrap;rounded=0;fontFamily=Times New Roman;fontSize=14;" vertex="1" parent="1">
          <mxGeometry x="393" y="2.17999999999995" width="60" height="30" as="geometry" />
        </mxCell>
        <mxCell id="URsZVJmlBdo0wysseN1q-2" value="Buffer" style="text;html=1;align=center;verticalAlign=middle;whiteSpace=wrap;rounded=0;fontFamily=Times New Roman;fontSize=14;" vertex="1" parent="1">
          <mxGeometry x="232" y="6" width="60" height="30" as="geometry" />
        </mxCell>
      </root>
    </mxGraphModel>
  </diagram>
  <diagram name="第 5 页" id="Ectg8kruIWf4MMsyGkkz">
    <mxGraphModel dx="1420" dy="801" grid="1" gridSize="10" guides="1" tooltips="1" connect="1" arrows="1" fold="1" page="1" pageScale="1" pageWidth="895" pageHeight="256" math="0" shadow="0">
      <root>
        <mxCell id="0" />
        <mxCell id="1" parent="0" />
        <mxCell id="xvqoxpchI7VGtEHndukc-17" value="4" style="rounded=0;whiteSpace=wrap;html=1;fontFamily=Times New Roman;fontSize=19;" parent="1" vertex="1">
          <mxGeometry x="95" y="99.5" width="40" height="40" as="geometry" />
        </mxCell>
        <mxCell id="xvqoxpchI7VGtEHndukc-18" value="104" style="rounded=0;whiteSpace=wrap;html=1;fontFamily=Times New Roman;fontSize=19;" parent="1" vertex="1">
          <mxGeometry x="135" y="99.5" width="40" height="40" as="geometry" />
        </mxCell>
        <mxCell id="xvqoxpchI7VGtEHndukc-19" value="18" style="rounded=0;whiteSpace=wrap;html=1;fontFamily=Times New Roman;fontSize=19;" parent="1" vertex="1">
          <mxGeometry x="175" y="99.5" width="40" height="40" as="geometry" />
        </mxCell>
        <mxCell id="xvqoxpchI7VGtEHndukc-20" value="2" style="rounded=0;whiteSpace=wrap;html=1;fontFamily=Times New Roman;fontSize=19;" parent="1" vertex="1">
          <mxGeometry x="215" y="99.5" width="40" height="40" as="geometry" />
        </mxCell>
        <mxCell id="xvqoxpchI7VGtEHndukc-31" style="rounded=0;orthogonalLoop=1;jettySize=auto;html=1;entryX=0.5;entryY=1;entryDx=0;entryDy=0;fontFamily=Times New Roman;fontSize=16;" parent="1" source="xvqoxpchI7VGtEHndukc-30" target="xvqoxpchI7VGtEHndukc-17" edge="1">
          <mxGeometry relative="1" as="geometry" />
        </mxCell>
        <mxCell id="xvqoxpchI7VGtEHndukc-30" value="Count 4" style="text;html=1;align=center;verticalAlign=middle;resizable=0;points=[];autosize=1;strokeColor=none;fillColor=none;fontFamily=Times New Roman;fontSize=15;" parent="1" vertex="1">
          <mxGeometry x="80" y="158" width="70" height="30" as="geometry" />
        </mxCell>
        <mxCell id="xvqoxpchI7VGtEHndukc-80" style="rounded=0;orthogonalLoop=1;jettySize=auto;html=1;entryX=0.5;entryY=1;entryDx=0;entryDy=0;fontFamily=Times New Roman;fontSize=16;exitX=0.486;exitY=0.046;exitDx=0;exitDy=0;exitPerimeter=0;" parent="1" source="xvqoxpchI7VGtEHndukc-48" target="xvqoxpchI7VGtEHndukc-18" edge="1">
          <mxGeometry relative="1" as="geometry" />
        </mxCell>
        <mxCell id="xvqoxpchI7VGtEHndukc-48" value="Count 104" style="text;html=1;align=center;verticalAlign=middle;resizable=0;points=[];autosize=1;strokeColor=none;fillColor=none;fontFamily=Times New Roman;fontSize=15;" parent="1" vertex="1">
          <mxGeometry x="135" y="158" width="90" height="30" as="geometry" />
        </mxCell>
        <mxCell id="xvqoxpchI7VGtEHndukc-81" style="rounded=0;orthogonalLoop=1;jettySize=auto;html=1;entryX=0.5;entryY=1;entryDx=0;entryDy=0;fontFamily=Times New Roman;fontSize=16;exitX=0.496;exitY=0.032;exitDx=0;exitDy=0;exitPerimeter=0;" parent="1" source="xvqoxpchI7VGtEHndukc-72" target="xvqoxpchI7VGtEHndukc-19" edge="1">
          <mxGeometry relative="1" as="geometry" />
        </mxCell>
        <mxCell id="xvqoxpchI7VGtEHndukc-72" value="Count 18" style="text;html=1;align=center;verticalAlign=middle;resizable=0;points=[];autosize=1;strokeColor=none;fillColor=none;fontFamily=Times New Roman;fontSize=15;" parent="1" vertex="1">
          <mxGeometry x="208" y="158" width="80" height="30" as="geometry" />
        </mxCell>
        <mxCell id="xvqoxpchI7VGtEHndukc-82" style="rounded=0;orthogonalLoop=1;jettySize=auto;html=1;entryX=0.5;entryY=1;entryDx=0;entryDy=0;fontFamily=Times New Roman;fontSize=16;exitX=0.511;exitY=0.048;exitDx=0;exitDy=0;exitPerimeter=0;" parent="1" source="xvqoxpchI7VGtEHndukc-73" target="xvqoxpchI7VGtEHndukc-20" edge="1">
          <mxGeometry relative="1" as="geometry" />
        </mxCell>
        <mxCell id="xvqoxpchI7VGtEHndukc-73" value="Count 2" style="text;html=1;align=center;verticalAlign=middle;resizable=0;points=[];autosize=1;strokeColor=none;fillColor=none;fontFamily=Times New Roman;fontSize=15;" parent="1" vertex="1">
          <mxGeometry x="274" y="158" width="70" height="30" as="geometry" />
        </mxCell>
        <mxCell id="zerdK9Y146wEplPBOKZd-1" value="200" style="rounded=0;whiteSpace=wrap;html=1;fontFamily=Times New Roman;fontSize=19;" parent="1" vertex="1">
          <mxGeometry x="382" y="104.5" width="40" height="40" as="geometry" />
        </mxCell>
        <mxCell id="zerdK9Y146wEplPBOKZd-2" value="2" style="rounded=0;whiteSpace=wrap;html=1;fontFamily=Times New Roman;fontSize=19;" parent="1" vertex="1">
          <mxGeometry x="422" y="104.5" width="40" height="40" as="geometry" />
        </mxCell>
        <mxCell id="zerdK9Y146wEplPBOKZd-3" value="18" style="rounded=0;whiteSpace=wrap;html=1;fontFamily=Times New Roman;fontSize=19;" parent="1" vertex="1">
          <mxGeometry x="462" y="104.5" width="40" height="40" as="geometry" />
        </mxCell>
        <mxCell id="zerdK9Y146wEplPBOKZd-4" value="2" style="rounded=0;whiteSpace=wrap;html=1;fontFamily=Times New Roman;fontSize=19;" parent="1" vertex="1">
          <mxGeometry x="502" y="104.5" width="40" height="40" as="geometry" />
        </mxCell>
        <mxCell id="zerdK9Y146wEplPBOKZd-12" style="edgeStyle=orthogonalEdgeStyle;rounded=0;orthogonalLoop=1;jettySize=auto;html=1;entryX=0.5;entryY=1;entryDx=0;entryDy=0;fontFamily=Times New Roman;fontSize=16;" parent="1" target="zerdK9Y146wEplPBOKZd-1" edge="1">
          <mxGeometry relative="1" as="geometry">
            <mxPoint x="402.05882352941217" y="163" as="sourcePoint" />
          </mxGeometry>
        </mxCell>
        <mxCell id="zerdK9Y146wEplPBOKZd-13" value="Count 200" style="text;html=1;align=center;verticalAlign=middle;resizable=0;points=[];autosize=1;strokeColor=none;fillColor=none;fontFamily=Times New Roman;fontSize=15;" parent="1" vertex="1">
          <mxGeometry x="356" y="159" width="90" height="30" as="geometry" />
        </mxCell>
        <mxCell id="zerdK9Y146wEplPBOKZd-14" style="rounded=0;orthogonalLoop=1;jettySize=auto;html=1;entryX=0.5;entryY=1;entryDx=0;entryDy=0;fontFamily=Times New Roman;fontSize=16;exitX=0.52;exitY=0.016;exitDx=0;exitDy=0;exitPerimeter=0;" parent="1" target="zerdK9Y146wEplPBOKZd-2" edge="1">
          <mxGeometry relative="1" as="geometry">
            <mxPoint x="467.2000000000003" y="163.4799999999998" as="sourcePoint" />
          </mxGeometry>
        </mxCell>
        <mxCell id="zerdK9Y146wEplPBOKZd-15" value="Count 2" style="text;html=1;align=center;verticalAlign=middle;resizable=0;points=[];autosize=1;strokeColor=none;fillColor=none;fontFamily=Times New Roman;fontSize=15;" parent="1" vertex="1">
          <mxGeometry x="431" y="159" width="70" height="30" as="geometry" />
        </mxCell>
        <mxCell id="zerdK9Y146wEplPBOKZd-37" style="rounded=0;orthogonalLoop=1;jettySize=auto;html=1;entryX=0.5;entryY=1;entryDx=0;entryDy=0;fontFamily=Times New Roman;fontSize=16;exitX=0.529;exitY=0.096;exitDx=0;exitDy=0;exitPerimeter=0;" parent="1" target="zerdK9Y146wEplPBOKZd-3" edge="1">
          <mxGeometry relative="1" as="geometry">
            <mxPoint x="532.0299999999997" y="165.8800000000001" as="sourcePoint" />
          </mxGeometry>
        </mxCell>
        <mxCell id="zerdK9Y146wEplPBOKZd-38" value="Count 18" style="text;html=1;align=center;verticalAlign=middle;resizable=0;points=[];autosize=1;strokeColor=none;fillColor=none;fontFamily=Times New Roman;fontSize=15;" parent="1" vertex="1">
          <mxGeometry x="490" y="159" width="80" height="30" as="geometry" />
        </mxCell>
        <mxCell id="zerdK9Y146wEplPBOKZd-39" style="rounded=0;orthogonalLoop=1;jettySize=auto;html=1;entryX=0.5;entryY=1;entryDx=0;entryDy=0;fontFamily=Times New Roman;fontSize=16;exitX=0.533;exitY=0.016;exitDx=0;exitDy=0;exitPerimeter=0;" parent="1" target="zerdK9Y146wEplPBOKZd-4" edge="1">
          <mxGeometry relative="1" as="geometry">
            <mxPoint x="596.9799999999996" y="163.4799999999998" as="sourcePoint" />
          </mxGeometry>
        </mxCell>
        <mxCell id="zerdK9Y146wEplPBOKZd-40" value="Count 2" style="text;html=1;align=center;verticalAlign=middle;resizable=0;points=[];autosize=1;strokeColor=none;fillColor=none;fontFamily=Times New Roman;fontSize=15;" parent="1" vertex="1">
          <mxGeometry x="560" y="159" width="70" height="30" as="geometry" />
        </mxCell>
        <mxCell id="zerdK9Y146wEplPBOKZd-53" style="edgeStyle=orthogonalEdgeStyle;rounded=0;orthogonalLoop=1;jettySize=auto;html=1;exitX=0.5;exitY=0;exitDx=0;exitDy=0;fontFamily=Times New Roman;fontSize=16;" parent="1" source="zerdK9Y146wEplPBOKZd-44" edge="1">
          <mxGeometry relative="1" as="geometry">
            <mxPoint x="402" y="78" as="targetPoint" />
          </mxGeometry>
        </mxCell>
        <mxCell id="zerdK9Y146wEplPBOKZd-106" value="4" style="rounded=0;whiteSpace=wrap;html=1;fontFamily=Times New Roman;fontSize=19;" parent="1" vertex="1">
          <mxGeometry x="650" y="104.5" width="40" height="40" as="geometry" />
        </mxCell>
        <mxCell id="zerdK9Y146wEplPBOKZd-107" value="4" style="rounded=0;whiteSpace=wrap;html=1;fontFamily=Times New Roman;fontSize=19;" parent="1" vertex="1">
          <mxGeometry x="690" y="104.5" width="40" height="40" as="geometry" />
        </mxCell>
        <mxCell id="zerdK9Y146wEplPBOKZd-108" value="18" style="rounded=0;whiteSpace=wrap;html=1;fontFamily=Times New Roman;fontSize=19;" parent="1" vertex="1">
          <mxGeometry x="730" y="104.5" width="40" height="40" as="geometry" />
        </mxCell>
        <mxCell id="zerdK9Y146wEplPBOKZd-109" value="2" style="rounded=0;whiteSpace=wrap;html=1;fontFamily=Times New Roman;fontSize=19;" parent="1" vertex="1">
          <mxGeometry x="770" y="104.5" width="40" height="40" as="geometry" />
        </mxCell>
        <mxCell id="zerdK9Y146wEplPBOKZd-117" style="edgeStyle=orthogonalEdgeStyle;rounded=0;orthogonalLoop=1;jettySize=auto;html=1;entryX=0.5;entryY=1;entryDx=0;entryDy=0;fontFamily=Times New Roman;fontSize=16;" parent="1" target="zerdK9Y146wEplPBOKZd-106" edge="1">
          <mxGeometry relative="1" as="geometry">
            <mxPoint x="669.9411764705883" y="163" as="sourcePoint" />
          </mxGeometry>
        </mxCell>
        <mxCell id="zerdK9Y146wEplPBOKZd-118" value="Count&amp;nbsp;4" style="text;html=1;align=center;verticalAlign=middle;resizable=0;points=[];autosize=1;strokeColor=none;fillColor=none;fontFamily=Times New Roman;fontSize=15;" parent="1" vertex="1">
          <mxGeometry x="635" y="159" width="70" height="30" as="geometry" />
        </mxCell>
        <mxCell id="zerdK9Y146wEplPBOKZd-119" style="rounded=0;orthogonalLoop=1;jettySize=auto;html=1;entryX=0.5;entryY=1;entryDx=0;entryDy=0;fontFamily=Times New Roman;fontSize=16;exitX=0.476;exitY=-0.002;exitDx=0;exitDy=0;exitPerimeter=0;" parent="1" target="zerdK9Y146wEplPBOKZd-107" edge="1">
          <mxGeometry relative="1" as="geometry">
            <mxPoint x="732.5599999999995" y="162.94000000000005" as="sourcePoint" />
          </mxGeometry>
        </mxCell>
        <mxCell id="zerdK9Y146wEplPBOKZd-120" value="Count&amp;nbsp;4" style="text;html=1;align=center;verticalAlign=middle;resizable=0;points=[];autosize=1;strokeColor=none;fillColor=none;fontFamily=Times New Roman;fontSize=15;" parent="1" vertex="1">
          <mxGeometry x="699" y="159" width="70" height="30" as="geometry" />
        </mxCell>
        <mxCell id="zerdK9Y146wEplPBOKZd-142" style="rounded=0;orthogonalLoop=1;jettySize=auto;html=1;entryX=0.5;entryY=1;entryDx=0;entryDy=0;fontFamily=Times New Roman;fontSize=16;exitX=0.487;exitY=-0.021;exitDx=0;exitDy=0;exitPerimeter=0;" parent="1" target="zerdK9Y146wEplPBOKZd-108" edge="1">
          <mxGeometry relative="1" as="geometry">
            <mxPoint x="797.0900000000001" y="162.3699999999999" as="sourcePoint" />
          </mxGeometry>
        </mxCell>
        <mxCell id="zerdK9Y146wEplPBOKZd-143" value="Count&amp;nbsp;18" style="text;html=1;align=center;verticalAlign=middle;resizable=0;points=[];autosize=1;strokeColor=none;fillColor=none;fontFamily=Times New Roman;fontSize=15;" parent="1" vertex="1">
          <mxGeometry x="758" y="159" width="80" height="30" as="geometry" />
        </mxCell>
        <mxCell id="zerdK9Y146wEplPBOKZd-144" style="rounded=0;orthogonalLoop=1;jettySize=auto;html=1;entryX=0.5;entryY=1;entryDx=0;entryDy=0;fontFamily=Times New Roman;fontSize=16;exitX=0.504;exitY=0.036;exitDx=0;exitDy=0;exitPerimeter=0;" parent="1" target="zerdK9Y146wEplPBOKZd-109" edge="1">
          <mxGeometry relative="1" as="geometry">
            <mxPoint x="863.2400000000002" y="164.0799999999997" as="sourcePoint" />
          </mxGeometry>
        </mxCell>
        <mxCell id="zerdK9Y146wEplPBOKZd-148" style="rounded=0;orthogonalLoop=1;jettySize=auto;html=1;entryX=0.5;entryY=1;entryDx=0;entryDy=0;fontFamily=Times New Roman;fontSize=16;exitX=0.75;exitY=0;exitDx=0;exitDy=0;" parent="1" source="zerdK9Y146wEplPBOKZd-149" target="zerdK9Y146wEplPBOKZd-151" edge="1">
          <mxGeometry relative="1" as="geometry">
            <mxPoint x="750.7" y="83.80999999999995" as="targetPoint" />
            <mxPoint x="751" y="97" as="sourcePoint" />
          </mxGeometry>
        </mxCell>
        <mxCell id="6bRIDWg5EmYUW4l3v_ag-1" value="" style="endArrow=none;dashed=1;html=1;strokeWidth=2;rounded=0;fontFamily=Times New Roman;fontSize=16;" parent="1" edge="1">
          <mxGeometry width="50" height="50" relative="1" as="geometry">
            <mxPoint x="353" y="252" as="sourcePoint" />
            <mxPoint x="354" y="1" as="targetPoint" />
          </mxGeometry>
        </mxCell>
        <mxCell id="6bRIDWg5EmYUW4l3v_ag-2" value="" style="endArrow=none;dashed=1;html=1;strokeWidth=2;rounded=0;fontFamily=Times New Roman;fontSize=16;" parent="1" edge="1">
          <mxGeometry width="50" height="50" relative="1" as="geometry">
            <mxPoint x="632" y="254.5" as="sourcePoint" />
            <mxPoint x="633" y="1" as="targetPoint" />
          </mxGeometry>
        </mxCell>
        <mxCell id="xvqoxpchI7VGtEHndukc-115" value="" style="ellipse;whiteSpace=wrap;html=1;aspect=fixed;fillColor=#cce5ff;strokeColor=#36393d;labelBackgroundColor=none;fontFamily=Times New Roman;fontSize=16;" parent="1" vertex="1">
          <mxGeometry x="164" y="21" width="60" height="60" as="geometry" />
        </mxCell>
        <mxCell id="xvqoxpchI7VGtEHndukc-116" value="" style="endArrow=none;html=1;rounded=0;exitX=0;exitY=0;exitDx=0;exitDy=0;entryX=1;entryY=1;entryDx=0;entryDy=0;labelBackgroundColor=none;strokeColor=default;fontFamily=Times New Roman;fontSize=16;" parent="1" source="xvqoxpchI7VGtEHndukc-115" target="xvqoxpchI7VGtEHndukc-115" edge="1">
          <mxGeometry width="50" height="50" relative="1" as="geometry">
            <mxPoint x="244.75" y="-34" as="sourcePoint" />
            <mxPoint x="269.75" y="-59" as="targetPoint" />
          </mxGeometry>
        </mxCell>
        <mxCell id="xvqoxpchI7VGtEHndukc-117" value="" style="endArrow=none;html=1;rounded=0;exitX=0;exitY=0.5;exitDx=0;exitDy=0;entryX=1;entryY=0.5;entryDx=0;entryDy=0;labelBackgroundColor=none;strokeColor=default;fontFamily=Times New Roman;fontSize=16;" parent="1" source="xvqoxpchI7VGtEHndukc-115" target="xvqoxpchI7VGtEHndukc-115" edge="1">
          <mxGeometry width="50" height="50" relative="1" as="geometry">
            <mxPoint x="249.75" y="-29" as="sourcePoint" />
            <mxPoint x="274.75" y="-54" as="targetPoint" />
          </mxGeometry>
        </mxCell>
        <mxCell id="xvqoxpchI7VGtEHndukc-118" value="" style="endArrow=none;html=1;rounded=0;exitX=0.5;exitY=0;exitDx=0;exitDy=0;entryX=0.5;entryY=1;entryDx=0;entryDy=0;labelBackgroundColor=none;strokeColor=default;fontFamily=Times New Roman;fontSize=16;" parent="1" source="xvqoxpchI7VGtEHndukc-115" target="xvqoxpchI7VGtEHndukc-115" edge="1">
          <mxGeometry width="50" height="50" relative="1" as="geometry">
            <mxPoint x="249.75" y="-29" as="sourcePoint" />
            <mxPoint x="274.75" y="-54" as="targetPoint" />
          </mxGeometry>
        </mxCell>
        <mxCell id="xvqoxpchI7VGtEHndukc-119" value="" style="endArrow=none;html=1;rounded=0;exitX=1;exitY=0;exitDx=0;exitDy=0;entryX=0;entryY=1;entryDx=0;entryDy=0;labelBackgroundColor=none;strokeColor=default;fontFamily=Times New Roman;fontSize=16;" parent="1" source="xvqoxpchI7VGtEHndukc-115" target="xvqoxpchI7VGtEHndukc-115" edge="1">
          <mxGeometry width="50" height="50" relative="1" as="geometry">
            <mxPoint x="254.75" y="-24" as="sourcePoint" />
            <mxPoint x="279.75" y="-49" as="targetPoint" />
          </mxGeometry>
        </mxCell>
        <mxCell id="xvqoxpchI7VGtEHndukc-120" value="Ring" style="ellipse;whiteSpace=wrap;html=1;aspect=fixed;labelBackgroundColor=none;fontStyle=0;fontFamily=Times New Roman;fontSize=15;" parent="1" vertex="1">
          <mxGeometry x="174" y="31" width="40" height="40" as="geometry" />
        </mxCell>
        <mxCell id="zerdK9Y146wEplPBOKZd-46" value="" style="ellipse;whiteSpace=wrap;html=1;aspect=fixed;fillColor=#cce5ff;strokeColor=#36393d;labelBackgroundColor=none;fontFamily=Times New Roman;fontSize=16;" parent="1" vertex="1">
          <mxGeometry x="372" y="21" width="60" height="60" as="geometry" />
        </mxCell>
        <mxCell id="zerdK9Y146wEplPBOKZd-47" value="" style="endArrow=none;html=1;rounded=0;exitX=0;exitY=0;exitDx=0;exitDy=0;entryX=1;entryY=1;entryDx=0;entryDy=0;labelBackgroundColor=none;strokeColor=default;fontFamily=Times New Roman;fontSize=16;" parent="1" source="zerdK9Y146wEplPBOKZd-46" target="zerdK9Y146wEplPBOKZd-46" edge="1">
          <mxGeometry width="50" height="50" relative="1" as="geometry">
            <mxPoint x="452.75" y="-34" as="sourcePoint" />
            <mxPoint x="477.75" y="-59" as="targetPoint" />
          </mxGeometry>
        </mxCell>
        <mxCell id="zerdK9Y146wEplPBOKZd-48" value="" style="endArrow=none;html=1;rounded=0;exitX=0;exitY=0.5;exitDx=0;exitDy=0;entryX=1;entryY=0.5;entryDx=0;entryDy=0;labelBackgroundColor=none;strokeColor=default;fontFamily=Times New Roman;fontSize=16;" parent="1" source="zerdK9Y146wEplPBOKZd-46" target="zerdK9Y146wEplPBOKZd-46" edge="1">
          <mxGeometry width="50" height="50" relative="1" as="geometry">
            <mxPoint x="457.75" y="-29" as="sourcePoint" />
            <mxPoint x="482.75" y="-54" as="targetPoint" />
          </mxGeometry>
        </mxCell>
        <mxCell id="zerdK9Y146wEplPBOKZd-49" value="" style="endArrow=none;html=1;rounded=0;exitX=0.5;exitY=0;exitDx=0;exitDy=0;entryX=0.5;entryY=1;entryDx=0;entryDy=0;labelBackgroundColor=none;strokeColor=default;fontFamily=Times New Roman;fontSize=16;" parent="1" source="zerdK9Y146wEplPBOKZd-46" target="zerdK9Y146wEplPBOKZd-46" edge="1">
          <mxGeometry width="50" height="50" relative="1" as="geometry">
            <mxPoint x="457.75" y="-29" as="sourcePoint" />
            <mxPoint x="482.75" y="-54" as="targetPoint" />
          </mxGeometry>
        </mxCell>
        <mxCell id="zerdK9Y146wEplPBOKZd-50" value="" style="endArrow=none;html=1;rounded=0;exitX=1;exitY=0;exitDx=0;exitDy=0;entryX=0;entryY=1;entryDx=0;entryDy=0;labelBackgroundColor=none;strokeColor=default;fontFamily=Times New Roman;fontSize=16;" parent="1" source="zerdK9Y146wEplPBOKZd-46" target="zerdK9Y146wEplPBOKZd-46" edge="1">
          <mxGeometry width="50" height="50" relative="1" as="geometry">
            <mxPoint x="462.75" y="-24" as="sourcePoint" />
            <mxPoint x="487.75" y="-49" as="targetPoint" />
          </mxGeometry>
        </mxCell>
        <mxCell id="zerdK9Y146wEplPBOKZd-51" value="Ring" style="ellipse;whiteSpace=wrap;html=1;aspect=fixed;labelBackgroundColor=none;fontStyle=0;fontFamily=Times New Roman;fontSize=15;" parent="1" vertex="1">
          <mxGeometry x="382" y="31" width="40" height="40" as="geometry" />
        </mxCell>
        <mxCell id="zerdK9Y146wEplPBOKZd-129" value="" style="ellipse;whiteSpace=wrap;html=1;aspect=fixed;fillColor=#cce5ff;strokeColor=#36393d;labelBackgroundColor=none;fontFamily=Times New Roman;fontSize=16;" parent="1" vertex="1">
          <mxGeometry x="768" y="191" width="60" height="60" as="geometry" />
        </mxCell>
        <mxCell id="zerdK9Y146wEplPBOKZd-130" value="" style="endArrow=none;html=1;rounded=0;exitX=0;exitY=0;exitDx=0;exitDy=0;entryX=1;entryY=1;entryDx=0;entryDy=0;labelBackgroundColor=none;strokeColor=default;fontFamily=Times New Roman;fontSize=16;" parent="1" source="zerdK9Y146wEplPBOKZd-129" target="zerdK9Y146wEplPBOKZd-129" edge="1">
          <mxGeometry width="50" height="50" relative="1" as="geometry">
            <mxPoint x="848.75" y="136" as="sourcePoint" />
            <mxPoint x="873.75" y="111" as="targetPoint" />
          </mxGeometry>
        </mxCell>
        <mxCell id="zerdK9Y146wEplPBOKZd-131" value="" style="endArrow=none;html=1;rounded=0;exitX=0;exitY=0.5;exitDx=0;exitDy=0;entryX=1;entryY=0.5;entryDx=0;entryDy=0;labelBackgroundColor=none;strokeColor=default;fontFamily=Times New Roman;fontSize=16;" parent="1" source="zerdK9Y146wEplPBOKZd-129" target="zerdK9Y146wEplPBOKZd-129" edge="1">
          <mxGeometry width="50" height="50" relative="1" as="geometry">
            <mxPoint x="853.75" y="141" as="sourcePoint" />
            <mxPoint x="878.75" y="116" as="targetPoint" />
          </mxGeometry>
        </mxCell>
        <mxCell id="zerdK9Y146wEplPBOKZd-132" value="" style="endArrow=none;html=1;rounded=0;exitX=0.5;exitY=0;exitDx=0;exitDy=0;entryX=0.5;entryY=1;entryDx=0;entryDy=0;labelBackgroundColor=none;strokeColor=default;fontFamily=Times New Roman;fontSize=16;" parent="1" source="zerdK9Y146wEplPBOKZd-129" target="zerdK9Y146wEplPBOKZd-129" edge="1">
          <mxGeometry width="50" height="50" relative="1" as="geometry">
            <mxPoint x="853.75" y="141" as="sourcePoint" />
            <mxPoint x="878.75" y="116" as="targetPoint" />
          </mxGeometry>
        </mxCell>
        <mxCell id="zerdK9Y146wEplPBOKZd-133" value="" style="endArrow=none;html=1;rounded=0;exitX=1;exitY=0;exitDx=0;exitDy=0;entryX=0;entryY=1;entryDx=0;entryDy=0;labelBackgroundColor=none;strokeColor=default;fontFamily=Times New Roman;fontSize=16;" parent="1" source="zerdK9Y146wEplPBOKZd-129" target="zerdK9Y146wEplPBOKZd-129" edge="1">
          <mxGeometry width="50" height="50" relative="1" as="geometry">
            <mxPoint x="858.75" y="146" as="sourcePoint" />
            <mxPoint x="883.75" y="121" as="targetPoint" />
          </mxGeometry>
        </mxCell>
        <mxCell id="zerdK9Y146wEplPBOKZd-134" value="Ring" style="ellipse;whiteSpace=wrap;html=1;aspect=fixed;labelBackgroundColor=none;fontStyle=0;fontFamily=Times New Roman;fontSize=15;" parent="1" vertex="1">
          <mxGeometry x="778" y="201" width="40" height="40" as="geometry" />
        </mxCell>
        <mxCell id="zerdK9Y146wEplPBOKZd-17" value="" style="ellipse;whiteSpace=wrap;html=1;aspect=fixed;fillColor=#cce5ff;strokeColor=#36393d;labelBackgroundColor=none;fontFamily=Times New Roman;fontSize=16;" parent="1" vertex="1">
          <mxGeometry x="436" y="191" width="60" height="60" as="geometry" />
        </mxCell>
        <mxCell id="zerdK9Y146wEplPBOKZd-18" value="" style="endArrow=none;html=1;rounded=0;exitX=0;exitY=0;exitDx=0;exitDy=0;entryX=1;entryY=1;entryDx=0;entryDy=0;labelBackgroundColor=none;strokeColor=default;fontFamily=Times New Roman;fontSize=16;" parent="1" source="zerdK9Y146wEplPBOKZd-17" target="zerdK9Y146wEplPBOKZd-17" edge="1">
          <mxGeometry width="50" height="50" relative="1" as="geometry">
            <mxPoint x="516.75" y="136" as="sourcePoint" />
            <mxPoint x="541.75" y="111" as="targetPoint" />
          </mxGeometry>
        </mxCell>
        <mxCell id="zerdK9Y146wEplPBOKZd-19" value="" style="endArrow=none;html=1;rounded=0;exitX=0;exitY=0.5;exitDx=0;exitDy=0;entryX=1;entryY=0.5;entryDx=0;entryDy=0;labelBackgroundColor=none;strokeColor=default;fontFamily=Times New Roman;fontSize=16;" parent="1" source="zerdK9Y146wEplPBOKZd-17" target="zerdK9Y146wEplPBOKZd-17" edge="1">
          <mxGeometry width="50" height="50" relative="1" as="geometry">
            <mxPoint x="521.75" y="141" as="sourcePoint" />
            <mxPoint x="546.75" y="116" as="targetPoint" />
          </mxGeometry>
        </mxCell>
        <mxCell id="zerdK9Y146wEplPBOKZd-20" value="" style="endArrow=none;html=1;rounded=0;exitX=0.5;exitY=0;exitDx=0;exitDy=0;entryX=0.5;entryY=1;entryDx=0;entryDy=0;labelBackgroundColor=none;strokeColor=default;fontFamily=Times New Roman;fontSize=16;" parent="1" source="zerdK9Y146wEplPBOKZd-17" target="zerdK9Y146wEplPBOKZd-17" edge="1">
          <mxGeometry width="50" height="50" relative="1" as="geometry">
            <mxPoint x="521.75" y="141" as="sourcePoint" />
            <mxPoint x="546.75" y="116" as="targetPoint" />
          </mxGeometry>
        </mxCell>
        <mxCell id="zerdK9Y146wEplPBOKZd-21" value="" style="endArrow=none;html=1;rounded=0;exitX=1;exitY=0;exitDx=0;exitDy=0;entryX=0;entryY=1;entryDx=0;entryDy=0;labelBackgroundColor=none;strokeColor=default;fontFamily=Times New Roman;fontSize=16;" parent="1" source="zerdK9Y146wEplPBOKZd-17" target="zerdK9Y146wEplPBOKZd-17" edge="1">
          <mxGeometry width="50" height="50" relative="1" as="geometry">
            <mxPoint x="526.75" y="146" as="sourcePoint" />
            <mxPoint x="551.75" y="121" as="targetPoint" />
          </mxGeometry>
        </mxCell>
        <mxCell id="zerdK9Y146wEplPBOKZd-22" value="Ring" style="ellipse;whiteSpace=wrap;html=1;aspect=fixed;labelBackgroundColor=none;fontStyle=0;fontFamily=Times New Roman;fontSize=15;" parent="1" vertex="1">
          <mxGeometry x="446" y="201" width="40" height="40" as="geometry" />
        </mxCell>
        <mxCell id="5bAcBsLnxYSYvMIbodsE-7" value="" style="ellipse;whiteSpace=wrap;html=1;aspect=fixed;fillColor=#cce5ff;strokeColor=#36393d;labelBackgroundColor=none;fontFamily=Times New Roman;fontSize=16;" parent="1" vertex="1">
          <mxGeometry x="85" y="184" width="60" height="60" as="geometry" />
        </mxCell>
        <mxCell id="5bAcBsLnxYSYvMIbodsE-8" value="" style="endArrow=none;html=1;rounded=0;exitX=0;exitY=0;exitDx=0;exitDy=0;entryX=1;entryY=1;entryDx=0;entryDy=0;labelBackgroundColor=none;strokeColor=default;fontFamily=Times New Roman;fontSize=16;" parent="1" source="5bAcBsLnxYSYvMIbodsE-7" target="5bAcBsLnxYSYvMIbodsE-7" edge="1">
          <mxGeometry width="50" height="50" relative="1" as="geometry">
            <mxPoint x="165.75" y="129" as="sourcePoint" />
            <mxPoint x="190.75" y="104" as="targetPoint" />
          </mxGeometry>
        </mxCell>
        <mxCell id="5bAcBsLnxYSYvMIbodsE-9" value="" style="endArrow=none;html=1;rounded=0;exitX=0;exitY=0.5;exitDx=0;exitDy=0;entryX=1;entryY=0.5;entryDx=0;entryDy=0;labelBackgroundColor=none;strokeColor=default;fontFamily=Times New Roman;fontSize=16;" parent="1" source="5bAcBsLnxYSYvMIbodsE-7" target="5bAcBsLnxYSYvMIbodsE-7" edge="1">
          <mxGeometry width="50" height="50" relative="1" as="geometry">
            <mxPoint x="170.75" y="134" as="sourcePoint" />
            <mxPoint x="195.75" y="109" as="targetPoint" />
          </mxGeometry>
        </mxCell>
        <mxCell id="5bAcBsLnxYSYvMIbodsE-10" value="" style="endArrow=none;html=1;rounded=0;exitX=0.5;exitY=0;exitDx=0;exitDy=0;entryX=0.5;entryY=1;entryDx=0;entryDy=0;labelBackgroundColor=none;strokeColor=default;fontFamily=Times New Roman;fontSize=16;" parent="1" source="5bAcBsLnxYSYvMIbodsE-7" target="5bAcBsLnxYSYvMIbodsE-7" edge="1">
          <mxGeometry width="50" height="50" relative="1" as="geometry">
            <mxPoint x="170.75" y="134" as="sourcePoint" />
            <mxPoint x="195.75" y="109" as="targetPoint" />
          </mxGeometry>
        </mxCell>
        <mxCell id="5bAcBsLnxYSYvMIbodsE-11" value="" style="endArrow=none;html=1;rounded=0;exitX=1;exitY=0;exitDx=0;exitDy=0;entryX=0;entryY=1;entryDx=0;entryDy=0;labelBackgroundColor=none;strokeColor=default;fontFamily=Times New Roman;fontSize=16;" parent="1" source="5bAcBsLnxYSYvMIbodsE-7" target="5bAcBsLnxYSYvMIbodsE-7" edge="1">
          <mxGeometry width="50" height="50" relative="1" as="geometry">
            <mxPoint x="175.75" y="139" as="sourcePoint" />
            <mxPoint x="200.75" y="114" as="targetPoint" />
          </mxGeometry>
        </mxCell>
        <mxCell id="5bAcBsLnxYSYvMIbodsE-12" value="Ring" style="ellipse;whiteSpace=wrap;html=1;aspect=fixed;labelBackgroundColor=none;fontStyle=0;fontFamily=Times New Roman;fontSize=15;" parent="1" vertex="1">
          <mxGeometry x="95" y="194" width="40" height="40" as="geometry" />
        </mxCell>
        <mxCell id="zerdK9Y146wEplPBOKZd-151" value="" style="ellipse;whiteSpace=wrap;html=1;aspect=fixed;fillColor=#cce5ff;strokeColor=#36393d;labelBackgroundColor=none;fontFamily=Times New Roman;fontSize=16;" parent="1" vertex="1">
          <mxGeometry x="720" y="21" width="60" height="60" as="geometry" />
        </mxCell>
        <mxCell id="zerdK9Y146wEplPBOKZd-152" value="" style="endArrow=none;html=1;rounded=0;exitX=0;exitY=0;exitDx=0;exitDy=0;entryX=1;entryY=1;entryDx=0;entryDy=0;labelBackgroundColor=none;strokeColor=default;fontFamily=Times New Roman;fontSize=16;" parent="1" source="zerdK9Y146wEplPBOKZd-151" target="zerdK9Y146wEplPBOKZd-151" edge="1">
          <mxGeometry width="50" height="50" relative="1" as="geometry">
            <mxPoint x="800.75" y="-34" as="sourcePoint" />
            <mxPoint x="825.75" y="-59" as="targetPoint" />
          </mxGeometry>
        </mxCell>
        <mxCell id="zerdK9Y146wEplPBOKZd-153" value="" style="endArrow=none;html=1;rounded=0;exitX=0;exitY=0.5;exitDx=0;exitDy=0;entryX=1;entryY=0.5;entryDx=0;entryDy=0;labelBackgroundColor=none;strokeColor=default;fontFamily=Times New Roman;fontSize=16;" parent="1" source="zerdK9Y146wEplPBOKZd-151" target="zerdK9Y146wEplPBOKZd-151" edge="1">
          <mxGeometry width="50" height="50" relative="1" as="geometry">
            <mxPoint x="805.75" y="-29" as="sourcePoint" />
            <mxPoint x="830.75" y="-54" as="targetPoint" />
          </mxGeometry>
        </mxCell>
        <mxCell id="zerdK9Y146wEplPBOKZd-154" value="" style="endArrow=none;html=1;rounded=0;exitX=0.5;exitY=0;exitDx=0;exitDy=0;entryX=0.5;entryY=1;entryDx=0;entryDy=0;labelBackgroundColor=none;strokeColor=default;fontFamily=Times New Roman;fontSize=16;" parent="1" source="zerdK9Y146wEplPBOKZd-151" target="zerdK9Y146wEplPBOKZd-151" edge="1">
          <mxGeometry width="50" height="50" relative="1" as="geometry">
            <mxPoint x="805.75" y="-29" as="sourcePoint" />
            <mxPoint x="830.75" y="-54" as="targetPoint" />
          </mxGeometry>
        </mxCell>
        <mxCell id="zerdK9Y146wEplPBOKZd-155" value="" style="endArrow=none;html=1;rounded=0;exitX=1;exitY=0;exitDx=0;exitDy=0;entryX=0;entryY=1;entryDx=0;entryDy=0;labelBackgroundColor=none;strokeColor=default;fontFamily=Times New Roman;fontSize=16;" parent="1" source="zerdK9Y146wEplPBOKZd-151" target="zerdK9Y146wEplPBOKZd-151" edge="1">
          <mxGeometry width="50" height="50" relative="1" as="geometry">
            <mxPoint x="810.75" y="-24" as="sourcePoint" />
            <mxPoint x="835.75" y="-49" as="targetPoint" />
          </mxGeometry>
        </mxCell>
        <mxCell id="zerdK9Y146wEplPBOKZd-156" value="Ring" style="ellipse;whiteSpace=wrap;html=1;aspect=fixed;labelBackgroundColor=none;fontStyle=0;fontFamily=Times New Roman;fontSize=15;" parent="1" vertex="1">
          <mxGeometry x="730" y="31" width="40" height="40" as="geometry" />
        </mxCell>
        <mxCell id="zerdK9Y146wEplPBOKZd-136" value="" style="ellipse;whiteSpace=wrap;html=1;aspect=fixed;fillColor=#cce5ff;strokeColor=#36393d;labelBackgroundColor=none;fontFamily=Times New Roman;fontSize=16;" parent="1" vertex="1">
          <mxGeometry x="833" y="191" width="60" height="60" as="geometry" />
        </mxCell>
        <mxCell id="zerdK9Y146wEplPBOKZd-137" value="" style="endArrow=none;html=1;rounded=0;exitX=0;exitY=0;exitDx=0;exitDy=0;entryX=1;entryY=1;entryDx=0;entryDy=0;labelBackgroundColor=none;strokeColor=default;fontFamily=Times New Roman;fontSize=16;" parent="1" source="zerdK9Y146wEplPBOKZd-136" target="zerdK9Y146wEplPBOKZd-136" edge="1">
          <mxGeometry width="50" height="50" relative="1" as="geometry">
            <mxPoint x="913.75" y="136" as="sourcePoint" />
            <mxPoint x="938.75" y="111" as="targetPoint" />
          </mxGeometry>
        </mxCell>
        <mxCell id="zerdK9Y146wEplPBOKZd-138" value="" style="endArrow=none;html=1;rounded=0;exitX=0;exitY=0.5;exitDx=0;exitDy=0;entryX=1;entryY=0.5;entryDx=0;entryDy=0;labelBackgroundColor=none;strokeColor=default;fontFamily=Times New Roman;fontSize=16;" parent="1" source="zerdK9Y146wEplPBOKZd-136" target="zerdK9Y146wEplPBOKZd-136" edge="1">
          <mxGeometry width="50" height="50" relative="1" as="geometry">
            <mxPoint x="918.75" y="141" as="sourcePoint" />
            <mxPoint x="943.75" y="116" as="targetPoint" />
          </mxGeometry>
        </mxCell>
        <mxCell id="zerdK9Y146wEplPBOKZd-139" value="" style="endArrow=none;html=1;rounded=0;exitX=0.5;exitY=0;exitDx=0;exitDy=0;entryX=0.5;entryY=1;entryDx=0;entryDy=0;labelBackgroundColor=none;strokeColor=default;fontFamily=Times New Roman;fontSize=16;" parent="1" source="zerdK9Y146wEplPBOKZd-136" target="zerdK9Y146wEplPBOKZd-136" edge="1">
          <mxGeometry width="50" height="50" relative="1" as="geometry">
            <mxPoint x="918.75" y="141" as="sourcePoint" />
            <mxPoint x="943.75" y="116" as="targetPoint" />
          </mxGeometry>
        </mxCell>
        <mxCell id="zerdK9Y146wEplPBOKZd-140" value="" style="endArrow=none;html=1;rounded=0;exitX=1;exitY=0;exitDx=0;exitDy=0;entryX=0;entryY=1;entryDx=0;entryDy=0;labelBackgroundColor=none;strokeColor=default;fontFamily=Times New Roman;fontSize=16;" parent="1" source="zerdK9Y146wEplPBOKZd-136" target="zerdK9Y146wEplPBOKZd-136" edge="1">
          <mxGeometry width="50" height="50" relative="1" as="geometry">
            <mxPoint x="923.75" y="146" as="sourcePoint" />
            <mxPoint x="948.75" y="121" as="targetPoint" />
          </mxGeometry>
        </mxCell>
        <mxCell id="zerdK9Y146wEplPBOKZd-141" value="Ring" style="ellipse;whiteSpace=wrap;html=1;aspect=fixed;labelBackgroundColor=none;fontStyle=0;fontFamily=Times New Roman;fontSize=15;" parent="1" vertex="1">
          <mxGeometry x="843" y="201" width="40" height="40" as="geometry" />
        </mxCell>
        <mxCell id="zerdK9Y146wEplPBOKZd-122" value="" style="ellipse;whiteSpace=wrap;html=1;aspect=fixed;fillColor=#cce5ff;strokeColor=#36393d;labelBackgroundColor=none;fontFamily=Times New Roman;fontSize=16;" parent="1" vertex="1">
          <mxGeometry x="704" y="191" width="60" height="60" as="geometry" />
        </mxCell>
        <mxCell id="zerdK9Y146wEplPBOKZd-123" value="" style="endArrow=none;html=1;rounded=0;exitX=0;exitY=0;exitDx=0;exitDy=0;entryX=1;entryY=1;entryDx=0;entryDy=0;labelBackgroundColor=none;strokeColor=default;fontFamily=Times New Roman;fontSize=16;" parent="1" source="zerdK9Y146wEplPBOKZd-122" target="zerdK9Y146wEplPBOKZd-122" edge="1">
          <mxGeometry width="50" height="50" relative="1" as="geometry">
            <mxPoint x="784.75" y="136" as="sourcePoint" />
            <mxPoint x="809.75" y="111" as="targetPoint" />
          </mxGeometry>
        </mxCell>
        <mxCell id="zerdK9Y146wEplPBOKZd-124" value="" style="endArrow=none;html=1;rounded=0;exitX=0;exitY=0.5;exitDx=0;exitDy=0;entryX=1;entryY=0.5;entryDx=0;entryDy=0;labelBackgroundColor=none;strokeColor=default;fontFamily=Times New Roman;fontSize=16;" parent="1" source="zerdK9Y146wEplPBOKZd-122" target="zerdK9Y146wEplPBOKZd-122" edge="1">
          <mxGeometry width="50" height="50" relative="1" as="geometry">
            <mxPoint x="789.75" y="141" as="sourcePoint" />
            <mxPoint x="814.75" y="116" as="targetPoint" />
          </mxGeometry>
        </mxCell>
        <mxCell id="zerdK9Y146wEplPBOKZd-125" value="" style="endArrow=none;html=1;rounded=0;exitX=0.5;exitY=0;exitDx=0;exitDy=0;entryX=0.5;entryY=1;entryDx=0;entryDy=0;labelBackgroundColor=none;strokeColor=default;fontFamily=Times New Roman;fontSize=16;" parent="1" source="zerdK9Y146wEplPBOKZd-122" target="zerdK9Y146wEplPBOKZd-122" edge="1">
          <mxGeometry width="50" height="50" relative="1" as="geometry">
            <mxPoint x="789.75" y="141" as="sourcePoint" />
            <mxPoint x="814.75" y="116" as="targetPoint" />
          </mxGeometry>
        </mxCell>
        <mxCell id="zerdK9Y146wEplPBOKZd-126" value="" style="endArrow=none;html=1;rounded=0;exitX=1;exitY=0;exitDx=0;exitDy=0;entryX=0;entryY=1;entryDx=0;entryDy=0;labelBackgroundColor=none;strokeColor=default;fontFamily=Times New Roman;fontSize=16;" parent="1" source="zerdK9Y146wEplPBOKZd-122" target="zerdK9Y146wEplPBOKZd-122" edge="1">
          <mxGeometry width="50" height="50" relative="1" as="geometry">
            <mxPoint x="794.75" y="146" as="sourcePoint" />
            <mxPoint x="819.75" y="121" as="targetPoint" />
          </mxGeometry>
        </mxCell>
        <mxCell id="zerdK9Y146wEplPBOKZd-127" value="Ring" style="ellipse;whiteSpace=wrap;html=1;aspect=fixed;labelBackgroundColor=none;fontStyle=0;fontFamily=Times New Roman;fontSize=15;" parent="1" vertex="1">
          <mxGeometry x="714" y="201" width="40" height="40" as="geometry" />
        </mxCell>
        <mxCell id="zerdK9Y146wEplPBOKZd-111" value="" style="ellipse;whiteSpace=wrap;html=1;aspect=fixed;fillColor=#cce5ff;strokeColor=#36393d;labelBackgroundColor=none;fontFamily=Times New Roman;fontSize=16;" parent="1" vertex="1">
          <mxGeometry x="640" y="189" width="60" height="60" as="geometry" />
        </mxCell>
        <mxCell id="zerdK9Y146wEplPBOKZd-112" value="" style="endArrow=none;html=1;rounded=0;exitX=0;exitY=0;exitDx=0;exitDy=0;entryX=1;entryY=1;entryDx=0;entryDy=0;labelBackgroundColor=none;strokeColor=default;fontFamily=Times New Roman;fontSize=16;" parent="1" source="zerdK9Y146wEplPBOKZd-111" target="zerdK9Y146wEplPBOKZd-111" edge="1">
          <mxGeometry width="50" height="50" relative="1" as="geometry">
            <mxPoint x="720.75" y="134" as="sourcePoint" />
            <mxPoint x="745.75" y="109" as="targetPoint" />
          </mxGeometry>
        </mxCell>
        <mxCell id="zerdK9Y146wEplPBOKZd-113" value="" style="endArrow=none;html=1;rounded=0;exitX=0;exitY=0.5;exitDx=0;exitDy=0;entryX=1;entryY=0.5;entryDx=0;entryDy=0;labelBackgroundColor=none;strokeColor=default;fontFamily=Times New Roman;fontSize=16;" parent="1" source="zerdK9Y146wEplPBOKZd-111" target="zerdK9Y146wEplPBOKZd-111" edge="1">
          <mxGeometry width="50" height="50" relative="1" as="geometry">
            <mxPoint x="725.75" y="139" as="sourcePoint" />
            <mxPoint x="750.75" y="114" as="targetPoint" />
          </mxGeometry>
        </mxCell>
        <mxCell id="zerdK9Y146wEplPBOKZd-114" value="" style="endArrow=none;html=1;rounded=0;exitX=0.5;exitY=0;exitDx=0;exitDy=0;entryX=0.5;entryY=1;entryDx=0;entryDy=0;labelBackgroundColor=none;strokeColor=default;fontFamily=Times New Roman;fontSize=16;" parent="1" source="zerdK9Y146wEplPBOKZd-111" target="zerdK9Y146wEplPBOKZd-111" edge="1">
          <mxGeometry width="50" height="50" relative="1" as="geometry">
            <mxPoint x="725.75" y="139" as="sourcePoint" />
            <mxPoint x="750.75" y="114" as="targetPoint" />
          </mxGeometry>
        </mxCell>
        <mxCell id="zerdK9Y146wEplPBOKZd-115" value="" style="endArrow=none;html=1;rounded=0;exitX=1;exitY=0;exitDx=0;exitDy=0;entryX=0;entryY=1;entryDx=0;entryDy=0;labelBackgroundColor=none;strokeColor=default;fontFamily=Times New Roman;fontSize=16;" parent="1" source="zerdK9Y146wEplPBOKZd-111" target="zerdK9Y146wEplPBOKZd-111" edge="1">
          <mxGeometry width="50" height="50" relative="1" as="geometry">
            <mxPoint x="730.75" y="144" as="sourcePoint" />
            <mxPoint x="755.75" y="119" as="targetPoint" />
          </mxGeometry>
        </mxCell>
        <mxCell id="zerdK9Y146wEplPBOKZd-116" value="Ring" style="ellipse;whiteSpace=wrap;html=1;aspect=fixed;labelBackgroundColor=none;fontStyle=0;fontFamily=Times New Roman;fontSize=15;" parent="1" vertex="1">
          <mxGeometry x="650" y="199" width="40" height="40" as="geometry" />
        </mxCell>
        <mxCell id="zerdK9Y146wEplPBOKZd-31" value="" style="ellipse;whiteSpace=wrap;html=1;aspect=fixed;fillColor=#cce5ff;strokeColor=#36393d;labelBackgroundColor=none;fontFamily=Times New Roman;fontSize=16;" parent="1" vertex="1">
          <mxGeometry x="565" y="191" width="60" height="60" as="geometry" />
        </mxCell>
        <mxCell id="zerdK9Y146wEplPBOKZd-32" value="" style="endArrow=none;html=1;rounded=0;exitX=0;exitY=0;exitDx=0;exitDy=0;entryX=1;entryY=1;entryDx=0;entryDy=0;labelBackgroundColor=none;strokeColor=default;fontFamily=Times New Roman;fontSize=16;" parent="1" source="zerdK9Y146wEplPBOKZd-31" target="zerdK9Y146wEplPBOKZd-31" edge="1">
          <mxGeometry width="50" height="50" relative="1" as="geometry">
            <mxPoint x="645.75" y="136" as="sourcePoint" />
            <mxPoint x="670.75" y="111" as="targetPoint" />
          </mxGeometry>
        </mxCell>
        <mxCell id="zerdK9Y146wEplPBOKZd-33" value="" style="endArrow=none;html=1;rounded=0;exitX=0;exitY=0.5;exitDx=0;exitDy=0;entryX=1;entryY=0.5;entryDx=0;entryDy=0;labelBackgroundColor=none;strokeColor=default;fontFamily=Times New Roman;fontSize=16;" parent="1" source="zerdK9Y146wEplPBOKZd-31" target="zerdK9Y146wEplPBOKZd-31" edge="1">
          <mxGeometry width="50" height="50" relative="1" as="geometry">
            <mxPoint x="650.75" y="141" as="sourcePoint" />
            <mxPoint x="675.75" y="116" as="targetPoint" />
          </mxGeometry>
        </mxCell>
        <mxCell id="zerdK9Y146wEplPBOKZd-34" value="" style="endArrow=none;html=1;rounded=0;exitX=0.5;exitY=0;exitDx=0;exitDy=0;entryX=0.5;entryY=1;entryDx=0;entryDy=0;labelBackgroundColor=none;strokeColor=default;fontFamily=Times New Roman;fontSize=16;" parent="1" source="zerdK9Y146wEplPBOKZd-31" target="zerdK9Y146wEplPBOKZd-31" edge="1">
          <mxGeometry width="50" height="50" relative="1" as="geometry">
            <mxPoint x="650.75" y="141" as="sourcePoint" />
            <mxPoint x="675.75" y="116" as="targetPoint" />
          </mxGeometry>
        </mxCell>
        <mxCell id="zerdK9Y146wEplPBOKZd-35" value="" style="endArrow=none;html=1;rounded=0;exitX=1;exitY=0;exitDx=0;exitDy=0;entryX=0;entryY=1;entryDx=0;entryDy=0;labelBackgroundColor=none;strokeColor=default;fontFamily=Times New Roman;fontSize=16;" parent="1" source="zerdK9Y146wEplPBOKZd-31" target="zerdK9Y146wEplPBOKZd-31" edge="1">
          <mxGeometry width="50" height="50" relative="1" as="geometry">
            <mxPoint x="655.75" y="146" as="sourcePoint" />
            <mxPoint x="680.75" y="121" as="targetPoint" />
          </mxGeometry>
        </mxCell>
        <mxCell id="zerdK9Y146wEplPBOKZd-36" value="Ring" style="ellipse;whiteSpace=wrap;html=1;aspect=fixed;labelBackgroundColor=none;fontStyle=0;fontFamily=Times New Roman;fontSize=15;" parent="1" vertex="1">
          <mxGeometry x="575" y="201" width="40" height="40" as="geometry" />
        </mxCell>
        <mxCell id="zerdK9Y146wEplPBOKZd-24" value="" style="ellipse;whiteSpace=wrap;html=1;aspect=fixed;fillColor=#cce5ff;strokeColor=#36393d;labelBackgroundColor=none;fontFamily=Times New Roman;fontSize=16;" parent="1" vertex="1">
          <mxGeometry x="500" y="191" width="60" height="60" as="geometry" />
        </mxCell>
        <mxCell id="zerdK9Y146wEplPBOKZd-25" value="" style="endArrow=none;html=1;rounded=0;exitX=0;exitY=0;exitDx=0;exitDy=0;entryX=1;entryY=1;entryDx=0;entryDy=0;labelBackgroundColor=none;strokeColor=default;fontFamily=Times New Roman;fontSize=16;" parent="1" source="zerdK9Y146wEplPBOKZd-24" target="zerdK9Y146wEplPBOKZd-24" edge="1">
          <mxGeometry width="50" height="50" relative="1" as="geometry">
            <mxPoint x="580.75" y="136" as="sourcePoint" />
            <mxPoint x="605.75" y="111" as="targetPoint" />
          </mxGeometry>
        </mxCell>
        <mxCell id="zerdK9Y146wEplPBOKZd-26" value="" style="endArrow=none;html=1;rounded=0;exitX=0;exitY=0.5;exitDx=0;exitDy=0;entryX=1;entryY=0.5;entryDx=0;entryDy=0;labelBackgroundColor=none;strokeColor=default;fontFamily=Times New Roman;fontSize=16;" parent="1" source="zerdK9Y146wEplPBOKZd-24" target="zerdK9Y146wEplPBOKZd-24" edge="1">
          <mxGeometry width="50" height="50" relative="1" as="geometry">
            <mxPoint x="585.75" y="141" as="sourcePoint" />
            <mxPoint x="610.75" y="116" as="targetPoint" />
          </mxGeometry>
        </mxCell>
        <mxCell id="zerdK9Y146wEplPBOKZd-27" value="" style="endArrow=none;html=1;rounded=0;exitX=0.5;exitY=0;exitDx=0;exitDy=0;entryX=0.5;entryY=1;entryDx=0;entryDy=0;labelBackgroundColor=none;strokeColor=default;fontFamily=Times New Roman;fontSize=16;" parent="1" source="zerdK9Y146wEplPBOKZd-24" target="zerdK9Y146wEplPBOKZd-24" edge="1">
          <mxGeometry width="50" height="50" relative="1" as="geometry">
            <mxPoint x="585.75" y="141" as="sourcePoint" />
            <mxPoint x="610.75" y="116" as="targetPoint" />
          </mxGeometry>
        </mxCell>
        <mxCell id="zerdK9Y146wEplPBOKZd-28" value="" style="endArrow=none;html=1;rounded=0;exitX=1;exitY=0;exitDx=0;exitDy=0;entryX=0;entryY=1;entryDx=0;entryDy=0;labelBackgroundColor=none;strokeColor=default;fontFamily=Times New Roman;fontSize=16;" parent="1" source="zerdK9Y146wEplPBOKZd-24" target="zerdK9Y146wEplPBOKZd-24" edge="1">
          <mxGeometry width="50" height="50" relative="1" as="geometry">
            <mxPoint x="590.75" y="146" as="sourcePoint" />
            <mxPoint x="615.75" y="121" as="targetPoint" />
          </mxGeometry>
        </mxCell>
        <mxCell id="zerdK9Y146wEplPBOKZd-29" value="Ring" style="ellipse;whiteSpace=wrap;html=1;aspect=fixed;labelBackgroundColor=none;fontStyle=0;fontFamily=Times New Roman;fontSize=15;" parent="1" vertex="1">
          <mxGeometry x="510" y="201" width="40" height="40" as="geometry" />
        </mxCell>
        <mxCell id="zerdK9Y146wEplPBOKZd-6" value="" style="ellipse;whiteSpace=wrap;html=1;aspect=fixed;fillColor=#cce5ff;strokeColor=#36393d;labelBackgroundColor=none;fontFamily=Times New Roman;fontSize=16;" parent="1" vertex="1">
          <mxGeometry x="372" y="189" width="60" height="60" as="geometry" />
        </mxCell>
        <mxCell id="zerdK9Y146wEplPBOKZd-7" value="" style="endArrow=none;html=1;rounded=0;exitX=0;exitY=0;exitDx=0;exitDy=0;entryX=1;entryY=1;entryDx=0;entryDy=0;labelBackgroundColor=none;strokeColor=default;fontFamily=Times New Roman;fontSize=16;" parent="1" source="zerdK9Y146wEplPBOKZd-6" target="zerdK9Y146wEplPBOKZd-6" edge="1">
          <mxGeometry width="50" height="50" relative="1" as="geometry">
            <mxPoint x="452.75" y="134" as="sourcePoint" />
            <mxPoint x="477.75" y="109" as="targetPoint" />
          </mxGeometry>
        </mxCell>
        <mxCell id="zerdK9Y146wEplPBOKZd-8" value="" style="endArrow=none;html=1;rounded=0;exitX=0;exitY=0.5;exitDx=0;exitDy=0;entryX=1;entryY=0.5;entryDx=0;entryDy=0;labelBackgroundColor=none;strokeColor=default;fontFamily=Times New Roman;fontSize=16;" parent="1" source="zerdK9Y146wEplPBOKZd-6" target="zerdK9Y146wEplPBOKZd-6" edge="1">
          <mxGeometry width="50" height="50" relative="1" as="geometry">
            <mxPoint x="457.75" y="139" as="sourcePoint" />
            <mxPoint x="482.75" y="114" as="targetPoint" />
          </mxGeometry>
        </mxCell>
        <mxCell id="zerdK9Y146wEplPBOKZd-9" value="" style="endArrow=none;html=1;rounded=0;exitX=0.5;exitY=0;exitDx=0;exitDy=0;entryX=0.5;entryY=1;entryDx=0;entryDy=0;labelBackgroundColor=none;strokeColor=default;fontFamily=Times New Roman;fontSize=16;" parent="1" source="zerdK9Y146wEplPBOKZd-6" target="zerdK9Y146wEplPBOKZd-6" edge="1">
          <mxGeometry width="50" height="50" relative="1" as="geometry">
            <mxPoint x="457.75" y="139" as="sourcePoint" />
            <mxPoint x="482.75" y="114" as="targetPoint" />
          </mxGeometry>
        </mxCell>
        <mxCell id="zerdK9Y146wEplPBOKZd-10" value="" style="endArrow=none;html=1;rounded=0;exitX=1;exitY=0;exitDx=0;exitDy=0;entryX=0;entryY=1;entryDx=0;entryDy=0;labelBackgroundColor=none;strokeColor=default;fontFamily=Times New Roman;fontSize=16;" parent="1" source="zerdK9Y146wEplPBOKZd-6" target="zerdK9Y146wEplPBOKZd-6" edge="1">
          <mxGeometry width="50" height="50" relative="1" as="geometry">
            <mxPoint x="462.75" y="144" as="sourcePoint" />
            <mxPoint x="487.75" y="119" as="targetPoint" />
          </mxGeometry>
        </mxCell>
        <mxCell id="zerdK9Y146wEplPBOKZd-11" value="Ring" style="ellipse;whiteSpace=wrap;html=1;aspect=fixed;labelBackgroundColor=none;fontStyle=0;fontFamily=Times New Roman;fontSize=15;" parent="1" vertex="1">
          <mxGeometry x="382" y="199" width="40" height="40" as="geometry" />
        </mxCell>
        <mxCell id="xvqoxpchI7VGtEHndukc-66" value="" style="ellipse;whiteSpace=wrap;html=1;aspect=fixed;fillColor=#cce5ff;strokeColor=#36393d;labelBackgroundColor=none;fontFamily=Times New Roman;fontSize=16;" parent="1" vertex="1">
          <mxGeometry x="279" y="186" width="60" height="60" as="geometry" />
        </mxCell>
        <mxCell id="xvqoxpchI7VGtEHndukc-67" value="" style="endArrow=none;html=1;rounded=0;exitX=0;exitY=0;exitDx=0;exitDy=0;entryX=1;entryY=1;entryDx=0;entryDy=0;labelBackgroundColor=none;strokeColor=default;fontFamily=Times New Roman;fontSize=16;" parent="1" source="xvqoxpchI7VGtEHndukc-66" target="xvqoxpchI7VGtEHndukc-66" edge="1">
          <mxGeometry width="50" height="50" relative="1" as="geometry">
            <mxPoint x="359.75" y="131" as="sourcePoint" />
            <mxPoint x="384.75" y="106" as="targetPoint" />
          </mxGeometry>
        </mxCell>
        <mxCell id="xvqoxpchI7VGtEHndukc-68" value="" style="endArrow=none;html=1;rounded=0;exitX=0;exitY=0.5;exitDx=0;exitDy=0;entryX=1;entryY=0.5;entryDx=0;entryDy=0;labelBackgroundColor=none;strokeColor=default;fontFamily=Times New Roman;fontSize=16;" parent="1" source="xvqoxpchI7VGtEHndukc-66" target="xvqoxpchI7VGtEHndukc-66" edge="1">
          <mxGeometry width="50" height="50" relative="1" as="geometry">
            <mxPoint x="364.75" y="136" as="sourcePoint" />
            <mxPoint x="389.75" y="111" as="targetPoint" />
          </mxGeometry>
        </mxCell>
        <mxCell id="xvqoxpchI7VGtEHndukc-69" value="" style="endArrow=none;html=1;rounded=0;exitX=0.5;exitY=0;exitDx=0;exitDy=0;entryX=0.5;entryY=1;entryDx=0;entryDy=0;labelBackgroundColor=none;strokeColor=default;fontFamily=Times New Roman;fontSize=16;" parent="1" source="xvqoxpchI7VGtEHndukc-66" target="xvqoxpchI7VGtEHndukc-66" edge="1">
          <mxGeometry width="50" height="50" relative="1" as="geometry">
            <mxPoint x="364.75" y="136" as="sourcePoint" />
            <mxPoint x="389.75" y="111" as="targetPoint" />
          </mxGeometry>
        </mxCell>
        <mxCell id="xvqoxpchI7VGtEHndukc-70" value="" style="endArrow=none;html=1;rounded=0;exitX=1;exitY=0;exitDx=0;exitDy=0;entryX=0;entryY=1;entryDx=0;entryDy=0;labelBackgroundColor=none;strokeColor=default;fontFamily=Times New Roman;fontSize=16;" parent="1" source="xvqoxpchI7VGtEHndukc-66" target="xvqoxpchI7VGtEHndukc-66" edge="1">
          <mxGeometry width="50" height="50" relative="1" as="geometry">
            <mxPoint x="369.75" y="141" as="sourcePoint" />
            <mxPoint x="394.75" y="116" as="targetPoint" />
          </mxGeometry>
        </mxCell>
        <mxCell id="xvqoxpchI7VGtEHndukc-71" value="Ring" style="ellipse;whiteSpace=wrap;html=1;aspect=fixed;labelBackgroundColor=none;fontStyle=0;fontFamily=Times New Roman;fontSize=15;" parent="1" vertex="1">
          <mxGeometry x="289" y="196" width="40" height="40" as="geometry" />
        </mxCell>
        <mxCell id="xvqoxpchI7VGtEHndukc-59" value="" style="ellipse;whiteSpace=wrap;html=1;aspect=fixed;fillColor=#cce5ff;strokeColor=#36393d;labelBackgroundColor=none;fontFamily=Times New Roman;fontSize=16;" parent="1" vertex="1">
          <mxGeometry x="214" y="186" width="60" height="60" as="geometry" />
        </mxCell>
        <mxCell id="xvqoxpchI7VGtEHndukc-60" value="" style="endArrow=none;html=1;rounded=0;exitX=0;exitY=0;exitDx=0;exitDy=0;entryX=1;entryY=1;entryDx=0;entryDy=0;labelBackgroundColor=none;strokeColor=default;fontFamily=Times New Roman;fontSize=16;" parent="1" source="xvqoxpchI7VGtEHndukc-59" target="xvqoxpchI7VGtEHndukc-59" edge="1">
          <mxGeometry width="50" height="50" relative="1" as="geometry">
            <mxPoint x="294.75" y="131" as="sourcePoint" />
            <mxPoint x="319.75" y="106" as="targetPoint" />
          </mxGeometry>
        </mxCell>
        <mxCell id="xvqoxpchI7VGtEHndukc-61" value="" style="endArrow=none;html=1;rounded=0;exitX=0;exitY=0.5;exitDx=0;exitDy=0;entryX=1;entryY=0.5;entryDx=0;entryDy=0;labelBackgroundColor=none;strokeColor=default;fontFamily=Times New Roman;fontSize=16;" parent="1" source="xvqoxpchI7VGtEHndukc-59" target="xvqoxpchI7VGtEHndukc-59" edge="1">
          <mxGeometry width="50" height="50" relative="1" as="geometry">
            <mxPoint x="299.75" y="136" as="sourcePoint" />
            <mxPoint x="324.75" y="111" as="targetPoint" />
          </mxGeometry>
        </mxCell>
        <mxCell id="xvqoxpchI7VGtEHndukc-62" value="" style="endArrow=none;html=1;rounded=0;exitX=0.5;exitY=0;exitDx=0;exitDy=0;entryX=0.5;entryY=1;entryDx=0;entryDy=0;labelBackgroundColor=none;strokeColor=default;fontFamily=Times New Roman;fontSize=16;" parent="1" source="xvqoxpchI7VGtEHndukc-59" target="xvqoxpchI7VGtEHndukc-59" edge="1">
          <mxGeometry width="50" height="50" relative="1" as="geometry">
            <mxPoint x="299.75" y="136" as="sourcePoint" />
            <mxPoint x="324.75" y="111" as="targetPoint" />
          </mxGeometry>
        </mxCell>
        <mxCell id="xvqoxpchI7VGtEHndukc-63" value="" style="endArrow=none;html=1;rounded=0;exitX=1;exitY=0;exitDx=0;exitDy=0;entryX=0;entryY=1;entryDx=0;entryDy=0;labelBackgroundColor=none;strokeColor=default;fontFamily=Times New Roman;fontSize=16;" parent="1" source="xvqoxpchI7VGtEHndukc-59" target="xvqoxpchI7VGtEHndukc-59" edge="1">
          <mxGeometry width="50" height="50" relative="1" as="geometry">
            <mxPoint x="304.75" y="141" as="sourcePoint" />
            <mxPoint x="329.75" y="116" as="targetPoint" />
          </mxGeometry>
        </mxCell>
        <mxCell id="xvqoxpchI7VGtEHndukc-64" value="Ring" style="ellipse;whiteSpace=wrap;html=1;aspect=fixed;labelBackgroundColor=none;fontStyle=0;fontFamily=Times New Roman;fontSize=15;" parent="1" vertex="1">
          <mxGeometry x="224" y="196" width="40" height="40" as="geometry" />
        </mxCell>
        <mxCell id="xvqoxpchI7VGtEHndukc-52" value="" style="ellipse;whiteSpace=wrap;html=1;aspect=fixed;fillColor=#cce5ff;strokeColor=#36393d;labelBackgroundColor=none;fontFamily=Times New Roman;fontSize=16;" parent="1" vertex="1">
          <mxGeometry x="150" y="186" width="60" height="60" as="geometry" />
        </mxCell>
        <mxCell id="xvqoxpchI7VGtEHndukc-53" value="" style="endArrow=none;html=1;rounded=0;exitX=0;exitY=0;exitDx=0;exitDy=0;entryX=1;entryY=1;entryDx=0;entryDy=0;labelBackgroundColor=none;strokeColor=default;fontFamily=Times New Roman;fontSize=16;" parent="1" source="xvqoxpchI7VGtEHndukc-52" target="xvqoxpchI7VGtEHndukc-52" edge="1">
          <mxGeometry width="50" height="50" relative="1" as="geometry">
            <mxPoint x="230.75" y="131" as="sourcePoint" />
            <mxPoint x="255.75" y="106" as="targetPoint" />
          </mxGeometry>
        </mxCell>
        <mxCell id="xvqoxpchI7VGtEHndukc-54" value="" style="endArrow=none;html=1;rounded=0;exitX=0;exitY=0.5;exitDx=0;exitDy=0;entryX=1;entryY=0.5;entryDx=0;entryDy=0;labelBackgroundColor=none;strokeColor=default;fontFamily=Times New Roman;fontSize=16;" parent="1" source="xvqoxpchI7VGtEHndukc-52" target="xvqoxpchI7VGtEHndukc-52" edge="1">
          <mxGeometry width="50" height="50" relative="1" as="geometry">
            <mxPoint x="235.75" y="136" as="sourcePoint" />
            <mxPoint x="260.75" y="111" as="targetPoint" />
          </mxGeometry>
        </mxCell>
        <mxCell id="xvqoxpchI7VGtEHndukc-55" value="" style="endArrow=none;html=1;rounded=0;exitX=0.5;exitY=0;exitDx=0;exitDy=0;entryX=0.5;entryY=1;entryDx=0;entryDy=0;labelBackgroundColor=none;strokeColor=default;fontFamily=Times New Roman;fontSize=16;" parent="1" source="xvqoxpchI7VGtEHndukc-52" target="xvqoxpchI7VGtEHndukc-52" edge="1">
          <mxGeometry width="50" height="50" relative="1" as="geometry">
            <mxPoint x="235.75" y="136" as="sourcePoint" />
            <mxPoint x="260.75" y="111" as="targetPoint" />
          </mxGeometry>
        </mxCell>
        <mxCell id="xvqoxpchI7VGtEHndukc-56" value="" style="endArrow=none;html=1;rounded=0;exitX=1;exitY=0;exitDx=0;exitDy=0;entryX=0;entryY=1;entryDx=0;entryDy=0;labelBackgroundColor=none;strokeColor=default;fontFamily=Times New Roman;fontSize=16;" parent="1" source="xvqoxpchI7VGtEHndukc-52" target="xvqoxpchI7VGtEHndukc-52" edge="1">
          <mxGeometry width="50" height="50" relative="1" as="geometry">
            <mxPoint x="240.75" y="141" as="sourcePoint" />
            <mxPoint x="265.75" y="116" as="targetPoint" />
          </mxGeometry>
        </mxCell>
        <mxCell id="xvqoxpchI7VGtEHndukc-57" value="Ring" style="ellipse;whiteSpace=wrap;html=1;aspect=fixed;labelBackgroundColor=none;fontStyle=0;fontFamily=Times New Roman;fontSize=15;" parent="1" vertex="1">
          <mxGeometry x="160" y="196" width="40" height="40" as="geometry" />
        </mxCell>
        <mxCell id="xYaOyHjTQBVb4mygO7eJ-5" style="rounded=0;orthogonalLoop=1;jettySize=auto;html=1;entryX=0.468;entryY=1.005;entryDx=0;entryDy=0;entryPerimeter=0;fontFamily=Times New Roman;fontSize=16;exitX=0.75;exitY=0;exitDx=0;exitDy=0;" edge="1" parent="1" source="xvqoxpchI7VGtEHndukc-23">
          <mxGeometry relative="1" as="geometry">
            <mxPoint x="192.12000000000012" y="78.15000000000009" as="targetPoint" />
            <mxPoint x="740" y="107" as="sourcePoint" />
          </mxGeometry>
        </mxCell>
        <mxCell id="xvqoxpchI7VGtEHndukc-23" value="" style="rounded=0;whiteSpace=wrap;html=1;fillColor=none;strokeColor=#00994D;strokeWidth=3;fontFamily=Times New Roman;fontSize=16;" parent="1" vertex="1">
          <mxGeometry x="95" y="92.5" width="80" height="52.5" as="geometry" />
        </mxCell>
        <mxCell id="zerdK9Y146wEplPBOKZd-44" value="" style="rounded=0;whiteSpace=wrap;html=1;fillColor=none;strokeColor=#00994D;strokeWidth=3;fontFamily=Times New Roman;fontSize=16;" parent="1" vertex="1">
          <mxGeometry x="382" y="99" width="40" height="50" as="geometry" />
        </mxCell>
        <mxCell id="zerdK9Y146wEplPBOKZd-149" value="" style="rounded=0;whiteSpace=wrap;html=1;fillColor=none;strokeColor=#00994D;strokeWidth=3;fontFamily=Times New Roman;fontSize=16;" parent="1" vertex="1">
          <mxGeometry x="650" y="97" width="80" height="55" as="geometry" />
        </mxCell>
        <mxCell id="YPoUedS7VCXhMuRAOcU2-1" value="&lt;span style=&quot;font-family: &amp;quot;Times New Roman&amp;quot;; font-size: 15px; text-wrap-mode: nowrap;&quot;&gt;Count&lt;/span&gt;&lt;span style=&quot;font-family: &amp;quot;Times New Roman&amp;quot;; font-size: 15px; text-wrap-mode: nowrap;&quot;&gt;&amp;nbsp;2&lt;/span&gt;" style="text;html=1;align=center;verticalAlign=middle;whiteSpace=wrap;rounded=0;" vertex="1" parent="1">
          <mxGeometry x="839.5" y="162" width="45" height="23" as="geometry" />
        </mxCell>
        <mxCell id="YPoUedS7VCXhMuRAOcU2-2" value="&lt;span style=&quot;font-family: &amp;quot;Times New Roman&amp;quot;; font-size: 19px; font-weight: 700; text-wrap-mode: nowrap;&quot;&gt;Sliding&lt;/span&gt;&lt;div style=&quot;font-family: &amp;quot;Times New Roman&amp;quot;; font-size: 19px; font-weight: 700; text-wrap-mode: nowrap;&quot;&gt;Window&lt;/div&gt;" style="text;html=1;align=center;verticalAlign=middle;whiteSpace=wrap;rounded=0;" vertex="1" parent="1">
          <mxGeometry x="24.5" y="109" width="45" height="23" as="geometry" />
        </mxCell>
        <mxCell id="Q84VVGSoqGMASzqERKgj-1" value="Ring Utilization" style="text;whiteSpace=wrap;html=1;fontSize=19;fontStyle=1;fontFamily=Times New Roman;align=center;" vertex="1" parent="1">
          <mxGeometry x="18.5" y="184" width="50" height="40" as="geometry" />
        </mxCell>
        <mxCell id="Q84VVGSoqGMASzqERKgj-2" value="&lt;font style=&quot;font-size: 16px;&quot; face=&quot;Times New Roman&quot;&gt;&lt;span style=&quot;text-wrap-mode: nowrap;&quot;&gt;&lt;span style=&quot;&quot;&gt;Dequeue 108&lt;/span&gt;&lt;/span&gt;&lt;/font&gt;" style="text;html=1;align=center;verticalAlign=middle;whiteSpace=wrap;rounded=0;fontStyle=0" vertex="1" parent="1">
          <mxGeometry x="140" y="2" width="108" height="14" as="geometry" />
        </mxCell>
        <mxCell id="Q84VVGSoqGMASzqERKgj-4" value="&lt;font style=&quot;font-size: 16px;&quot; face=&quot;Times New Roman&quot;&gt;&lt;span style=&quot;text-wrap-mode: nowrap;&quot;&gt;&lt;span style=&quot;&quot;&gt;Dequeue 200&lt;/span&gt;&lt;/span&gt;&lt;/font&gt;" style="text;html=1;align=center;verticalAlign=middle;whiteSpace=wrap;rounded=0;fontStyle=0" vertex="1" parent="1">
          <mxGeometry x="356" y="2" width="111.5" height="14" as="geometry" />
        </mxCell>
        <mxCell id="Q84VVGSoqGMASzqERKgj-5" value="&lt;font style=&quot;font-size: 16px;&quot; face=&quot;Times New Roman&quot;&gt;&lt;span style=&quot;text-wrap-mode: nowrap;&quot;&gt;&lt;span style=&quot;&quot;&gt;Dequeue 8&lt;/span&gt;&lt;/span&gt;&lt;/font&gt;" style="text;html=1;align=center;verticalAlign=middle;whiteSpace=wrap;rounded=0;fontStyle=0" vertex="1" parent="1">
          <mxGeometry x="698.5" y="2" width="103" height="14" as="geometry" />
        </mxCell>
        <mxCell id="Q84VVGSoqGMASzqERKgj-6" value="Ring &lt;br&gt;DEqueue" style="text;whiteSpace=wrap;html=1;fontSize=19;fontStyle=1;fontFamily=Times New Roman;align=center;" vertex="1" parent="1">
          <mxGeometry x="22" y="16" width="50" height="40" as="geometry" />
        </mxCell>
      </root>
    </mxGraphModel>
  </diagram>
  <diagram name="第 6 页" id="UKjmyrWSxOc8WPlwde7T">
    <mxGraphModel dx="693" dy="443" grid="1" gridSize="10" guides="1" tooltips="1" connect="1" arrows="1" fold="1" page="1" pageScale="1" pageWidth="307" pageHeight="213" math="0" shadow="0">
      <root>
        <mxCell id="0" />
        <mxCell id="1" parent="0" />
        <mxCell id="xP7cv4r889qd4yVgHw09-1" value="" style="rounded=0;whiteSpace=wrap;html=1;container=0;fontFamily=Times New Roman;" parent="1" vertex="1">
          <mxGeometry x="3" y="50" width="300" height="142" as="geometry" />
        </mxCell>
        <mxCell id="iglyDxRZfnVRwTWU5ohg-8" value="PCIe&lt;div&gt;Switch&lt;/div&gt;" style="rounded=0;whiteSpace=wrap;html=1;fillColor=#f9f7ed;strokeColor=#36393d;container=0;fontFamily=Times New Roman;" parent="1" vertex="1">
          <mxGeometry x="15" y="74.5" width="40" height="100" as="geometry" />
        </mxCell>
        <mxCell id="xP7cv4r889qd4yVgHw09-2" value="" style="edgeStyle=orthogonalEdgeStyle;rounded=0;orthogonalLoop=1;jettySize=auto;html=1;fontFamily=Times New Roman;" parent="1" source="xP7cv4r889qd4yVgHw09-3" edge="1">
          <mxGeometry relative="1" as="geometry">
            <mxPoint x="157" y="114" as="targetPoint" />
          </mxGeometry>
        </mxCell>
        <mxCell id="xP7cv4r889qd4yVgHw09-3" value="eSwitch" style="rounded=0;whiteSpace=wrap;html=1;fillColor=#cce5ff;strokeColor=#36393d;container=0;fontFamily=Times New Roman;" parent="1" vertex="1">
          <mxGeometry x="63" y="132" width="231.25" height="50" as="geometry" />
        </mxCell>
        <mxCell id="xP7cv4r889qd4yVgHw09-4" value="ARM" style="rounded=0;whiteSpace=wrap;html=1;horizontal=1;verticalAlign=top;fillColor=#B9E0A5;strokeColor=#36393d;container=0;fontFamily=Times New Roman;" parent="1" vertex="1">
          <mxGeometry x="72" y="62" width="121" height="60" as="geometry" />
        </mxCell>
        <mxCell id="xP7cv4r889qd4yVgHw09-5" value="RAM" style="rounded=0;whiteSpace=wrap;html=1;fillColor=#FFF2CC;strokeColor=#080808;container=0;fontFamily=Times New Roman;" parent="1" vertex="1">
          <mxGeometry x="213" y="62" width="81.25" height="30" as="geometry" />
        </mxCell>
        <mxCell id="xP7cv4r889qd4yVgHw09-6" value="Accelerator&amp;nbsp;" style="rounded=0;whiteSpace=wrap;html=1;fillColor=#FFF2CC;strokeColor=#080808;container=0;fontFamily=Times New Roman;" parent="1" vertex="1">
          <mxGeometry x="213" y="92" width="81.25" height="30" as="geometry" />
        </mxCell>
        <mxCell id="xP7cv4r889qd4yVgHw09-8" value="Core" style="rounded=0;whiteSpace=wrap;html=1;fontSize=8;labelBackgroundColor=none;strokeColor=#080808;fillColor=#dae8fc;container=0;fontFamily=Times New Roman;" parent="1" vertex="1">
          <mxGeometry x="93" y="92" width="20" height="20" as="geometry" />
        </mxCell>
        <mxCell id="xP7cv4r889qd4yVgHw09-11" value="HOST" style="rounded=0;whiteSpace=wrap;html=1;container=0;fontFamily=Times New Roman;" parent="1" vertex="1">
          <mxGeometry x="3" width="300" height="30" as="geometry" />
        </mxCell>
        <mxCell id="xP7cv4r889qd4yVgHw09-12" value="" style="shape=flexArrow;endArrow=classic;startArrow=classic;html=1;rounded=0;startWidth=8.571428571428571;startSize=2.954285714285714;endWidth=8.571428571428571;endSize=2.954285714285714;width=4.761904761904762;fillColor=default;fontFamily=Times New Roman;" parent="1" edge="1">
          <mxGeometry width="100" height="100" relative="1" as="geometry">
            <mxPoint x="182" y="91.75999999999999" as="sourcePoint" />
            <mxPoint x="222" y="91.75999999999999" as="targetPoint" />
          </mxGeometry>
        </mxCell>
        <mxCell id="xP7cv4r889qd4yVgHw09-13" value="" style="shape=flexArrow;endArrow=classic;startArrow=classic;html=1;rounded=0;startWidth=8.571428571428571;startSize=2.954285714285714;endWidth=8.571428571428571;endSize=2.954285714285714;width=4.761904761904762;fillColor=default;fontFamily=Times New Roman;" parent="1" edge="1">
          <mxGeometry width="100" height="100" relative="1" as="geometry">
            <mxPoint x="43" y="92" as="sourcePoint" />
            <mxPoint x="83" y="92" as="targetPoint" />
          </mxGeometry>
        </mxCell>
        <mxCell id="xP7cv4r889qd4yVgHw09-14" value="Receive Side Scaling (RSS)&amp;nbsp;" style="rounded=0;whiteSpace=wrap;html=1;fillColor=#99CCFF;strokeColor=#080808;container=0;fontFamily=Times New Roman;" parent="1" vertex="1">
          <mxGeometry x="203" y="139.5" width="91.25" height="35" as="geometry" />
        </mxCell>
        <mxCell id="xP7cv4r889qd4yVgHw09-15" value="" style="shape=flexArrow;endArrow=classic;startArrow=classic;html=1;rounded=0;startWidth=8.571428571428571;startSize=2.954285714285714;endWidth=8.571428571428571;endSize=2.954285714285714;width=4.761904761904762;fillColor=default;fontFamily=Times New Roman;" parent="1" edge="1">
          <mxGeometry width="100" height="100" relative="1" as="geometry">
            <mxPoint x="178" y="112" as="sourcePoint" />
            <mxPoint x="178" y="142" as="targetPoint" />
          </mxGeometry>
        </mxCell>
        <mxCell id="iglyDxRZfnVRwTWU5ohg-1" value="Core" style="rounded=0;whiteSpace=wrap;html=1;fontSize=8;labelBackgroundColor=none;strokeColor=#080808;fillColor=#dae8fc;container=0;fontFamily=Times New Roman;" parent="1" vertex="1">
          <mxGeometry x="113" y="92" width="20" height="20" as="geometry" />
        </mxCell>
        <mxCell id="iglyDxRZfnVRwTWU5ohg-2" value="..." style="rounded=0;whiteSpace=wrap;html=1;fontSize=8;labelBackgroundColor=none;strokeColor=#080808;fillColor=#dae8fc;container=0;fontFamily=Times New Roman;" parent="1" vertex="1">
          <mxGeometry x="133" y="92" width="20" height="20" as="geometry" />
        </mxCell>
        <mxCell id="iglyDxRZfnVRwTWU5ohg-3" value="Core" style="rounded=0;whiteSpace=wrap;html=1;fontSize=8;labelBackgroundColor=none;strokeColor=#080808;fillColor=#dae8fc;container=0;fontFamily=Times New Roman;" parent="1" vertex="1">
          <mxGeometry x="153" y="92" width="20" height="20" as="geometry" />
        </mxCell>
        <mxCell id="iglyDxRZfnVRwTWU5ohg-4" value="" style="shape=flexArrow;endArrow=classic;startArrow=classic;html=1;rounded=0;startWidth=8.571428571428571;startSize=2.954285714285714;endWidth=8.571428571428571;endSize=2.954285714285714;width=4.761904761904762;fillColor=default;fontFamily=Times New Roman;" parent="1" edge="1">
          <mxGeometry width="100" height="100" relative="1" as="geometry">
            <mxPoint x="233" y="182" as="sourcePoint" />
            <mxPoint x="233" y="212" as="targetPoint" />
          </mxGeometry>
        </mxCell>
        <mxCell id="iglyDxRZfnVRwTWU5ohg-5" value="" style="shape=flexArrow;endArrow=classic;startArrow=classic;html=1;rounded=0;startWidth=8.571428571428571;startSize=2.954285714285714;endWidth=8.571428571428571;endSize=2.954285714285714;width=4.761904761904762;fillColor=default;fontFamily=Times New Roman;" parent="1" edge="1">
          <mxGeometry width="100" height="100" relative="1" as="geometry">
            <mxPoint x="123" y="182" as="sourcePoint" />
            <mxPoint x="123" y="212" as="targetPoint" />
          </mxGeometry>
        </mxCell>
        <mxCell id="iglyDxRZfnVRwTWU5ohg-6" value="&lt;span style=&quot;color: rgb(0, 0, 0); font-family: &amp;quot;Times New Roman&amp;quot;; font-size: 12px; font-style: normal; font-variant-ligatures: normal; font-variant-caps: normal; font-weight: 400; letter-spacing: normal; orphans: 2; text-align: center; text-indent: 0px; text-transform: none; widows: 2; word-spacing: 0px; -webkit-text-stroke-width: 0px; white-space: normal; background-color: rgb(251, 251, 251); text-decoration-thickness: initial; text-decoration-style: initial; text-decoration-color: initial; float: none; display: inline !important;&quot;&gt;RX/TX Ports&lt;/span&gt;" style="text;whiteSpace=wrap;html=1;" parent="1" vertex="1">
          <mxGeometry x="157" y="192" width="70" height="20" as="geometry" />
        </mxCell>
        <mxCell id="iglyDxRZfnVRwTWU5ohg-7" value="" style="shape=flexArrow;endArrow=classic;startArrow=classic;html=1;rounded=0;startWidth=8.571428571428571;startSize=2.954285714285714;endWidth=8.571428571428571;endSize=2.954285714285714;width=4.761904761904762;fillColor=default;fontFamily=Times New Roman;" parent="1" edge="1">
          <mxGeometry width="100" height="100" relative="1" as="geometry">
            <mxPoint x="43" y="156.88" as="sourcePoint" />
            <mxPoint x="83" y="156.88" as="targetPoint" />
          </mxGeometry>
        </mxCell>
        <mxCell id="iglyDxRZfnVRwTWU5ohg-9" value="" style="shape=flexArrow;endArrow=classic;startArrow=classic;html=1;rounded=0;startWidth=8.571428571428571;startSize=2.954285714285714;endWidth=8.571428571428571;endSize=2.954285714285714;width=4.761904761904762;fillColor=default;fontFamily=Times New Roman;exitX=0.5;exitY=0;exitDx=0;exitDy=0;" parent="1" source="iglyDxRZfnVRwTWU5ohg-8" edge="1">
          <mxGeometry width="100" height="100" relative="1" as="geometry">
            <mxPoint x="53" y="102" as="sourcePoint" />
            <mxPoint x="35" y="33" as="targetPoint" />
          </mxGeometry>
        </mxCell>
      </root>
    </mxGraphModel>
  </diagram>
  <diagram name="第 7 页" id="eYH5j2gfhrx8Ze5CdTB5">
    <mxGraphModel dx="844" dy="476" grid="1" gridSize="10" guides="1" tooltips="1" connect="1" arrows="1" fold="1" page="1" pageScale="1" pageWidth="352" pageHeight="263" math="0" shadow="0">
      <root>
        <mxCell id="0" />
        <mxCell id="1" parent="0" />
        <mxCell id="dvAAOt9Y04fch9Fybu0v-1" value="KVM" style="rounded=1;whiteSpace=wrap;html=1;fillColor=#d5e8d4;strokeColor=light-dark(#000000,#446E2C);fontFamily=Times New Roman;fontSize=14;" vertex="1" parent="1">
          <mxGeometry x="93" y="123" width="80" height="40" as="geometry" />
        </mxCell>
        <mxCell id="dvAAOt9Y04fch9Fybu0v-2" value="APP" style="rounded=1;whiteSpace=wrap;html=1;fillColor=#d5e8d4;strokeColor=light-dark(#000000,#446E2C);fontFamily=Times New Roman;fontSize=14;" vertex="1" parent="1">
          <mxGeometry x="92" y="169" width="80" height="40" as="geometry" />
        </mxCell>
        <mxCell id="dvAAOt9Y04fch9Fybu0v-3" value="&lt;b&gt;OS&lt;/b&gt;" style="rounded=1;whiteSpace=wrap;html=1;align=right;fontFamily=Times New Roman;fontSize=14;arcSize=6;" vertex="1" parent="1">
          <mxGeometry x="79" y="2" width="269" height="211" as="geometry" />
        </mxCell>
        <mxCell id="dvAAOt9Y04fch9Fybu0v-4" value="" style="rounded=1;whiteSpace=wrap;html=1;fillColor=#FFF4C3;strokeColor=#36393d;fontFamily=Times New Roman;fontSize=14;arcSize=11;" vertex="1" parent="1">
          <mxGeometry x="168" y="169" width="61" height="40" as="geometry" />
        </mxCell>
        <mxCell id="dvAAOt9Y04fch9Fybu0v-5" value="" style="rounded=1;whiteSpace=wrap;html=1;fillColor=#ffcc99;strokeColor=#36393d;fontFamily=Times New Roman;fontSize=14;" vertex="1" parent="1">
          <mxGeometry x="92" y="169" width="61" height="40" as="geometry" />
        </mxCell>
        <mxCell id="dvAAOt9Y04fch9Fybu0v-6" value="ML Traffic Classification" style="rounded=1;whiteSpace=wrap;html=1;fillColor=#cce5ff;strokeColor=#36393d;fontFamily=Times New Roman;fontSize=14;labelPosition=center;verticalLabelPosition=middle;align=center;verticalAlign=top;" vertex="1" parent="1">
          <mxGeometry x="93" y="12" width="230" height="131" as="geometry" />
        </mxCell>
        <mxCell id="dvAAOt9Y04fch9Fybu0v-7" value="" style="endArrow=classic;html=1;rounded=0;entryX=0;entryY=0.5;entryDx=0;entryDy=0;fontFamily=Times New Roman;fontSize=14;endWidth=7.727272727272727;fillColor=default;strokeWidth=2;endSize=3;startSize=3;" edge="1" parent="1" source="dvAAOt9Y04fch9Fybu0v-11" target="dvAAOt9Y04fch9Fybu0v-34">
          <mxGeometry width="50" height="50" relative="1" as="geometry">
            <mxPoint x="473" y="363" as="sourcePoint" />
            <mxPoint x="523" y="313" as="targetPoint" />
          </mxGeometry>
        </mxCell>
        <mxCell id="dvAAOt9Y04fch9Fybu0v-8" value="" style="rounded=1;whiteSpace=wrap;html=1;align=right;fontFamily=Times New Roman;fontSize=14;" vertex="1" parent="1">
          <mxGeometry x="79" y="213" width="269" height="47" as="geometry" />
        </mxCell>
        <mxCell id="dvAAOt9Y04fch9Fybu0v-9" value="" style="rounded=0;whiteSpace=wrap;html=1;fontFamily=Times New Roman;fontSize=14;" vertex="1" parent="1">
          <mxGeometry x="183.5" y="218.5" width="79.5" height="35" as="geometry" />
        </mxCell>
        <mxCell id="dvAAOt9Y04fch9Fybu0v-10" value="" style="rounded=0;whiteSpace=wrap;html=1;fontFamily=Times New Roman;fontSize=14;" vertex="1" parent="1">
          <mxGeometry x="103" y="218.5" width="65" height="35" as="geometry" />
        </mxCell>
        <mxCell id="dvAAOt9Y04fch9Fybu0v-11" value="" style="verticalLabelPosition=middle;verticalAlign=middle;html=1;shape=mxgraph.basic.layered_rect;dx=10;outlineConnect=0;whiteSpace=wrap;horizontal=1;fontStyle=0;labelPosition=center;align=center;fontFamily=Times New Roman;fontSize=14;" vertex="1" parent="1">
          <mxGeometry x="3" y="44.38" width="70" height="40" as="geometry" />
        </mxCell>
        <mxCell id="dvAAOt9Y04fch9Fybu0v-12" value="" style="rounded=0;whiteSpace=wrap;html=1;fillColor=#FFF4C3;strokeColor=none;fontFamily=Times New Roman;fontSize=14;" vertex="1" parent="1">
          <mxGeometry x="104" y="219" width="29" height="17" as="geometry" />
        </mxCell>
        <mxCell id="dvAAOt9Y04fch9Fybu0v-13" value="" style="rounded=0;whiteSpace=wrap;html=1;fillColor=#ffcc99;strokeColor=none;fontFamily=Times New Roman;fontSize=14;" vertex="1" parent="1">
          <mxGeometry x="184" y="219" width="70" height="17" as="geometry" />
        </mxCell>
        <mxCell id="dvAAOt9Y04fch9Fybu0v-14" value="" style="rounded=0;whiteSpace=wrap;html=1;fillColor=#ffcc99;strokeColor=none;fontFamily=Times New Roman;fontSize=14;" vertex="1" parent="1">
          <mxGeometry x="122" y="236" width="40" height="16.5" as="geometry" />
        </mxCell>
        <mxCell id="dvAAOt9Y04fch9Fybu0v-15" value="" style="rounded=0;whiteSpace=wrap;html=1;fillColor=#FFF4C3;strokeColor=none;fontFamily=Times New Roman;fontSize=14;" vertex="1" parent="1">
          <mxGeometry x="184" y="231" width="78" height="12.5" as="geometry" />
        </mxCell>
        <mxCell id="dvAAOt9Y04fch9Fybu0v-16" value="VM1" style="rounded=1;whiteSpace=wrap;html=1;fontFamily=Times New Roman;fontSize=14;" vertex="1" parent="1">
          <mxGeometry x="92" y="169" width="30" height="20" as="geometry" />
        </mxCell>
        <mxCell id="dvAAOt9Y04fch9Fybu0v-17" value="VM2" style="rounded=1;whiteSpace=wrap;html=1;fontFamily=Times New Roman;fontSize=14;" vertex="1" parent="1">
          <mxGeometry x="168" y="169" width="30" height="20" as="geometry" />
        </mxCell>
        <mxCell id="dvAAOt9Y04fch9Fybu0v-18" value="HPC" style="text;html=1;align=center;verticalAlign=middle;whiteSpace=wrap;rounded=1;fontFamily=Times New Roman;fontSize=14;" vertex="1" parent="1">
          <mxGeometry x="93" y="182" width="60" height="30" as="geometry" />
        </mxCell>
        <mxCell id="dvAAOt9Y04fch9Fybu0v-19" value="SQL" style="text;html=1;align=center;verticalAlign=middle;whiteSpace=wrap;rounded=1;fontFamily=Times New Roman;fontSize=14;" vertex="1" parent="1">
          <mxGeometry x="172" y="183" width="60" height="30" as="geometry" />
        </mxCell>
        <mxCell id="dvAAOt9Y04fch9Fybu0v-20" value="" style="whiteSpace=wrap;html=1;fillColor=#cce5ff;strokeColor=none;fontFamily=Times New Roman;fontSize=14;" vertex="1" parent="1">
          <mxGeometry x="133" y="219" width="34" height="27" as="geometry" />
        </mxCell>
        <mxCell id="dvAAOt9Y04fch9Fybu0v-21" value="" style="rounded=0;whiteSpace=wrap;html=1;fillColor=#cce5ff;strokeColor=none;fontFamily=Times New Roman;fontSize=14;" vertex="1" parent="1">
          <mxGeometry x="211" y="243" width="51" height="7" as="geometry" />
        </mxCell>
        <mxCell id="dvAAOt9Y04fch9Fybu0v-22" value="&lt;b style=&quot;forced-color-adjust: none; color: rgb(0, 0, 0); font-family: &amp;quot;Times New Roman&amp;quot;; font-size: 14px; font-style: normal; font-variant-ligatures: normal; font-variant-caps: normal; letter-spacing: normal; orphans: 2; text-indent: 0px; text-transform: none; widows: 2; word-spacing: 0px; -webkit-text-stroke-width: 0px; white-space: normal; text-decoration-thickness: initial; text-decoration-style: initial; text-decoration-color: initial; background-color: light-dark(#ffffff, var(--ge-dark-color, #121212));&quot;&gt;Hardware&lt;/b&gt;&lt;div style=&quot;forced-color-adjust: none; color: rgb(0, 0, 0); font-family: &amp;quot;Times New Roman&amp;quot;; font-size: 14px; font-style: normal; font-variant-ligatures: normal; font-variant-caps: normal; font-weight: 400; letter-spacing: normal; orphans: 2; text-indent: 0px; text-transform: none; widows: 2; word-spacing: 0px; -webkit-text-stroke-width: 0px; white-space: normal; text-decoration-thickness: initial; text-decoration-style: initial; text-decoration-color: initial;&quot;&gt;&lt;b style=&quot;forced-color-adjust: none; background-color: light-dark(#ffffff, var(--ge-dark-color, #121212));&quot;&gt;Resources&lt;/b&gt;&lt;/div&gt;" style="text;whiteSpace=wrap;html=1;align=center;fillColor=none;" vertex="1" parent="1">
          <mxGeometry x="277" y="211.5" width="66" height="48" as="geometry" />
        </mxCell>
        <mxCell id="dvAAOt9Y04fch9Fybu0v-23" value="&lt;span style=&quot;color: rgb(0, 0, 0); font-family: &amp;quot;Times New Roman&amp;quot;; font-size: 14px; font-style: normal; font-variant-ligatures: normal; font-variant-caps: normal; font-weight: 400; letter-spacing: normal; orphans: 2; text-align: center; text-indent: 0px; text-transform: none; widows: 2; word-spacing: 0px; -webkit-text-stroke-width: 0px; white-space: normal; text-decoration-thickness: initial; text-decoration-style: initial; text-decoration-color: initial; float: none; display: inline !important;&quot;&gt;Flow 1&lt;/span&gt;" style="text;whiteSpace=wrap;html=1;" vertex="1" parent="1">
          <mxGeometry x="127" y="139" width="46" height="20" as="geometry" />
        </mxCell>
        <mxCell id="dvAAOt9Y04fch9Fybu0v-24" value="&lt;span style=&quot;color: rgb(0, 0, 0); font-family: &amp;quot;Times New Roman&amp;quot;; font-size: 14px; font-style: normal; font-variant-ligatures: normal; font-variant-caps: normal; font-weight: 400; letter-spacing: normal; orphans: 2; text-align: center; text-indent: 0px; text-transform: none; widows: 2; word-spacing: 0px; -webkit-text-stroke-width: 0px; white-space: normal; text-decoration-thickness: initial; text-decoration-style: initial; text-decoration-color: initial; float: none; display: inline !important;&quot;&gt;Flow 2&lt;/span&gt;" style="text;whiteSpace=wrap;html=1;" vertex="1" parent="1">
          <mxGeometry x="205" y="139" width="44" height="20" as="geometry" />
        </mxCell>
        <mxCell id="dvAAOt9Y04fch9Fybu0v-25" value="" style="rounded=1;whiteSpace=wrap;html=1;fillColor=#B9E0A5;strokeColor=#36393d;fontFamily=Times New Roman;fontSize=14;arcSize=11;" vertex="1" parent="1">
          <mxGeometry x="239" y="169" width="88" height="40" as="geometry" />
        </mxCell>
        <mxCell id="dvAAOt9Y04fch9Fybu0v-26" value="VM3" style="rounded=1;whiteSpace=wrap;html=1;fontFamily=Times New Roman;fontSize=14;" vertex="1" parent="1">
          <mxGeometry x="239" y="169" width="30" height="20" as="geometry" />
        </mxCell>
        <mxCell id="dvAAOt9Y04fch9Fybu0v-27" value="&lt;span style=&quot;color: rgb(0, 0, 0); font-family: &amp;quot;Times New Roman&amp;quot;; font-size: 14px; font-style: normal; font-variant-ligatures: normal; font-variant-caps: normal; font-weight: 400; letter-spacing: normal; orphans: 2; text-align: center; text-indent: 0px; text-transform: none; widows: 2; word-spacing: 0px; -webkit-text-stroke-width: 0px; white-space: normal; text-decoration-thickness: initial; text-decoration-style: initial; text-decoration-color: initial; float: none; display: inline !important;&quot;&gt;Flow 3&lt;/span&gt;" style="text;whiteSpace=wrap;html=1;" vertex="1" parent="1">
          <mxGeometry x="288" y="139" width="44" height="20" as="geometry" />
        </mxCell>
        <mxCell id="dvAAOt9Y04fch9Fybu0v-28" value="" style="rounded=0;whiteSpace=wrap;html=1;fillColor=#B9E0A5;strokeColor=none;fontFamily=Times New Roman;fontSize=14;shadow=0;" vertex="1" parent="1">
          <mxGeometry x="184" y="226" width="39" height="27" as="geometry" />
        </mxCell>
        <mxCell id="dvAAOt9Y04fch9Fybu0v-29" value="" style="rounded=0;whiteSpace=wrap;html=1;fillColor=#B9E0A5;strokeColor=none;fontFamily=Times New Roman;fontSize=14;shadow=0;" vertex="1" parent="1">
          <mxGeometry x="104" y="226" width="39" height="26.5" as="geometry" />
        </mxCell>
        <mxCell id="dvAAOt9Y04fch9Fybu0v-30" value="CPU" style="text;html=1;align=center;verticalAlign=middle;whiteSpace=wrap;rounded=1;fontFamily=Times New Roman;fontSize=14;" vertex="1" parent="1">
          <mxGeometry x="105.5" y="225.5" width="60" height="20" as="geometry" />
        </mxCell>
        <mxCell id="dvAAOt9Y04fch9Fybu0v-31" value="Memory" style="text;html=1;align=center;verticalAlign=middle;whiteSpace=wrap;rounded=1;fontFamily=Times New Roman;fontSize=14;" vertex="1" parent="1">
          <mxGeometry x="193.25" y="226.5" width="60" height="19.5" as="geometry" />
        </mxCell>
        <mxCell id="dvAAOt9Y04fch9Fybu0v-32" value="Megatron-LM" style="text;html=1;align=center;verticalAlign=middle;whiteSpace=wrap;rounded=1;fontFamily=Times New Roman;fontSize=14;" vertex="1" parent="1">
          <mxGeometry x="239" y="183" width="91" height="30" as="geometry" />
        </mxCell>
        <mxCell id="dvAAOt9Y04fch9Fybu0v-33" value="&lt;font style=&quot;font-size: 15px;&quot;&gt;Packets&lt;/font&gt;" style="text;html=1;align=center;verticalAlign=middle;whiteSpace=wrap;rounded=0;fontFamily=Times New Roman;" vertex="1" parent="1">
          <mxGeometry x="4" y="44.38" width="60" height="30" as="geometry" />
        </mxCell>
        <mxCell id="dvAAOt9Y04fch9Fybu0v-34" value="&lt;div&gt;Packet Capturing&lt;/div&gt;" style="rounded=1;whiteSpace=wrap;html=1;fillColor=#f9f7ed;strokeColor=#36393d;align=center;fontFamily=Times New Roman;fontSize=14;" vertex="1" parent="1">
          <mxGeometry x="115" y="46" width="84" height="36.75" as="geometry" />
        </mxCell>
        <mxCell id="dvAAOt9Y04fch9Fybu0v-35" value="" style="shape=flexArrow;endArrow=classic;html=1;rounded=0;width=3.8095238095238093;endSize=5.257142857142856;fontFamily=Times New Roman;fontSize=14;endWidth=7.709750566893423;fillColor=#ffcc99;strokeColor=#36393d;exitX=0.318;exitY=1.02;exitDx=0;exitDy=0;exitPerimeter=0;entryX=0.5;entryY=0;entryDx=0;entryDy=0;" edge="1" parent="1" source="dvAAOt9Y04fch9Fybu0v-39" target="dvAAOt9Y04fch9Fybu0v-5">
          <mxGeometry width="50" height="50" relative="1" as="geometry">
            <mxPoint x="150.5" y="123" as="sourcePoint" />
            <mxPoint x="120.5" y="143" as="targetPoint" />
            <Array as="points">
              <mxPoint x="123" y="142" />
            </Array>
          </mxGeometry>
        </mxCell>
        <mxCell id="dvAAOt9Y04fch9Fybu0v-36" value="" style="shape=flexArrow;endArrow=classic;html=1;rounded=0;width=3.8095238095238093;endSize=5.257142857142856;fontFamily=Times New Roman;fontSize=14;endWidth=7.709750566893423;fillColor=#FFF4C3;strokeColor=#36393d;exitX=0.5;exitY=1;exitDx=0;exitDy=0;entryX=0.5;entryY=0;entryDx=0;entryDy=0;" edge="1" parent="1" source="dvAAOt9Y04fch9Fybu0v-39" target="dvAAOt9Y04fch9Fybu0v-4">
          <mxGeometry width="50" height="50" relative="1" as="geometry">
            <mxPoint x="160.5" y="133" as="sourcePoint" />
            <mxPoint x="203" y="142" as="targetPoint" />
            <Array as="points">
              <mxPoint x="199" y="142" />
            </Array>
          </mxGeometry>
        </mxCell>
        <mxCell id="dvAAOt9Y04fch9Fybu0v-37" value="" style="shape=flexArrow;endArrow=classic;html=1;rounded=0;width=3.8095238095238093;endSize=5.257142857142856;fontFamily=Times New Roman;fontSize=14;endWidth=7.709750566893423;fillColor=#B9E0A5;strokeColor=#36393d;exitX=0.75;exitY=1;exitDx=0;exitDy=0;entryX=0.5;entryY=0;entryDx=0;entryDy=0;" edge="1" parent="1" source="dvAAOt9Y04fch9Fybu0v-39" target="dvAAOt9Y04fch9Fybu0v-25">
          <mxGeometry width="50" height="50" relative="1" as="geometry">
            <mxPoint x="231" y="124" as="sourcePoint" />
            <mxPoint x="277" y="143" as="targetPoint" />
            <Array as="points">
              <mxPoint x="283" y="142" />
            </Array>
          </mxGeometry>
        </mxCell>
        <mxCell id="dvAAOt9Y04fch9Fybu0v-38" value="" style="rounded=0;orthogonalLoop=1;jettySize=auto;html=1;startArrow=classic;startFill=1;endArrow=none;strokeWidth=2;endSize=3;startSize=3;" edge="1" parent="1" source="dvAAOt9Y04fch9Fybu0v-39" target="dvAAOt9Y04fch9Fybu0v-34">
          <mxGeometry relative="1" as="geometry" />
        </mxCell>
        <mxCell id="dvAAOt9Y04fch9Fybu0v-39" value="&lt;div style=&quot;text-align: left;&quot;&gt;Analysis&lt;/div&gt;" style="rounded=1;whiteSpace=wrap;html=1;fillColor=#f9f7ed;strokeColor=#36393d;fontFamily=Times New Roman;fontSize=14;" vertex="1" parent="1">
          <mxGeometry x="115" y="101.5" width="84" height="21.5" as="geometry" />
        </mxCell>
        <mxCell id="dvAAOt9Y04fch9Fybu0v-40" value="&lt;font style=&quot;font-size: 15px;&quot;&gt;Traffic Classification&lt;/font&gt;" style="rounded=1;whiteSpace=wrap;html=1;fillColor=#f9f7ed;strokeColor=#36393d;align=center;fontFamily=Times New Roman;fontSize=14;" vertex="1" parent="1">
          <mxGeometry x="215" y="45.99999999999999" width="84" height="36.75" as="geometry" />
        </mxCell>
        <mxCell id="dvAAOt9Y04fch9Fybu0v-41" value="&lt;div style=&quot;text-align: left;&quot;&gt;Preprocessing&lt;/div&gt;" style="rounded=1;whiteSpace=wrap;html=1;fillColor=#f9f7ed;strokeColor=#36393d;fontFamily=Times New Roman;fontSize=14;" vertex="1" parent="1">
          <mxGeometry x="215" y="101.5" width="84" height="21.5" as="geometry" />
        </mxCell>
        <mxCell id="dvAAOt9Y04fch9Fybu0v-42" value="" style="endArrow=classic;html=1;rounded=0;entryX=0;entryY=0.5;entryDx=0;entryDy=0;fontFamily=Times New Roman;fontSize=14;endWidth=7.727272727272727;fillColor=default;exitX=1;exitY=0.5;exitDx=0;exitDy=0;strokeWidth=2;endSize=3;startSize=3;" edge="1" parent="1" source="dvAAOt9Y04fch9Fybu0v-39" target="dvAAOt9Y04fch9Fybu0v-41">
          <mxGeometry width="50" height="50" relative="1" as="geometry">
            <mxPoint x="167" y="93" as="sourcePoint" />
            <mxPoint x="167" y="112" as="targetPoint" />
          </mxGeometry>
        </mxCell>
        <mxCell id="dvAAOt9Y04fch9Fybu0v-43" value="" style="endArrow=classic;html=1;rounded=0;entryX=0.5;entryY=1;entryDx=0;entryDy=0;fontFamily=Times New Roman;fontSize=14;endWidth=7.727272727272727;fillColor=default;exitX=0.5;exitY=0;exitDx=0;exitDy=0;strokeWidth=2;endSize=3;startSize=3;" edge="1" parent="1" source="dvAAOt9Y04fch9Fybu0v-41" target="dvAAOt9Y04fch9Fybu0v-40">
          <mxGeometry width="50" height="50" relative="1" as="geometry">
            <mxPoint x="177" y="103" as="sourcePoint" />
            <mxPoint x="177" y="122" as="targetPoint" />
          </mxGeometry>
        </mxCell>
      </root>
    </mxGraphModel>
  </diagram>
  <diagram id="S0kpt0zxsWvFdy3QXdgU" name="第 8 页">
    <mxGraphModel dx="1213" dy="776" grid="1" gridSize="10" guides="1" tooltips="1" connect="1" arrows="1" fold="1" page="1" pageScale="1" pageWidth="827" pageHeight="1169" math="0" shadow="0">
      <root>
        <mxCell id="0" />
        <mxCell id="1" parent="0" />
        <mxCell id="HOtNZ5NUBft2x1KHRsgD-1" value="" style="group" vertex="1" connectable="0" parent="1">
          <mxGeometry x="260" y="250" width="308" height="294" as="geometry" />
        </mxCell>
        <mxCell id="HOtNZ5NUBft2x1KHRsgD-2" value="" style="endArrow=none;dashed=1;html=1;strokeWidth=2;rounded=0;align=left;fontSize=12;labelPosition=left;verticalLabelPosition=top;verticalAlign=bottom;horizontal=1;fontFamily=Times New Roman;" edge="1" parent="HOtNZ5NUBft2x1KHRsgD-1">
          <mxGeometry width="50" height="50" relative="1" as="geometry">
            <mxPoint y="124" as="sourcePoint" />
            <mxPoint x="290" y="124" as="targetPoint" />
          </mxGeometry>
        </mxCell>
        <mxCell id="HOtNZ5NUBft2x1KHRsgD-3" value="KVM" style="rounded=1;whiteSpace=wrap;html=1;fillColor=#d5e8d4;strokeColor=light-dark(#000000,#446E2C);fontFamily=Times New Roman;container=0;" vertex="1" parent="HOtNZ5NUBft2x1KHRsgD-1">
          <mxGeometry x="30" y="5" width="80" height="40" as="geometry" />
        </mxCell>
        <mxCell id="HOtNZ5NUBft2x1KHRsgD-4" value="&lt;b&gt;&lt;font style=&quot;font-size: 15px;&quot;&gt;Host&lt;/font&gt;&lt;/b&gt;" style="rounded=1;whiteSpace=wrap;html=1;align=right;fontFamily=Times New Roman;container=0;" vertex="1" parent="HOtNZ5NUBft2x1KHRsgD-1">
          <mxGeometry x="3" width="305" height="101" as="geometry" />
        </mxCell>
        <mxCell id="HOtNZ5NUBft2x1KHRsgD-5" value="HPC" style="rounded=1;whiteSpace=wrap;html=1;fillColor=#ffcc99;strokeColor=#36393d;fontFamily=Times New Roman;fontSize=14;container=0;" vertex="1" parent="HOtNZ5NUBft2x1KHRsgD-1">
          <mxGeometry x="39.56" y="5" width="90" height="25" as="geometry" />
        </mxCell>
        <mxCell id="HOtNZ5NUBft2x1KHRsgD-6" value="SQL" style="rounded=1;whiteSpace=wrap;html=1;fillColor=#FFF4C3;strokeColor=light-dark(#000000,#446E2C);fontFamily=Times New Roman;fontSize=14;container=0;" vertex="1" parent="HOtNZ5NUBft2x1KHRsgD-1">
          <mxGeometry x="39.56" y="38" width="90" height="25" as="geometry" />
        </mxCell>
        <mxCell id="HOtNZ5NUBft2x1KHRsgD-7" value="&lt;font style=&quot;font-size: 15px;&quot;&gt;Traffic Classification&lt;/font&gt;" style="rounded=1;whiteSpace=wrap;html=1;fillColor=#cce5ff;strokeColor=#36393d;fontFamily=Times New Roman;container=0;" vertex="1" parent="HOtNZ5NUBft2x1KHRsgD-1">
          <mxGeometry x="140" y="4" width="110" height="81" as="geometry" />
        </mxCell>
        <mxCell id="HOtNZ5NUBft2x1KHRsgD-8" value="&lt;b style=&quot;&quot;&gt;&lt;font style=&quot;font-size: 15px;&quot;&gt;SmartNIC&lt;/font&gt;&lt;/b&gt;" style="rounded=1;whiteSpace=wrap;html=1;align=right;fontFamily=Times New Roman;container=0;" vertex="1" parent="HOtNZ5NUBft2x1KHRsgD-1">
          <mxGeometry y="134" width="308" height="100" as="geometry" />
        </mxCell>
        <mxCell id="HOtNZ5NUBft2x1KHRsgD-9" style="rounded=0;orthogonalLoop=1;jettySize=auto;html=1;entryX=0.5;entryY=1;entryDx=0;entryDy=0;fontFamily=Times New Roman;strokeWidth=2;" edge="1" parent="HOtNZ5NUBft2x1KHRsgD-1" source="HOtNZ5NUBft2x1KHRsgD-10" target="HOtNZ5NUBft2x1KHRsgD-16">
          <mxGeometry relative="1" as="geometry" />
        </mxCell>
        <mxCell id="HOtNZ5NUBft2x1KHRsgD-10" value="" style="verticalLabelPosition=middle;verticalAlign=middle;html=1;shape=mxgraph.basic.layered_rect;dx=10;outlineConnect=0;whiteSpace=wrap;horizontal=1;fontStyle=0;labelPosition=center;align=center;fontFamily=Times New Roman;fontSize=12;container=0;" vertex="1" parent="HOtNZ5NUBft2x1KHRsgD-1">
          <mxGeometry x="33.359999999999985" y="251" width="73.28" height="41" as="geometry" />
        </mxCell>
        <mxCell id="HOtNZ5NUBft2x1KHRsgD-11" style="edgeStyle=orthogonalEdgeStyle;rounded=0;orthogonalLoop=1;jettySize=auto;html=1;exitX=1;exitY=0.5;exitDx=0;exitDy=0;entryX=0;entryY=0.5;entryDx=0;entryDy=0;strokeWidth=2;" edge="1" parent="HOtNZ5NUBft2x1KHRsgD-1" source="HOtNZ5NUBft2x1KHRsgD-12" target="HOtNZ5NUBft2x1KHRsgD-13">
          <mxGeometry relative="1" as="geometry" />
        </mxCell>
        <mxCell id="HOtNZ5NUBft2x1KHRsgD-12" value="&lt;div style=&quot;text-align: left;&quot;&gt;Analysis&lt;/div&gt;" style="rounded=1;whiteSpace=wrap;html=1;fillColor=#f9f7ed;strokeColor=#36393d;fontFamily=Times New Roman;fontSize=14;container=0;" vertex="1" parent="HOtNZ5NUBft2x1KHRsgD-1">
          <mxGeometry x="30" y="144" width="80" height="32.5" as="geometry" />
        </mxCell>
        <mxCell id="HOtNZ5NUBft2x1KHRsgD-13" value="&lt;div style=&quot;text-align: left;&quot;&gt;Preprocessing&lt;/div&gt;" style="rounded=1;whiteSpace=wrap;html=1;fillColor=#f9f7ed;strokeColor=#36393d;fontFamily=Times New Roman;fontSize=14;container=0;" vertex="1" parent="HOtNZ5NUBft2x1KHRsgD-1">
          <mxGeometry x="155" y="147" width="80" height="80" as="geometry" />
        </mxCell>
        <mxCell id="HOtNZ5NUBft2x1KHRsgD-14" value="&lt;div style=&quot;text-align: left;&quot;&gt;Scheduler&lt;/div&gt;" style="rounded=1;whiteSpace=wrap;html=1;fillColor=#ffff88;strokeColor=#36393d;fontFamily=Times New Roman;fontSize=14;container=0;" vertex="1" parent="HOtNZ5NUBft2x1KHRsgD-1">
          <mxGeometry x="165" y="147" width="60" height="29.5" as="geometry" />
        </mxCell>
        <mxCell id="HOtNZ5NUBft2x1KHRsgD-15" style="edgeStyle=orthogonalEdgeStyle;rounded=0;orthogonalLoop=1;jettySize=auto;html=1;exitX=0.5;exitY=0;exitDx=0;exitDy=0;entryX=0.5;entryY=1;entryDx=0;entryDy=0;fontFamily=Times New Roman;strokeWidth=2;" edge="1" parent="HOtNZ5NUBft2x1KHRsgD-1" source="HOtNZ5NUBft2x1KHRsgD-16" target="HOtNZ5NUBft2x1KHRsgD-12">
          <mxGeometry relative="1" as="geometry" />
        </mxCell>
        <mxCell id="HOtNZ5NUBft2x1KHRsgD-16" value="&lt;div&gt;Packet Capturing&lt;/div&gt;" style="rounded=1;whiteSpace=wrap;html=1;fillColor=#f9f7ed;strokeColor=#36393d;align=center;fontFamily=Times New Roman;fontSize=14;container=0;" vertex="1" parent="HOtNZ5NUBft2x1KHRsgD-1">
          <mxGeometry x="30" y="194" width="80" height="32.5" as="geometry" />
        </mxCell>
        <mxCell id="HOtNZ5NUBft2x1KHRsgD-17" style="rounded=0;orthogonalLoop=1;jettySize=auto;html=1;fontFamily=Times New Roman;strokeWidth=2;" edge="1" parent="HOtNZ5NUBft2x1KHRsgD-1">
          <mxGeometry relative="1" as="geometry">
            <mxPoint x="170" y="254" as="sourcePoint" />
            <mxPoint x="130" y="254" as="targetPoint" />
          </mxGeometry>
        </mxCell>
        <mxCell id="HOtNZ5NUBft2x1KHRsgD-18" style="rounded=0;orthogonalLoop=1;jettySize=auto;html=1;fontFamily=Times New Roman;fillColor=#ffcc99;strokeColor=#36393d;shape=flexArrow;endWidth=9.382716049382717;endSize=4.037037037037037;width=6.666666666666666;" edge="1" parent="HOtNZ5NUBft2x1KHRsgD-1">
          <mxGeometry relative="1" as="geometry">
            <mxPoint x="169.56" y="284" as="sourcePoint" />
            <mxPoint x="129.56" y="284" as="targetPoint" />
          </mxGeometry>
        </mxCell>
        <mxCell id="HOtNZ5NUBft2x1KHRsgD-19" value="Packet Forwarding" style="text;whiteSpace=wrap;verticalAlign=middle;fontSize=14;fontStyle=0;fontFamily=Times New Roman;container=0;" vertex="1" parent="HOtNZ5NUBft2x1KHRsgD-1">
          <mxGeometry x="178" y="244" width="112" height="20" as="geometry" />
        </mxCell>
        <mxCell id="HOtNZ5NUBft2x1KHRsgD-20" value="Traffic Steering" style="text;whiteSpace=wrap;verticalAlign=middle;fontSize=14;fontStyle=0;fontFamily=Times New Roman;container=0;" vertex="1" parent="HOtNZ5NUBft2x1KHRsgD-1">
          <mxGeometry x="177.56" y="274" width="112" height="20" as="geometry" />
        </mxCell>
        <mxCell id="HOtNZ5NUBft2x1KHRsgD-21" value="&lt;font style=&quot;font-size: 15px;&quot;&gt;Packets&lt;/font&gt;" style="text;html=1;align=center;verticalAlign=middle;whiteSpace=wrap;rounded=0;fontFamily=Times New Roman;container=0;" vertex="1" parent="HOtNZ5NUBft2x1KHRsgD-1">
          <mxGeometry x="36.56" y="251" width="60" height="30" as="geometry" />
        </mxCell>
        <mxCell id="HOtNZ5NUBft2x1KHRsgD-22" value="&amp;nbsp;Megatron-LM" style="rounded=1;whiteSpace=wrap;html=1;fillColor=#B9E0A5;strokeColor=#36393d;fontFamily=Times New Roman;fontSize=14;arcSize=11;container=0;" vertex="1" parent="HOtNZ5NUBft2x1KHRsgD-1">
          <mxGeometry x="39.56" y="72.5" width="90" height="25" as="geometry" />
        </mxCell>
        <mxCell id="HOtNZ5NUBft2x1KHRsgD-23" style="edgeStyle=orthogonalEdgeStyle;rounded=0;orthogonalLoop=1;jettySize=auto;html=1;exitX=0;exitY=0.5;exitDx=0;exitDy=0;entryX=0;entryY=0.5;entryDx=0;entryDy=0;fontFamily=Times New Roman;strokeWidth=1;shape=flexArrow;endSize=2.170418006430868;width=3.6012861736334405;startSize=1;endWidth=6.1542581238820935;fillColor=#B9E0A5;" edge="1" parent="HOtNZ5NUBft2x1KHRsgD-1" source="HOtNZ5NUBft2x1KHRsgD-12" target="HOtNZ5NUBft2x1KHRsgD-22">
          <mxGeometry relative="1" as="geometry">
            <mxPoint x="40" y="170" as="sourcePoint" />
            <mxPoint x="50" y="50" as="targetPoint" />
            <Array as="points">
              <mxPoint x="10" y="160" />
              <mxPoint x="10" y="85" />
            </Array>
          </mxGeometry>
        </mxCell>
        <mxCell id="HOtNZ5NUBft2x1KHRsgD-24" style="edgeStyle=orthogonalEdgeStyle;rounded=0;orthogonalLoop=1;jettySize=auto;html=1;exitX=0;exitY=0.5;exitDx=0;exitDy=0;entryX=0;entryY=0.5;entryDx=0;entryDy=0;fontFamily=Times New Roman;strokeWidth=1;shape=flexArrow;endSize=2.170418006430868;width=3.6012861736334405;startSize=1;endWidth=6.1542581238820935;fillColor=#FFF2CC;" edge="1" parent="HOtNZ5NUBft2x1KHRsgD-1" source="HOtNZ5NUBft2x1KHRsgD-12" target="HOtNZ5NUBft2x1KHRsgD-6">
          <mxGeometry relative="1" as="geometry" />
        </mxCell>
        <mxCell id="HOtNZ5NUBft2x1KHRsgD-25" style="edgeStyle=orthogonalEdgeStyle;rounded=0;orthogonalLoop=1;jettySize=auto;html=1;exitX=0;exitY=0.5;exitDx=0;exitDy=0;entryX=0;entryY=0.5;entryDx=0;entryDy=0;fontFamily=Times New Roman;strokeWidth=1;shape=flexArrow;endSize=2.170418006430868;width=3.6012861736334405;startSize=1;endWidth=6.1542581238820935;fillColor=#ffcc99;strokeColor=#36393d;" edge="1" parent="HOtNZ5NUBft2x1KHRsgD-1" source="HOtNZ5NUBft2x1KHRsgD-12" target="HOtNZ5NUBft2x1KHRsgD-5">
          <mxGeometry relative="1" as="geometry">
            <mxPoint x="50" y="180" as="sourcePoint" />
            <mxPoint x="60" y="60" as="targetPoint" />
          </mxGeometry>
        </mxCell>
        <mxCell id="HOtNZ5NUBft2x1KHRsgD-26" value="" style="shape=partialRectangle;whiteSpace=wrap;html=1;top=0;bottom=0;fontFamily=Times New Roman;container=0;" vertex="1" parent="HOtNZ5NUBft2x1KHRsgD-1">
          <mxGeometry x="185" y="76" width="10" height="75" as="geometry" />
        </mxCell>
        <mxCell id="HOtNZ5NUBft2x1KHRsgD-27" value="" style="rounded=1;whiteSpace=wrap;html=1;arcSize=23;fillColor=#ffcc99;strokeColor=#36393d;fontFamily=Times New Roman;container=0;" vertex="1" parent="HOtNZ5NUBft2x1KHRsgD-1">
          <mxGeometry x="185" y="96" width="10" height="15" as="geometry" />
        </mxCell>
        <mxCell id="HOtNZ5NUBft2x1KHRsgD-28" value="" style="rounded=1;whiteSpace=wrap;html=1;arcSize=23;fillColor=#FFF4C3;strokeColor=#000000;fontFamily=Times New Roman;container=0;" vertex="1" parent="HOtNZ5NUBft2x1KHRsgD-1">
          <mxGeometry x="185" y="111" width="10" height="15" as="geometry" />
        </mxCell>
        <mxCell id="HOtNZ5NUBft2x1KHRsgD-29" value="" style="shape=partialRectangle;whiteSpace=wrap;html=1;top=0;bottom=0;fontFamily=Times New Roman;container=0;" vertex="1" parent="HOtNZ5NUBft2x1KHRsgD-1">
          <mxGeometry x="195" y="76" width="10" height="75" as="geometry" />
        </mxCell>
        <mxCell id="HOtNZ5NUBft2x1KHRsgD-30" value="" style="rounded=1;whiteSpace=wrap;html=1;arcSize=23;fillColor=#B9E0A5;strokeColor=#000000;fontFamily=Times New Roman;container=0;" vertex="1" parent="HOtNZ5NUBft2x1KHRsgD-1">
          <mxGeometry x="195" y="121" width="10" height="15" as="geometry" />
        </mxCell>
        <mxCell id="HOtNZ5NUBft2x1KHRsgD-31" value="&lt;font&gt;batch&lt;/font&gt;" style="text;html=1;align=center;verticalAlign=middle;whiteSpace=wrap;rounded=0;fontFamily=Times New Roman;fontSize=16;fontStyle=1;container=0;" vertex="1" parent="HOtNZ5NUBft2x1KHRsgD-1">
          <mxGeometry x="117" y="97.75" width="30" height="27.5" as="geometry" />
        </mxCell>
        <mxCell id="HOtNZ5NUBft2x1KHRsgD-32" value="" style="shape=partialRectangle;whiteSpace=wrap;html=1;top=0;bottom=0;fontFamily=Times New Roman;container=0;" vertex="1" parent="HOtNZ5NUBft2x1KHRsgD-1">
          <mxGeometry x="205" y="76" width="10" height="75" as="geometry" />
        </mxCell>
        <mxCell id="HOtNZ5NUBft2x1KHRsgD-33" value="" style="rounded=1;whiteSpace=wrap;html=1;arcSize=23;fillColor=#ffcc99;strokeColor=#36393d;fontFamily=Times New Roman;container=0;" vertex="1" parent="HOtNZ5NUBft2x1KHRsgD-1">
          <mxGeometry x="185" y="81" width="10" height="15" as="geometry" />
        </mxCell>
        <mxCell id="HOtNZ5NUBft2x1KHRsgD-34" value="" style="rounded=1;whiteSpace=wrap;html=1;arcSize=23;fillColor=#FFF4C3;strokeColor=#000000;fontFamily=Times New Roman;container=0;" vertex="1" parent="HOtNZ5NUBft2x1KHRsgD-1">
          <mxGeometry x="205" y="76" width="10" height="15" as="geometry" />
        </mxCell>
        <mxCell id="HOtNZ5NUBft2x1KHRsgD-35" value="" style="shape=partialRectangle;whiteSpace=wrap;html=1;top=0;bottom=0;fontFamily=Times New Roman;container=0;" vertex="1" parent="HOtNZ5NUBft2x1KHRsgD-1">
          <mxGeometry x="175" y="76" width="10" height="75" as="geometry" />
        </mxCell>
        <mxCell id="HOtNZ5NUBft2x1KHRsgD-36" value="" style="rounded=1;whiteSpace=wrap;html=1;arcSize=23;fillColor=#B9E0A5;strokeColor=#000000;fontFamily=Times New Roman;container=0;" vertex="1" parent="HOtNZ5NUBft2x1KHRsgD-1">
          <mxGeometry x="175" y="104" width="10" height="15" as="geometry" />
        </mxCell>
        <mxCell id="HOtNZ5NUBft2x1KHRsgD-37" value="" style="rounded=1;whiteSpace=wrap;html=1;arcSize=23;fillColor=#ffcc99;strokeColor=#36393d;fontFamily=Times New Roman;container=0;" vertex="1" parent="HOtNZ5NUBft2x1KHRsgD-1">
          <mxGeometry x="175" y="119" width="10" height="15" as="geometry" />
        </mxCell>
        <mxCell id="HOtNZ5NUBft2x1KHRsgD-38" value="" style="rounded=1;whiteSpace=wrap;html=1;arcSize=23;fillColor=#B9E0A5;strokeColor=#000000;fontFamily=Times New Roman;container=0;" vertex="1" parent="HOtNZ5NUBft2x1KHRsgD-1">
          <mxGeometry x="175" y="89" width="10" height="15" as="geometry" />
        </mxCell>
        <mxCell id="HOtNZ5NUBft2x1KHRsgD-39" style="rounded=0;orthogonalLoop=1;jettySize=auto;html=1;exitX=0;exitY=0.5;exitDx=0;exitDy=0;entryX=1;entryY=0.5;entryDx=0;entryDy=0;endSize=3;strokeWidth=2;" edge="1" parent="HOtNZ5NUBft2x1KHRsgD-1" source="HOtNZ5NUBft2x1KHRsgD-40" target="HOtNZ5NUBft2x1KHRsgD-31">
          <mxGeometry relative="1" as="geometry" />
        </mxCell>
        <mxCell id="HOtNZ5NUBft2x1KHRsgD-40" value="" style="rounded=0;whiteSpace=wrap;html=1;fillColor=none;horizontal=0;verticalAlign=middle;labelPosition=center;verticalLabelPosition=middle;align=center;strokeWidth=2;dashed=1;container=0;" vertex="1" parent="HOtNZ5NUBft2x1KHRsgD-1">
          <mxGeometry x="170" y="85" width="20" height="52" as="geometry" />
        </mxCell>
        <mxCell id="HOtNZ5NUBft2x1KHRsgD-41" value="PCIe" style="text;html=1;align=center;verticalAlign=middle;whiteSpace=wrap;rounded=0;fontFamily=Times New Roman;fontSize=16;fontStyle=1;container=0;" vertex="1" parent="HOtNZ5NUBft2x1KHRsgD-1">
          <mxGeometry x="260" y="99.75" width="30" height="27.5" as="geometry" />
        </mxCell>
      </root>
    </mxGraphModel>
  </diagram>
</mxfile>
